  0
SECTION
  2
HEADER
  9
$ACADVER
  1
AC1014
  9
$ACADMAINTVER
 70
     9
  9
$DWGCODEPAGE
  3
ANSI_1252
  9
$INSBASE
 10
0.0
 20
0.0
 30
0.0
  9
$EXTMIN
 10
0.0
 20
-0.0000000000000009
 30
0.0
  9
$EXTMAX
 10
15.881
 20
23.00000000000001
 30
0.0
  9
$LIMMIN
 10
0.0
 20
0.0
  9
$LIMMAX
 10
12.0
 20
9.0
  9
$ORTHOMODE
 70
     0
  9
$REGENMODE
 70
     1
  9
$FILLMODE
 70
     1
  9
$QTEXTMODE
 70
     0
  9
$MIRRTEXT
 70
     1
  9
$DRAGMODE
 70
     2
  9
$LTSCALE
 40
1.0
  9
$OSMODE
 70
    37
  9
$ATTMODE
 70
     1
  9
$TEXTSIZE
 40
0.2
  9
$TRACEWID
 40
0.05
  9
$TEXTSTYLE
  7
STANDARD
  9
$CLAYER
  8
0
  9
$CELTYPE
  6
BYLAYER
  9
$CECOLOR
 62
   256
  9
$CELTSCALE
 40
1.0
  9
$DELOBJ
 70
     1
  9
$DISPSILH
 70
     0
  9
$DIMSCALE
 40
1.0
  9
$DIMASZ
 40
0.18
  9
$DIMEXO
 40
0.0625
  9
$DIMDLI
 40
0.38
  9
$DIMRND
 40
0.0
  9
$DIMDLE
 40
0.0
  9
$DIMEXE
 40
0.18
  9
$DIMTP
 40
0.0
  9
$DIMTM
 40
0.0
  9
$DIMTXT
 40
0.18
  9
$DIMCEN
 40
0.09
  9
$DIMTSZ
 40
0.0
  9
$DIMTOL
 70
     0
  9
$DIMLIM
 70
     0
  9
$DIMTIH
 70
     1
  9
$DIMTOH
 70
     1
  9
$DIMSE1
 70
     0
  9
$DIMSE2
 70
     0
  9
$DIMTAD
 70
     0
  9
$DIMZIN
 70
     0
  9
$DIMBLK
  1

  9
$DIMASO
 70
     1
  9
$DIMSHO
 70
     1
  9
$DIMPOST
  1

  9
$DIMAPOST
  1

  9
$DIMALT
 70
     0
  9
$DIMALTD
 70
     2
  9
$DIMALTF
 40
25.4
  9
$DIMLFAC
 40
1.0
  9
$DIMTOFL
 70
     0
  9
$DIMTVP
 40
0.0
  9
$DIMTIX
 70
     0
  9
$DIMSOXD
 70
     0
  9
$DIMSAH
 70
     0
  9
$DIMBLK1
  1

  9
$DIMBLK2
  1

  9
$DIMSTYLE
  2
STANDARD_ACAD
  9
$DIMCLRD
 70
     0
  9
$DIMCLRE
 70
     0
  9
$DIMCLRT
 70
     0
  9
$DIMTFAC
 40
1.0
  9
$DIMGAP
 40
0.09
  9
$DIMJUST
 70
     0
  9
$DIMSD1
 70
     0
  9
$DIMSD2
 70
     0
  9
$DIMTOLJ
 70
     1
  9
$DIMTZIN
 70
     0
  9
$DIMALTZ
 70
     0
  9
$DIMALTTZ
 70
     0
  9
$DIMFIT
 70
     5
  9
$DIMUPT
 70
     0
  9
$DIMUNIT
 70
     2
  9
$DIMDEC
 70
     4
  9
$DIMTDEC
 70
     4
  9
$DIMALTU
 70
     2
  9
$DIMALTTD
 70
     2
  9
$DIMTXSTY
  7
STANDARD
  9
$DIMAUNIT
 70
     0
  9
$LUNITS
 70
     2
  9
$LUPREC
 70
     3
  9
$SKETCHINC
 40
0.1
  9
$FILLETRAD
 40
0.0
  9
$AUNITS
 70
     0
  9
$AUPREC
 70
     0
  9
$MENU
  1
.
  9
$ELEVATION
 40
0.0
  9
$PELEVATION
 40
0.0
  9
$THICKNESS
 40
0.0
  9
$LIMCHECK
 70
     0
  9
$CHAMFERA
 40
0.0
  9
$CHAMFERB
 40
0.0
  9
$CHAMFERC
 40
0.0
  9
$CHAMFERD
 40
0.0
  9
$SKPOLY
 70
     0
  9
$TDCREATE
 40
2459873.297302292
  9
$TDUPDATE
 40
2459873.297339872
  9
$TDINDWG
 40
0.0000000116
  9
$TDUSRTIMER
 40
0.0000000116
  9
$USRTIMER
 70
     1
  9
$ANGBASE
 50
0.0
  9
$ANGDIR
 70
     0
  9
$PDMODE
 70
     0
  9
$PDSIZE
 40
0.0
  9
$PLINEWID
 40
0.0
  9
$COORDS
 70
     1
  9
$SPLFRAME
 70
     0
  9
$SPLINETYPE
 70
     6
  9
$SPLINESEGS
 70
     8
  9
$ATTDIA
 70
     0
  9
$ATTREQ
 70
     1
  9
$HANDLING
 70
     1
  9
$HANDSEED
  5
3B7
  9
$SURFTAB1
 70
     6
  9
$SURFTAB2
 70
     6
  9
$SURFTYPE
 70
     6
  9
$SURFU
 70
     6
  9
$SURFV
 70
     6
  9
$UCSNAME
  2

  9
$UCSORG
 10
0.0
 20
0.0
 30
0.0
  9
$UCSXDIR
 10
1.0
 20
0.0
 30
0.0
  9
$UCSYDIR
 10
0.0
 20
1.0
 30
0.0
  9
$PUCSNAME
  2

  9
$PUCSORG
 10
0.0
 20
0.0
 30
0.0
  9
$PUCSXDIR
 10
1.0
 20
0.0
 30
0.0
  9
$PUCSYDIR
 10
0.0
 20
1.0
 30
0.0
  9
$USERI1
 70
     0
  9
$USERI2
 70
     0
  9
$USERI3
 70
     0
  9
$USERI4
 70
     0
  9
$USERI5
 70
     0
  9
$USERR1
 40
0.0
  9
$USERR2
 40
0.0
  9
$USERR3
 40
0.0
  9
$USERR4
 40
0.0
  9
$USERR5
 40
0.0
  9
$WORLDVIEW
 70
     1
  9
$SHADEDGE
 70
     3
  9
$SHADEDIF
 70
    70
  9
$TILEMODE
 70
     1
  9
$MAXACTVP
 70
    64
  9
$PINSBASE
 10
0.0
 20
0.0
 30
0.0
  9
$PLIMCHECK
 70
     0
  9
$PEXTMIN
 10
1.000000000000000E+20
 20
1.000000000000000E+20
 30
1.000000000000000E+20
  9
$PEXTMAX
 10
-1.000000000000000E+20
 20
-1.000000000000000E+20
 30
-1.000000000000000E+20
  9
$PLIMMIN
 10
0.0
 20
0.0
  9
$PLIMMAX
 10
12.0
 20
9.0
  9
$UNITMODE
 70
     0
  9
$VISRETAIN
 70
     1
  9
$PLINEGEN
 70
     0
  9
$PSLTSCALE
 70
     1
  9
$TREEDEPTH
 70
  3020
  9
$PICKSTYLE
 70
     1
  9
$CMLSTYLE
  2
STANDARD
  9
$CMLJUST
 70
     0
  9
$CMLSCALE
 40
1.0
  9
$PROXYGRAPHICS
 70
     1
  9
$MEASUREMENT
 70
     0
  0
ENDSEC
  0
SECTION
  2
CLASSES
  0
CLASS
  1
ACDBDICTIONARYWDFLT
  2
AcDbDictionaryWithDefault
  3
ObjectDBX Classes
 90
        0
280
     0
281
     0
  0
CLASS
  1
VISUALSTYLE
  2
AcDbVisualStyle
  3
ObjectDBX Classes
 90
     4095
280
     0
281
     0
  0
CLASS
  1
MATERIAL
  2
AcDbMaterial
  3
ObjectDBX Classes
 90
     1153
280
     0
281
     0
  0
CLASS
  1
SCALE
  2
AcDbScale
  3
ObjectDBX Classes
 90
     1153
280
     0
281
     0
  0
CLASS
  1
TABLESTYLE
  2
AcDbTableStyle
  3
ObjectDBX Classes
 90
     4095
280
     0
281
     0
  0
CLASS
  1
MLEADERSTYLE
  2
AcDbMLeaderStyle
  3
ACDB_MLEADERSTYLE_CLASS
 90
     4095
280
     0
281
     0
  0
CLASS
  1
SUN
  2
AcDbSun
  3
SCENEOE
 90
     1153
280
     0
281
     0
  0
CLASS
  1
DICTIONARYVAR
  2
AcDbDictionaryVar
  3
ObjectDBX Classes
 90
        0
280
     0
281
     0
  0
CLASS
  1
XRECORD
  2
AcDbXrecord
  3
ObjectDBX Classes
 90
        0
280
     0
281
     0
  0
CLASS
  1
LWPOLYLINE
  2
AcDbPolyline
  3
ObjectDBX Classes
 90
        0
280
     0
281
     1
  0
CLASS
  1
HATCH
  2
AcDbHatch
  3
ObjectDBX Classes
 90
        0
280
     0
281
     1
  0
CLASS
  1
ACDBPLACEHOLDER
  2
AcDbPlaceHolder
  3
ObjectDBX Classes
 90
        0
280
     0
281
     0
  0
CLASS
  1
LAYOUT
  2
AcDbLayout
  3
ObjectDBX Classes
 90
        0
280
     0
281
     0
  0
ENDSEC
  0
SECTION
  2
TABLES
  0
TABLE
  2
VPORT
  5
8
102
{ACAD_XDICTIONARY
360
3AC
102
}
330
0
100
AcDbSymbolTable
 70
     1
  0
VPORT
  5
29
330
8
100
AcDbSymbolTableRecord
100
AcDbViewportTableRecord
  2
*ACTIVE
 70
     0
 10
0.0
 20
0.0
 11
1.0
 21
1.0
 12
10.42990654205607
 22
4.5
 13
0.0
 23
0.0
 14
0.5
 24
0.5
 15
0.5
 25
0.5
 16
0.0
 26
0.0
 36
1.0
 17
0.0
 27
0.0
 37
0.0
 40
9.0
 41
1.972972972850329
 42
50.0
 43
0.0
 44
0.0
 50
0.0
 51
0.0
 71
     0
 72
   100
 73
     1
 74
     3
 75
     0
 76
     0
 77
     0
 78
     0
  0
ENDTAB
  0
TABLE
  2
LTYPE
  5
5
330
0
100
AcDbSymbolTable
 70
     1
  0
LTYPE
  5
14
330
5
100
AcDbSymbolTableRecord
100
AcDbLinetypeTableRecord
  2
BYBLOCK
 70
     0
  3

 72
    65
 73
     0
 40
0.0
  0
LTYPE
  5
15
330
5
100
AcDbSymbolTableRecord
100
AcDbLinetypeTableRecord
  2
BYLAYER
 70
     0
  3

 72
    65
 73
     0
 40
0.0
  0
LTYPE
  5
16
330
5
100
AcDbSymbolTableRecord
100
AcDbLinetypeTableRecord
  2
CONTINUOUS
 70
     0
  3
Solid line
 72
    65
 73
     0
 40
0.0
  0
ENDTAB
  0
TABLE
  2
LAYER
  5
2
330
0
100
AcDbSymbolTable
 70
     2
  0
LAYER
  5
10
330
2
100
AcDbSymbolTableRecord
100
AcDbLayerTableRecord
  2
0
 70
     0
 62
     7
  6
CONTINUOUS
  0
LAYER
  5
5F
330
2
100
AcDbSymbolTableRecord
100
AcDbLayerTableRecord
  2
2D_MODEL
 70
     0
 62
    18
  6
CONTINUOUS
  0
ENDTAB
  0
TABLE
  2
STYLE
  5
3
330
0
100
AcDbSymbolTable
 70
     1
  0
STYLE
  5
11
330
3
100
AcDbSymbolTableRecord
100
AcDbTextStyleTableRecord
  2
STANDARD
 70
     0
 40
0.0
 41
1.0
 50
0.0
 71
     0
 42
0.2
  3
txt
  4

  0
ENDTAB
  0
TABLE
  2
VIEW
  5
6
330
0
100
AcDbSymbolTable
 70
     0
  0
ENDTAB
  0
TABLE
  2
UCS
  5
7
330
0
100
AcDbSymbolTable
 70
     0
  0
ENDTAB
  0
TABLE
  2
APPID
  5
9
330
0
100
AcDbSymbolTable
 70
     3
  0
APPID
  5
12
330
9
100
AcDbSymbolTableRecord
100
AcDbRegAppTableRecord
  2
ACAD
 70
     0
  0
APPID
  5
5E
330
9
100
AcDbSymbolTableRecord
100
AcDbRegAppTableRecord
  2
RHINO
 70
     0
  0
APPID
  5
3B6
330
9
100
AcDbSymbolTableRecord
100
AcDbRegAppTableRecord
  2
ACAD_MLEADERVER
 70
     0
  0
ENDTAB
  0
TABLE
  2
DIMSTYLE
  5
A
330
0
100
AcDbSymbolTable
 70
     1
  0
DIMSTYLE
105
27
330
A
100
AcDbSymbolTableRecord
100
AcDbDimStyleTableRecord
  2
STANDARD_ACAD
 70
     0
  3

  4

  5

  6

  7

 40
1.0
 41
0.18
 42
0.0625
 43
0.38
 44
0.18
 45
0.0
 46
0.0
 47
0.0
 48
0.0
140
0.18
141
0.09
142
0.0
143
25.4
144
1.0
145
0.0
146
1.0
147
0.09
 71
     0
 72
     0
 73
     1
 74
     1
 75
     0
 76
     0
 77
     0
 78
     0
170
     0
171
     2
172
     0
173
     0
174
     0
175
     0
176
     0
177
     0
178
     0
270
     2
271
     4
272
     4
273
     2
274
     2
340
11
275
     0
280
     0
281
     0
282
     0
283
     1
284
     0
285
     0
286
     0
287
     3
288
     0
  0
ENDTAB
  0
TABLE
  2
BLOCK_RECORD
  5
1
330
0
100
AcDbSymbolTable
 70
     0
  0
BLOCK_RECORD
  5
1F
330
1
100
AcDbSymbolTableRecord
100
AcDbBlockTableRecord
  2
*MODEL_SPACE
  0
BLOCK_RECORD
  5
1B
330
1
100
AcDbSymbolTableRecord
100
AcDbBlockTableRecord
  2
*PAPER_SPACE
  0
ENDTAB
  0
ENDSEC
  0
SECTION
  2
BLOCKS
  0
BLOCK
  5
20
330
1F
100
AcDbEntity
  8
0
100
AcDbBlockBegin
  2
*MODEL_SPACE
 70
     0
 10
0.0
 20
0.0
 30
0.0
  3
*MODEL_SPACE
  1

  0
ENDBLK
  5
21
330
1F
100
AcDbEntity
  8
0
100
AcDbBlockEnd
  0
BLOCK
  5
1C
330
1B
100
AcDbEntity
 67
     1
  8
0
100
AcDbBlockBegin
  2
*PAPER_SPACE
 70
     0
 10
0.0
 20
0.0
 30
0.0
  3
*PAPER_SPACE
  1

  0
ENDBLK
  5
1D
330
1B
100
AcDbEntity
 67
     1
  8
0
100
AcDbBlockEnd
  0
ENDSEC
  0
SECTION
  2
ENTITIES
  0
POLYLINE
  5
60
330
1F
100
AcDbEntity
  8
2D_MODEL
100
AcDb2dPolyline
 66
     1
 10
0.0
 20
0.0
 30
0.0
 70
     1
  0
VERTEX
  5
61
330
60
100
AcDbEntity
  8
2D_MODEL
100
AcDbVertex
100
AcDb2dVertex
 10
15.881
 20
0.0
 30
0.0
  0
VERTEX
  5
62
330
60
100
AcDbEntity
  8
2D_MODEL
100
AcDbVertex
100
AcDb2dVertex
 10
15.881
 20
6.321598574958585
 30
0.0
  0
VERTEX
  5
63
330
60
100
AcDbEntity
  8
2D_MODEL
100
AcDbVertex
100
AcDb2dVertex
 10
15.88085145521164
 20
6.333226249061369
 30
0.0
  0
VERTEX
  5
64
330
60
100
AcDbEntity
  8
2D_MODEL
100
AcDbVertex
100
AcDb2dVertex
 10
15.88040893173218
 20
6.344673678718351
 30
0.0
  0
VERTEX
  5
65
330
60
100
AcDbEntity
  8
2D_MODEL
100
AcDbVertex
100
AcDb2dVertex
 10
15.87967709589005
 20
6.355943724952482
 30
0.0
  0
VERTEX
  5
66
330
60
100
AcDbEntity
  8
2D_MODEL
100
AcDbVertex
100
AcDb2dVertex
 10
15.87866061401367
 20
6.36703924878671
 30
0.0
  0
VERTEX
  5
67
330
60
100
AcDbEntity
  8
2D_MODEL
100
AcDbVertex
100
AcDb2dVertex
 10
15.87736415243149
 20
6.377963111243986
 30
0.0
  0
VERTEX
  5
68
330
60
100
AcDbEntity
  8
2D_MODEL
100
AcDbVertex
100
AcDb2dVertex
 10
15.87579237747192
 20
6.388718173347257
 30
0.0
  0
VERTEX
  5
69
330
60
100
AcDbEntity
  8
2D_MODEL
100
AcDbVertex
100
AcDb2dVertex
 10
15.87394995546341
 20
6.399307296119474
 30
0.0
  0
VERTEX
  5
6A
330
60
100
AcDbEntity
  8
2D_MODEL
100
AcDbVertex
100
AcDb2dVertex
 10
15.87184155273438
 20
6.409733340583585
 30
0.0
  0
VERTEX
  5
6B
330
60
100
AcDbEntity
  8
2D_MODEL
100
AcDbVertex
100
AcDb2dVertex
 10
15.86947183561325
 20
6.419999167762541
 30
0.0
  0
VERTEX
  5
6C
330
60
100
AcDbEntity
  8
2D_MODEL
100
AcDbVertex
100
AcDb2dVertex
 10
15.86684547042847
 20
6.430107638679289
 30
0.0
  0
VERTEX
  5
6D
330
60
100
AcDbEntity
  8
2D_MODEL
100
AcDbVertex
100
AcDb2dVertex
 10
15.86396712350845
 20
6.440061614356779
 30
0.0
  0
VERTEX
  5
6E
330
60
100
AcDbEntity
  8
2D_MODEL
100
AcDbVertex
100
AcDb2dVertex
 10
15.86084146118164
 20
6.44986395581796
 30
0.0
  0
VERTEX
  5
6F
330
60
100
AcDbEntity
  8
2D_MODEL
100
AcDbVertex
100
AcDb2dVertex
 10
15.85747314977646
 20
6.459517524085783
 30
0.0
  0
VERTEX
  5
70
330
60
100
AcDbEntity
  8
2D_MODEL
100
AcDbVertex
100
AcDb2dVertex
 10
15.85386685562134
 20
6.469025180183195
 30
0.0
  0
VERTEX
  5
71
330
60
100
AcDbEntity
  8
2D_MODEL
100
AcDbVertex
100
AcDb2dVertex
 10
15.85002724504471
 20
6.478389785133146
 30
0.0
  0
VERTEX
  5
72
330
60
100
AcDbEntity
  8
2D_MODEL
100
AcDbVertex
100
AcDb2dVertex
 10
15.845958984375
 20
6.487614199958585
 30
0.0
  0
VERTEX
  5
73
330
60
100
AcDbEntity
  8
2D_MODEL
100
AcDbVertex
100
AcDb2dVertex
 10
15.84166673994065
 20
6.496701285682462
 30
0.0
  0
VERTEX
  5
74
330
60
100
AcDbEntity
  8
2D_MODEL
100
AcDbVertex
100
AcDb2dVertex
 10
15.83715517807007
 20
6.505653903327726
 30
0.0
  0
VERTEX
  5
75
330
60
100
AcDbEntity
  8
2D_MODEL
100
AcDbVertex
100
AcDb2dVertex
 10
15.83242896509171
 20
6.514474913917326
 30
0.0
  0
VERTEX
  5
76
330
60
100
AcDbEntity
  8
2D_MODEL
100
AcDbVertex
100
AcDb2dVertex
 10
15.82749276733399
 20
6.52316717847421
 30
0.0
  0
VERTEX
  5
77
330
60
100
AcDbEntity
  8
2D_MODEL
100
AcDbVertex
100
AcDb2dVertex
 10
15.82235125112534
 20
6.53173355802133
 30
0.0
  0
VERTEX
  5
78
330
60
100
AcDbEntity
  8
2D_MODEL
100
AcDbVertex
100
AcDb2dVertex
 10
15.81700908279419
 20
6.540176913581632
 30
0.0
  0
VERTEX
  5
79
330
60
100
AcDbEntity
  8
2D_MODEL
100
AcDbVertex
100
AcDb2dVertex
 10
15.81147092866898
 20
6.548500106178068
 30
0.0
  0
VERTEX
  5
7A
330
60
100
AcDbEntity
  8
2D_MODEL
100
AcDbVertex
100
AcDb2dVertex
 10
15.80574145507813
 20
6.556705996833585
 30
0.0
  0
VERTEX
  5
7B
330
60
100
AcDbEntity
  8
2D_MODEL
100
AcDbVertex
100
AcDb2dVertex
 10
15.79982532835007
 20
6.564797446571134
 30
0.0
  0
VERTEX
  5
7C
330
60
100
AcDbEntity
  8
2D_MODEL
100
AcDbVertex
100
AcDb2dVertex
 10
15.79372721481323
 20
6.572777316413664
 30
0.0
  0
VERTEX
  5
7D
330
60
100
AcDbEntity
  8
2D_MODEL
100
AcDbVertex
100
AcDb2dVertex
 10
15.78745178079605
 20
6.580648467384123
 30
0.0
  0
VERTEX
  5
7E
330
60
100
AcDbEntity
  8
2D_MODEL
100
AcDbVertex
100
AcDb2dVertex
 10
15.78100369262695
 20
6.58841376050546
 30
0.0
  0
VERTEX
  5
7F
330
60
100
AcDbEntity
  8
2D_MODEL
100
AcDbVertex
100
AcDb2dVertex
 10
15.77438761663437
 20
6.596076056800626
 30
0.0
  0
VERTEX
  5
80
330
60
100
AcDbEntity
  8
2D_MODEL
100
AcDbVertex
100
AcDb2dVertex
 10
15.76760821914673
 20
6.60363821729257
 30
0.0
  0
VERTEX
  5
81
330
60
100
AcDbEntity
  8
2D_MODEL
100
AcDbVertex
100
AcDb2dVertex
 10
15.753578125
 20
6.618473574958585
 30
0.0
  0
VERTEX
  5
82
330
60
100
AcDbEntity
  8
2D_MODEL
100
AcDbVertex
100
AcDb2dVertex
 10
15.73895074081421
 20
6.632942721687101
 30
0.0
  0
VERTEX
  5
83
330
60
100
AcDbEntity
  8
2D_MODEL
100
AcDbVertex
100
AcDb2dVertex
 10
15.7237633972168
 20
6.64706854566171
 30
0.0
  0
VERTEX
  5
84
330
60
100
AcDbEntity
  8
2D_MODEL
100
AcDbVertex
100
AcDb2dVertex
 10
15.70805342483521
 20
6.660873935066007
 30
0.0
  0
VERTEX
  5
85
330
60
100
AcDbEntity
  8
2D_MODEL
100
AcDbVertex
100
AcDb2dVertex
 10
15.69185815429688
 20
6.674381778083585
 30
0.0
  0
VERTEX
  5
86
330
60
100
AcDbEntity
  8
2D_MODEL
100
AcDbVertex
100
AcDb2dVertex
 10
15.67521491622925
 20
6.687614962898039
 30
0.0
  0
VERTEX
  5
87
330
60
100
AcDbEntity
  8
2D_MODEL
100
AcDbVertex
100
AcDb2dVertex
 10
15.65816104125977
 20
6.70059637769296
 30
0.0
  0
VERTEX
  5
88
330
60
100
AcDbEntity
  8
2D_MODEL
100
AcDbVertex
100
AcDb2dVertex
 10
15.622970703125
 20
6.725895449958585
 30
0.0
  0
VERTEX
  5
89
330
60
100
AcDbEntity
  8
2D_MODEL
100
AcDbVertex
100
AcDb2dVertex
 10
15.58658578491211
 20
6.75046210034921
 30
0.0
  0
VERTEX
  5
8A
330
60
100
AcDbEntity
  8
2D_MODEL
100
AcDbVertex
100
AcDb2dVertex
 10
15.54930493164063
 20
6.774479434333585
 30
0.0
  0
VERTEX
  5
8B
330
60
100
AcDbEntity
  8
2D_MODEL
100
AcDbVertex
100
AcDb2dVertex
 10
15.47325
 20
6.821598574958585
 30
0.0
  0
VERTEX
  5
8C
330
60
100
AcDbEntity
  8
2D_MODEL
100
AcDbVertex
100
AcDb2dVertex
 10
15.39719506835938
 20
6.868717715583585
 30
0.0
  0
VERTEX
  5
8D
330
60
100
AcDbEntity
  8
2D_MODEL
100
AcDbVertex
100
AcDb2dVertex
 10
15.35991421508789
 20
6.89273504956796
 30
0.0
  0
VERTEX
  5
8E
330
60
100
AcDbEntity
  8
2D_MODEL
100
AcDbVertex
100
AcDb2dVertex
 10
15.323529296875
 20
6.917301699958585
 30
0.0
  0
VERTEX
  5
8F
330
60
100
AcDbEntity
  8
2D_MODEL
100
AcDbVertex
100
AcDb2dVertex
 10
15.28833895874023
 20
6.94260077222421
 30
0.0
  0
VERTEX
  5
90
330
60
100
AcDbEntity
  8
2D_MODEL
100
AcDbVertex
100
AcDb2dVertex
 10
15.27128508377075
 20
6.955582187019132
 30
0.0
  0
VERTEX
  5
91
330
60
100
AcDbEntity
  8
2D_MODEL
100
AcDbVertex
100
AcDb2dVertex
 10
15.25464184570312
 20
6.968815371833585
 30
0.0
  0
VERTEX
  5
92
330
60
100
AcDbEntity
  8
2D_MODEL
100
AcDbVertex
100
AcDb2dVertex
 10
15.23844657516479
 20
6.982323214851164
 30
0.0
  0
VERTEX
  5
93
330
60
100
AcDbEntity
  8
2D_MODEL
100
AcDbVertex
100
AcDb2dVertex
 10
15.2227366027832
 20
6.99612860425546
 30
0.0
  0
VERTEX
  5
94
330
60
100
AcDbEntity
  8
2D_MODEL
100
AcDbVertex
100
AcDb2dVertex
 10
15.20754925918579
 20
7.01025442823007
 30
0.0
  0
VERTEX
  5
95
330
60
100
AcDbEntity
  8
2D_MODEL
100
AcDbVertex
100
AcDb2dVertex
 10
15.192921875
 20
7.024723574958585
 30
0.0
  0
VERTEX
  5
96
330
60
100
AcDbEntity
  8
2D_MODEL
100
AcDbVertex
100
AcDb2dVertex
 10
15.17889178085327
 20
7.039558932624601
 30
0.0
  0
VERTEX
  5
97
330
60
100
AcDbEntity
  8
2D_MODEL
100
AcDbVertex
100
AcDb2dVertex
 10
15.17211238336563
 20
7.047121093116544
 30
0.0
  0
VERTEX
  5
98
330
60
100
AcDbEntity
  8
2D_MODEL
100
AcDbVertex
100
AcDb2dVertex
 10
15.16549630737305
 20
7.05478338941171
 30
0.0
  0
VERTEX
  5
99
330
60
100
AcDbEntity
  8
2D_MODEL
100
AcDbVertex
100
AcDb2dVertex
 10
15.15904821920395
 20
7.062548682533048
 30
0.0
  0
VERTEX
  5
9A
330
60
100
AcDbEntity
  8
2D_MODEL
100
AcDbVertex
100
AcDb2dVertex
 10
15.15277278518677
 20
7.070419833503507
 30
0.0
  0
VERTEX
  5
9B
330
60
100
AcDbEntity
  8
2D_MODEL
100
AcDbVertex
100
AcDb2dVertex
 10
15.14667467164993
 20
7.078399703346037
 30
0.0
  0
VERTEX
  5
9C
330
60
100
AcDbEntity
  8
2D_MODEL
100
AcDbVertex
100
AcDb2dVertex
 10
15.14075854492187
 20
7.086491153083585
 30
0.0
  0
VERTEX
  5
9D
330
60
100
AcDbEntity
  8
2D_MODEL
100
AcDbVertex
100
AcDb2dVertex
 10
15.13502907133102
 20
7.094697043739103
 30
0.0
  0
VERTEX
  5
9E
330
60
100
AcDbEntity
  8
2D_MODEL
100
AcDbVertex
100
AcDb2dVertex
 10
15.12949091720581
 20
7.103020236335539
 30
0.0
  0
VERTEX
  5
9F
330
60
100
AcDbEntity
  8
2D_MODEL
100
AcDbVertex
100
AcDb2dVertex
 10
15.12414874887466
 20
7.111463591895841
 30
0.0
  0
VERTEX
  5
A0
330
60
100
AcDbEntity
  8
2D_MODEL
100
AcDbVertex
100
AcDb2dVertex
 10
15.11900723266601
 20
7.12002997144296
 30
0.0
  0
VERTEX
  5
A1
330
60
100
AcDbEntity
  8
2D_MODEL
100
AcDbVertex
100
AcDb2dVertex
 10
15.11407103490829
 20
7.128722235999845
 30
0.0
  0
VERTEX
  5
A2
330
60
100
AcDbEntity
  8
2D_MODEL
100
AcDbVertex
100
AcDb2dVertex
 10
15.10934482192993
 20
7.137543246589445
 30
0.0
  0
VERTEX
  5
A3
330
60
100
AcDbEntity
  8
2D_MODEL
100
AcDbVertex
100
AcDb2dVertex
 10
15.10483326005935
 20
7.146495864234709
 30
0.0
  0
VERTEX
  5
A4
330
60
100
AcDbEntity
  8
2D_MODEL
100
AcDbVertex
100
AcDb2dVertex
 10
15.100541015625
 20
7.155582949958585
 30
0.0
  0
VERTEX
  5
A5
330
60
100
AcDbEntity
  8
2D_MODEL
100
AcDbVertex
100
AcDb2dVertex
 10
15.09647275495529
 20
7.164807364784025
 30
0.0
  0
VERTEX
  5
A6
330
60
100
AcDbEntity
  8
2D_MODEL
100
AcDbVertex
100
AcDb2dVertex
 10
15.09263314437866
 20
7.174171969733976
 30
0.0
  0
VERTEX
  5
A7
330
60
100
AcDbEntity
  8
2D_MODEL
100
AcDbVertex
100
AcDb2dVertex
 10
15.08902685022354
 20
7.183679625831388
 30
0.0
  0
VERTEX
  5
A8
330
60
100
AcDbEntity
  8
2D_MODEL
100
AcDbVertex
100
AcDb2dVertex
 10
15.08565853881836
 20
7.19333319409921
 30
0.0
  0
VERTEX
  5
A9
330
60
100
AcDbEntity
  8
2D_MODEL
100
AcDbVertex
100
AcDb2dVertex
 10
15.08253287649155
 20
7.203135535560392
 30
0.0
  0
VERTEX
  5
AA
330
60
100
AcDbEntity
  8
2D_MODEL
100
AcDbVertex
100
AcDb2dVertex
 10
15.07965452957153
 20
7.213089511237882
 30
0.0
  0
VERTEX
  5
AB
330
60
100
AcDbEntity
  8
2D_MODEL
100
AcDbVertex
100
AcDb2dVertex
 10
15.07702816438675
 20
7.22319798215463
 30
0.0
  0
VERTEX
  5
AC
330
60
100
AcDbEntity
  8
2D_MODEL
100
AcDbVertex
100
AcDb2dVertex
 10
15.07465844726562
 20
7.233463809333585
 30
0.0
  0
VERTEX
  5
AD
330
60
100
AcDbEntity
  8
2D_MODEL
100
AcDbVertex
100
AcDb2dVertex
 10
15.07255004453659
 20
7.243889853797697
 30
0.0
  0
VERTEX
  5
AE
330
60
100
AcDbEntity
  8
2D_MODEL
100
AcDbVertex
100
AcDb2dVertex
 10
15.07070762252808
 20
7.254478976569914
 30
0.0
  0
VERTEX
  5
AF
330
60
100
AcDbEntity
  8
2D_MODEL
100
AcDbVertex
100
AcDb2dVertex
 10
15.06913584756851
 20
7.265234038673185
 30
0.0
  0
VERTEX
  5
B0
330
60
100
AcDbEntity
  8
2D_MODEL
100
AcDbVertex
100
AcDb2dVertex
 10
15.06783938598633
 20
7.27615790113046
 30
0.0
  0
VERTEX
  5
B1
330
60
100
AcDbEntity
  8
2D_MODEL
100
AcDbVertex
100
AcDb2dVertex
 10
15.06682290410996
 20
7.287253424964689
 30
0.0
  0
VERTEX
  5
B2
330
60
100
AcDbEntity
  8
2D_MODEL
100
AcDbVertex
100
AcDb2dVertex
 10
15.06609106826782
 20
7.29852347119882
 30
0.0
  0
VERTEX
  5
B3
330
60
100
AcDbEntity
  8
2D_MODEL
100
AcDbVertex
100
AcDb2dVertex
 10
15.06564854478836
 20
7.309970900855802
 30
0.0
  0
VERTEX
  5
B4
330
60
100
AcDbEntity
  8
2D_MODEL
100
AcDbVertex
100
AcDb2dVertex
 10
15.0655
 20
7.321598574958585
 30
0.0
  0
VERTEX
  5
B5
330
60
100
AcDbEntity
  8
2D_MODEL
100
AcDbVertex
100
AcDb2dVertex
 10
15.0655
 20
9.0
 30
0.0
  0
VERTEX
  5
B6
330
60
100
AcDbEntity
  8
2D_MODEL
100
AcDbVertex
100
AcDb2dVertex
 10
14.0655
 20
9.0
 30
0.0
  0
VERTEX
  5
B7
330
60
100
AcDbEntity
  8
2D_MODEL
100
AcDbVertex
100
AcDb2dVertex
 10
14.0655
 20
7.321598574958585
 30
0.0
  0
VERTEX
  5
B8
330
60
100
AcDbEntity
  8
2D_MODEL
100
AcDbVertex
100
AcDb2dVertex
 10
14.06535145528229
 20
7.309970903606452
 30
0.0
  0
VERTEX
  5
B9
330
60
100
AcDbEntity
  8
2D_MODEL
100
AcDbVertex
100
AcDb2dVertex
 10
14.06490893201254
 20
7.298523476614832
 30
0.0
  0
VERTEX
  5
BA
330
60
100
AcDbEntity
  8
2D_MODEL
100
AcDbVertex
100
AcDb2dVertex
 10
14.06417709651585
 20
7.287253432962805
 30
0.0
  0
VERTEX
  5
BB
330
60
100
AcDbEntity
  8
2D_MODEL
100
AcDbVertex
100
AcDb2dVertex
 10
14.06316061511731
 20
7.276157911629444
 30
0.0
  0
VERTEX
  5
BC
330
60
100
AcDbEntity
  8
2D_MODEL
100
AcDbVertex
100
AcDb2dVertex
 10
14.06186415414202
 20
7.265234051593827
 30
0.0
  0
VERTEX
  5
BD
330
60
100
AcDbEntity
  8
2D_MODEL
100
AcDbVertex
100
AcDb2dVertex
 10
14.06029237991506
 20
7.25447899183503
 30
0.0
  0
VERTEX
  5
BE
330
60
100
AcDbEntity
  8
2D_MODEL
100
AcDbVertex
100
AcDb2dVertex
 10
14.05844995876153
 20
7.243889871332128
 30
0.0
  0
VERTEX
  5
BF
330
60
100
AcDbEntity
  8
2D_MODEL
100
AcDbVertex
100
AcDb2dVertex
 10
14.05634155700653
 20
7.2334638290642
 30
0.0
  0
VERTEX
  5
C0
330
60
100
AcDbEntity
  8
2D_MODEL
100
AcDbVertex
100
AcDb2dVertex
 10
14.05397184097513
 20
7.22319800401032
 30
0.0
  0
VERTEX
  5
C1
330
60
100
AcDbEntity
  8
2D_MODEL
100
AcDbVertex
100
AcDb2dVertex
 10
14.05134547699245
 20
7.213089535149565
 30
0.0
  0
VERTEX
  5
C2
330
60
100
AcDbEntity
  8
2D_MODEL
100
AcDbVertex
100
AcDb2dVertex
 10
14.04846713138356
 20
7.203135561461011
 30
0.0
  0
VERTEX
  5
C3
330
60
100
AcDbEntity
  8
2D_MODEL
100
AcDbVertex
100
AcDb2dVertex
 10
14.04534147047357
 20
7.193333221923734
 30
0.0
  0
VERTEX
  5
C4
330
60
100
AcDbEntity
  8
2D_MODEL
100
AcDbVertex
100
AcDb2dVertex
 10
14.04197316058756
 20
7.18367965551681
 30
0.0
  0
VERTEX
  5
C5
330
60
100
AcDbEntity
  8
2D_MODEL
100
AcDbVertex
100
AcDb2dVertex
 10
14.03836686805063
 20
7.174172001219317
 30
0.0
  0
VERTEX
  5
C6
330
60
100
AcDbEntity
  8
2D_MODEL
100
AcDbVertex
100
AcDb2dVertex
 10
14.03452725918786
 20
7.164807398010328
 30
0.0
  0
VERTEX
  5
C7
330
60
100
AcDbEntity
  8
2D_MODEL
100
AcDbVertex
100
AcDb2dVertex
 10
14.03045900032436
 20
7.155582984868923
 30
0.0
  0
VERTEX
  5
C8
330
60
100
AcDbEntity
  8
2D_MODEL
100
AcDbVertex
100
AcDb2dVertex
 10
14.02616675778522
 20
7.146495900774177
 30
0.0
  0
VERTEX
  5
C9
330
60
100
AcDbEntity
  8
2D_MODEL
100
AcDbVertex
100
AcDb2dVertex
 10
14.02165519789552
 20
7.137543284705165
 30
0.0
  0
VERTEX
  5
CA
330
60
100
AcDbEntity
  8
2D_MODEL
100
AcDbVertex
100
AcDb2dVertex
 10
14.01692898698036
 20
7.128722275640965
 30
0.0
  0
VERTEX
  5
CB
330
60
100
AcDbEntity
  8
2D_MODEL
100
AcDbVertex
100
AcDb2dVertex
 10
14.01199279136483
 20
7.120030012560651
 30
0.0
  0
VERTEX
  5
CC
330
60
100
AcDbEntity
  8
2D_MODEL
100
AcDbVertex
100
AcDb2dVertex
 10
14.00685127737403
 20
7.111463634443302
 30
0.0
  0
VERTEX
  5
CD
330
60
100
AcDbEntity
  8
2D_MODEL
100
AcDbVertex
100
AcDb2dVertex
 10
14.00150911133305
 20
7.103020280267992
 30
0.0
  0
VERTEX
  5
CE
330
60
100
AcDbEntity
  8
2D_MODEL
100
AcDbVertex
100
AcDb2dVertex
 10
13.99597095956697
 20
7.094697089013799
 30
0.0
  0
VERTEX
  5
CF
330
60
100
AcDbEntity
  8
2D_MODEL
100
AcDbVertex
100
AcDb2dVertex
 10
13.9902414884009
 20
7.086491199659797
 30
0.0
  0
VERTEX
  5
D0
330
60
100
AcDbEntity
  8
2D_MODEL
100
AcDbVertex
100
AcDb2dVertex
 10
13.98432536415993
 20
7.078399751185064
 30
0.0
  0
VERTEX
  5
D1
330
60
100
AcDbEntity
  8
2D_MODEL
100
AcDbVertex
100
AcDb2dVertex
 10
13.97822725316914
 20
7.070419882568676
 30
0.0
  0
VERTEX
  5
D2
330
60
100
AcDbEntity
  8
2D_MODEL
100
AcDbVertex
100
AcDb2dVertex
 10
13.97195182175363
 20
7.062548732789709
 30
0.0
  0
VERTEX
  5
D3
330
60
100
AcDbEntity
  8
2D_MODEL
100
AcDbVertex
100
AcDb2dVertex
 10
13.96550373623849
 20
7.054783440827241
 30
0.0
  0
VERTEX
  5
D4
330
60
100
AcDbEntity
  8
2D_MODEL
100
AcDbVertex
100
AcDb2dVertex
 10
13.95888766294882
 20
7.047121145660345
 30
0.0
  0
VERTEX
  5
D5
330
60
100
AcDbEntity
  8
2D_MODEL
100
AcDbVertex
100
AcDb2dVertex
 10
13.95210826820971
 20
7.039558986268101
 30
0.0
  0
VERTEX
  5
D6
330
60
100
AcDbEntity
  8
2D_MODEL
100
AcDbVertex
100
AcDb2dVertex
 10
13.93807817968353
 20
7.024723630723864
 30
0.0
  0
VERTEX
  5
D7
330
60
100
AcDbEntity
  8
2D_MODEL
100
AcDbVertex
100
AcDb2dVertex
 10
13.92345080126069
 20
7.010254486027143
 30
0.0
  0
VERTEX
  5
D8
330
60
100
AcDbEntity
  8
2D_MODEL
100
AcDbVertex
100
AcDb2dVertex
 10
13.90826346354194
 20
6.996128664010547
 30
0.0
  0
VERTEX
  5
D9
330
60
100
AcDbEntity
  8
2D_MODEL
100
AcDbVertex
100
AcDb2dVertex
 10
13.89255349712801
 20
6.982323276506685
 30
0.0
  0
VERTEX
  5
DA
330
60
100
AcDbEntity
  8
2D_MODEL
100
AcDbVertex
100
AcDb2dVertex
 10
13.87635823261964
 20
6.968815435348167
 30
0.0
  0
VERTEX
  5
DB
330
60
100
AcDbEntity
  8
2D_MODEL
100
AcDbVertex
100
AcDb2dVertex
 10
13.85971500061757
 20
6.955582252367606
 30
0.0
  0
VERTEX
  5
DC
330
60
100
AcDbEntity
  8
2D_MODEL
100
AcDbVertex
100
AcDb2dVertex
 10
13.84266113172256
 20
6.942600839397608
 30
0.0
  0
VERTEX
  5
DD
330
60
100
AcDbEntity
  8
2D_MODEL
100
AcDbVertex
100
AcDb2dVertex
 10
13.80747080565662
 20
6.91730177081975
 30
0.0
  0
VERTEX
  5
DE
330
60
100
AcDbEntity
  8
2D_MODEL
100
AcDbVertex
100
AcDb2dVertex
 10
13.77108589922774
 20
6.892735124275472
 30
0.0
  0
VERTEX
  5
DF
330
60
100
AcDbEntity
  8
2D_MODEL
100
AcDbVertex
100
AcDb2dVertex
 10
13.73380505724186
 20
6.868717794425654
 30
0.0
  0
VERTEX
  5
E0
330
60
100
AcDbEntity
  8
2D_MODEL
100
AcDbVertex
100
AcDb2dVertex
 10
13.65775014582275
 20
6.821598663452922
 30
0.0
  0
VERTEX
  5
E1
330
60
100
AcDbEntity
  8
2D_MODEL
100
AcDbVertex
100
AcDb2dVertex
 10
13.58169522984667
 20
6.774479535188597
 30
0.0
  0
VERTEX
  5
E2
330
60
100
AcDbEntity
  8
2D_MODEL
100
AcDbVertex
100
AcDb2dVertex
 10
13.54441438216459
 20
6.750462208724288
 30
0.0
  0
VERTEX
  5
E3
330
60
100
AcDbEntity
  8
2D_MODEL
100
AcDbVertex
100
AcDb2dVertex
 10
13.50802946776103
 20
6.725895566919723
 30
0.0
  0
VERTEX
  5
E4
330
60
100
AcDbEntity
  8
2D_MODEL
100
AcDbVertex
100
AcDb2dVertex
 10
13.47283913144193
 20
6.700596504435781
 30
0.0
  0
VERTEX
  5
E5
330
60
100
AcDbEntity
  8
2D_MODEL
100
AcDbVertex
100
AcDb2dVertex
 10
13.4557852565659
 20
6.687615095020568
 30
0.0
  0
VERTEX
  5
E6
330
60
100
AcDbEntity
  8
2D_MODEL
100
AcDbVertex
100
AcDb2dVertex
 10
13.43914201801321
 20
6.674381915933342
 30
0.0
  0
VERTEX
  5
E7
330
60
100
AcDbEntity
  8
2D_MODEL
100
AcDbVertex
100
AcDb2dVertex
 10
13.42294674638459
 20
6.660874079006711
 30
0.0
  0
VERTEX
  5
E8
330
60
100
AcDbEntity
  8
2D_MODEL
100
AcDbVertex
100
AcDb2dVertex
 10
13.40723677228078
 20
6.647068696073287
 30
0.0
  0
VERTEX
  5
E9
330
60
100
AcDbEntity
  8
2D_MODEL
100
AcDbVertex
100
AcDb2dVertex
 10
13.39204942630254
 20
6.632942878965679
 30
0.0
  0
VERTEX
  5
EA
330
60
100
AcDbEntity
  8
2D_MODEL
100
AcDbVertex
100
AcDb2dVertex
 10
13.37742203905059
 20
6.618473739516496
 30
0.0
  0
VERTEX
  5
EB
330
60
100
AcDbEntity
  8
2D_MODEL
100
AcDbVertex
100
AcDb2dVertex
 10
13.36339194112568
 20
6.603638389558349
 30
0.0
  0
VERTEX
  5
EC
330
60
100
AcDbEntity
  8
2D_MODEL
100
AcDbVertex
100
AcDb2dVertex
 10
13.35661254147359
 20
6.596076233086105
 30
0.0
  0
VERTEX
  5
ED
330
60
100
AcDbEntity
  8
2D_MODEL
100
AcDbVertex
100
AcDb2dVertex
 10
13.34999646312854
 20
6.588413940923849
 30
0.0
  0
VERTEX
  5
EE
330
60
100
AcDbEntity
  8
2D_MODEL
100
AcDbVertex
100
AcDb2dVertex
 10
13.34354837241563
 20
6.580648652050657
 30
0.0
  0
VERTEX
  5
EF
330
60
100
AcDbEntity
  8
2D_MODEL
100
AcDbVertex
100
AcDb2dVertex
 10
13.33727293565993
 20
6.572777505445606
 30
0.0
  0
VERTEX
  5
F0
330
60
100
AcDbEntity
  8
2D_MODEL
100
AcDbVertex
100
AcDb2dVertex
 10
13.33117481918655
 20
6.56479764008777
 30
0.0
  0
VERTEX
  5
F1
330
60
100
AcDbEntity
  8
2D_MODEL
100
AcDbVertex
100
AcDb2dVertex
 10
13.32525868932057
 20
6.556706194956227
 30
0.0
  0
VERTEX
  5
F2
330
60
100
AcDbEntity
  8
2D_MODEL
100
AcDbVertex
100
AcDb2dVertex
 10
13.3195292123871
 20
6.548500309030054
 30
0.0
  0
VERTEX
  5
F3
330
60
100
AcDbEntity
  8
2D_MODEL
100
AcDbVertex
100
AcDb2dVertex
 10
13.31399105471121
 20
6.540177121288327
 30
0.0
  0
VERTEX
  5
F4
330
60
100
AcDbEntity
  8
2D_MODEL
100
AcDbVertex
100
AcDb2dVertex
 10
13.30864888261802
 20
6.531733770710121
 30
0.0
  0
VERTEX
  5
F5
330
60
100
AcDbEntity
  8
2D_MODEL
100
AcDbVertex
100
AcDb2dVertex
 10
13.30350736243259
 20
6.523167396274512
 30
0.0
  0
VERTEX
  5
F6
330
60
100
AcDbEntity
  8
2D_MODEL
100
AcDbVertex
100
AcDb2dVertex
 10
13.29857116048004
 20
6.514475136960577
 30
0.0
  0
VERTEX
  5
F7
330
60
100
AcDbEntity
  8
2D_MODEL
100
AcDbVertex
100
AcDb2dVertex
 10
13.29384494308546
 20
6.505654131747393
 30
0.0
  0
VERTEX
  5
F8
330
60
100
AcDbEntity
  8
2D_MODEL
100
AcDbVertex
100
AcDb2dVertex
 10
13.28933337657392
 20
6.496701519614035
 30
0.0
  0
VERTEX
  5
F9
330
60
100
AcDbEntity
  8
2D_MODEL
100
AcDbVertex
100
AcDb2dVertex
 10
13.28504112727054
 20
6.487614439539581
 30
0.0
  0
VERTEX
  5
FA
330
60
100
AcDbEntity
  8
2D_MODEL
100
AcDbVertex
100
AcDb2dVertex
 10
13.2809728615004
 20
6.478390030503106
 30
0.0
  0
VERTEX
  5
FB
330
60
100
AcDbEntity
  8
2D_MODEL
100
AcDbVertex
100
AcDb2dVertex
 10
13.27713324558859
 20
6.469025431483685
 30
0.0
  0
VERTEX
  5
FC
330
60
100
AcDbEntity
  8
2D_MODEL
100
AcDbVertex
100
AcDb2dVertex
 10
13.2735269458602
 20
6.459517781460398
 30
0.0
  0
VERTEX
  5
FD
330
60
100
AcDbEntity
  8
2D_MODEL
100
AcDbVertex
100
AcDb2dVertex
 10
13.27015862864033
 20
6.449864219412317
 30
0.0
  0
VERTEX
  5
FE
330
60
100
AcDbEntity
  8
2D_MODEL
100
AcDbVertex
100
AcDb2dVertex
 10
13.26703296025407
 20
6.440061884318521
 30
0.0
  0
VERTEX
  5
FF
330
60
100
AcDbEntity
  8
2D_MODEL
100
AcDbVertex
100
AcDb2dVertex
 10
13.26415460702652
 20
6.430107915158084
 30
0.0
  0
VERTEX
  5
100
330
60
100
AcDbEntity
  8
2D_MODEL
100
AcDbVertex
100
AcDb2dVertex
 10
13.26152823528276
 20
6.419999450910085
 30
0.0
  0
VERTEX
  5
101
330
60
100
AcDbEntity
  8
2D_MODEL
100
AcDbVertex
100
AcDb2dVertex
 10
13.25915851134789
 20
6.409733630553598
 30
0.0
  0
VERTEX
  5
102
330
60
100
AcDbEntity
  8
2D_MODEL
100
AcDbVertex
100
AcDb2dVertex
 10
13.257050101547
 20
6.3993075930677
 30
0.0
  0
VERTEX
  5
103
330
60
100
AcDbEntity
  8
2D_MODEL
100
AcDbVertex
100
AcDb2dVertex
 10
13.25520767220518
 20
6.388718477431469
 30
0.0
  0
VERTEX
  5
104
330
60
100
AcDbEntity
  8
2D_MODEL
100
AcDbVertex
100
AcDb2dVertex
 10
13.25363588964753
 20
6.37796342262398
 30
0.0
  0
VERTEX
  5
105
330
60
100
AcDbEntity
  8
2D_MODEL
100
AcDbVertex
100
AcDb2dVertex
 10
13.25233942019914
 20
6.367039567624307
 30
0.0
  0
VERTEX
  5
106
330
60
100
AcDbEntity
  8
2D_MODEL
100
AcDbVertex
100
AcDb2dVertex
 10
13.25132293018509
 20
6.355944051411528
 30
0.0
  0
VERTEX
  5
107
330
60
100
AcDbEntity
  8
2D_MODEL
100
AcDbVertex
100
AcDb2dVertex
 10
13.25059108593049
 20
6.344674012964721
 30
0.0
  0
VERTEX
  5
108
330
60
100
AcDbEntity
  8
2D_MODEL
100
AcDbVertex
100
AcDb2dVertex
 10
13.25014855376043
 20
6.33322659126296
 30
0.0
  0
VERTEX
  5
109
330
60
100
AcDbEntity
  8
2D_MODEL
100
AcDbVertex
100
AcDb2dVertex
 10
13.25
 20
6.321598925285322
 30
0.0
  0
VERTEX
  5
10A
330
60
100
AcDbEntity
  8
2D_MODEL
100
AcDbVertex
100
AcDb2dVertex
 10
13.25
 20
0.0
 30
0.0
  0
SEQEND
  5
10B
330
60
100
AcDbEntity
  8
2D_MODEL
  0
POLYLINE
  5
10C
330
1F
100
AcDbEntity
  8
2D_MODEL
100
AcDb2dPolyline
 66
     1
 10
0.0
 20
0.0
 30
0.0
 70
     1
  0
VERTEX
  5
10D
330
10C
100
AcDbEntity
  8
2D_MODEL
100
AcDbVertex
100
AcDb2dVertex
 10
13.9505
 20
0.5
 30
0.0
  0
VERTEX
  5
10E
330
10C
100
AcDbEntity
  8
2D_MODEL
100
AcDbVertex
100
AcDb2dVertex
 10
13.95037920655821
 20
0.506958705274774
 30
0.0
  0
VERTEX
  5
10F
330
10C
100
AcDbEntity
  8
2D_MODEL
100
AcDbVertex
100
AcDb2dVertex
 10
13.95001697177954
 20
0.5139090258516874
 30
0.0
  0
VERTEX
  5
110
330
10C
100
AcDbEntity
  8
2D_MODEL
100
AcDbVertex
100
AcDb2dVertex
 10
13.94941373212867
 20
0.5208425871357876
 30
0.0
  0
VERTEX
  5
111
330
10C
100
AcDbEntity
  8
2D_MODEL
100
AcDbVertex
100
AcDb2dVertex
 10
13.94857021446241
 20
0.5277510347257641
 30
0.0
  0
VERTEX
  5
112
330
10C
100
AcDbEntity
  8
2D_MODEL
100
AcDbVertex
100
AcDb2dVertex
 10
13.94748743515384
 20
0.5346260444803522
 30
0.0
  0
VERTEX
  5
113
330
10C
100
AcDbEntity
  8
2D_MODEL
100
AcDbVertex
100
AcDb2dVertex
 10
13.9461666988677
 20
0.5414593325482744
 30
0.0
  0
VERTEX
  5
114
330
10C
100
AcDbEntity
  8
2D_MODEL
100
AcDbVertex
100
AcDb2dVertex
 10
13.94460959698833
 20
0.5482426653496358
 30
0.0
  0
VERTEX
  5
115
330
10C
100
AcDbEntity
  8
2D_MODEL
100
AcDbVertex
100
AcDb2dVertex
 10
13.94281800570224
 20
0.554967869496747
 30
0.0
  0
VERTEX
  5
116
330
10C
100
AcDbEntity
  8
2D_MODEL
100
AcDbVertex
100
AcDb2dVertex
 10
13.94079408373736
 20
0.5616268416424196
 30
0.0
  0
VERTEX
  5
117
330
10C
100
AcDbEntity
  8
2D_MODEL
100
AcDbVertex
100
AcDb2dVertex
 10
13.93854026976204
 20
0.5682115582438679
 30
0.0
  0
VERTEX
  5
118
330
10C
100
AcDbEntity
  8
2D_MODEL
100
AcDbVertex
100
AcDb2dVertex
 10
13.93605927944657
 20
0.5747140852304539
 30
0.0
  0
VERTEX
  5
119
330
10C
100
AcDbEntity
  8
2D_MODEL
100
AcDbVertex
100
AcDb2dVertex
 10
13.93335410219104
 20
0.5811265875636235
 30
0.0
  0
VERTEX
  5
11A
330
10C
100
AcDbEntity
  8
2D_MODEL
100
AcDbVertex
100
AcDb2dVertex
 10
13.93042799752334
 20
0.5874413386775185
 30
0.0
  0
VERTEX
  5
11B
330
10C
100
AcDbEntity
  8
2D_MODEL
100
AcDbVertex
100
AcDb2dVertex
 10
13.9272844911717
 20
0.5936507297888862
 30
0.0
  0
VERTEX
  5
11C
330
10C
100
AcDbEntity
  8
2D_MODEL
100
AcDbVertex
100
AcDb2dVertex
 10
13.92392737081642
 20
0.5997472790650711
 30
0.0
  0
VERTEX
  5
11D
330
10C
100
AcDbEntity
  8
2D_MODEL
100
AcDbVertex
100
AcDb2dVertex
 10
13.92036068152607
 20
0.6057236406390394
 30
0.0
  0
VERTEX
  5
11E
330
10C
100
AcDbEntity
  8
2D_MODEL
100
AcDbVertex
100
AcDb2dVertex
 10
13.91658872088342
 20
0.6115726134605779
 30
0.0
  0
VERTEX
  5
11F
330
10C
100
AcDbEntity
  8
2D_MODEL
100
AcDbVertex
100
AcDb2dVertex
 10
13.91261603380728
 20
0.617287149972998
 30
0.0
  0
VERTEX
  5
120
330
10C
100
AcDbEntity
  8
2D_MODEL
100
AcDbVertex
100
AcDb2dVertex
 10
13.90844740707614
 20
0.6228603646048928
 30
0.0
  0
VERTEX
  5
121
330
10C
100
AcDbEntity
  8
2D_MODEL
100
AcDbVertex
100
AcDb2dVertex
 10
13.90408786356053
 20
0.6282855420667139
 30
0.0
  0
VERTEX
  5
122
330
10C
100
AcDbEntity
  8
2D_MODEL
100
AcDbVertex
100
AcDb2dVertex
 10
13.89954265617083
 20
0.633556145442173
 30
0.0
  0
VERTEX
  5
123
330
10C
100
AcDbEntity
  8
2D_MODEL
100
AcDbVertex
100
AcDb2dVertex
 10
13.89481726152794
 20
0.6386658240647162
 30
0.0
  0
VERTEX
  5
124
330
10C
100
AcDbEntity
  8
2D_MODEL
100
AcDbVertex
100
AcDb2dVertex
 10
13.88991737336435
 20
0.6436084211695828
 30
0.0
  0
VERTEX
  5
125
330
10C
100
AcDbEntity
  8
2D_MODEL
100
AcDbVertex
100
AcDb2dVertex
 10
13.88484889566366
 20
0.6483779813122278
 30
0.0
  0
VERTEX
  5
126
330
10C
100
AcDbEntity
  8
2D_MODEL
100
AcDbVertex
100
AcDb2dVertex
 10
13.87961793554672
 20
0.6529687575441678
 30
0.0
  0
VERTEX
  5
127
330
10C
100
AcDbEntity
  8
2D_MODEL
100
AcDbVertex
100
AcDb2dVertex
 10
13.87423079591305
 20
0.6573752183376071
 30
0.0
  0
VERTEX
  5
128
330
10C
100
AcDbEntity
  8
2D_MODEL
100
AcDbVertex
100
AcDb2dVertex
 10
13.86869396784632
 20
0.6615920542504974
 30
0.0
  0
VERTEX
  5
129
330
10C
100
AcDbEntity
  8
2D_MODEL
100
AcDbVertex
100
AcDb2dVertex
 10
13.8630141227931
 20
0.665614184324002
 30
0.0
  0
VERTEX
  5
12A
330
10C
100
AcDbEntity
  8
2D_MODEL
100
AcDbVertex
100
AcDb2dVertex
 10
13.8571981045243
 20
0.6694367622046555
 30
0.0
  0
VERTEX
  5
12B
330
10C
100
AcDbEntity
  8
2D_MODEL
100
AcDbVertex
100
AcDb2dVertex
 10
13.85125292088892
 20
0.6730551819838426
 30
0.0
  0
VERTEX
  5
12C
330
10C
100
AcDbEntity
  8
2D_MODEL
100
AcDbVertex
100
AcDb2dVertex
 10
13.8451857353702
 20
0.6764650837475588
 30
0.0
  0
VERTEX
  5
12D
330
10C
100
AcDbEntity
  8
2D_MODEL
100
AcDbVertex
100
AcDb2dVertex
 10
13.83900385845413
 20
0.679662358829767
 30
0.0
  0
VERTEX
  5
12E
330
10C
100
AcDbEntity
  8
2D_MODEL
100
AcDbVertex
100
AcDb2dVertex
 10
13.83271473882091
 20
0.6826431547630205
 30
0.0
  0
VERTEX
  5
12F
330
10C
100
AcDbEntity
  8
2D_MODEL
100
AcDbVertex
100
AcDb2dVertex
 10
13.82632595436984
 20
0.6854038799203866
 30
0.0
  0
VERTEX
  5
130
330
10C
100
AcDbEntity
  8
2D_MODEL
100
AcDbVertex
100
AcDb2dVertex
 10
13.81984520308858
 20
0.6879412078430761
 30
0.0
  0
VERTEX
  5
131
330
10C
100
AcDbEntity
  8
2D_MODEL
100
AcDbVertex
100
AcDb2dVertex
 10
13.81328029377767
 20
0.6902520812485682
 30
0.0
  0
VERTEX
  5
132
330
10C
100
AcDbEntity
  8
2D_MODEL
100
AcDbVertex
100
AcDb2dVertex
 10
13.80663913664149
 20
0.6923337157143972
 30
0.0
  0
VERTEX
  5
133
330
10C
100
AcDbEntity
  8
2D_MODEL
100
AcDbVertex
100
AcDb2dVertex
 10
13.79992973375713
 20
0.6941836030331646
 30
0.0
  0
VERTEX
  5
134
330
10C
100
AcDbEntity
  8
2D_MODEL
100
AcDbVertex
100
AcDb2dVertex
 10
13.7931601694325
 20
0.6957995142347346
 30
0.0
  0
VERTEX
  5
135
330
10C
100
AcDbEntity
  8
2D_MODEL
100
AcDbVertex
100
AcDb2dVertex
 10
13.78633860046533
 20
0.6971795022719685
 30
0.0
  0
VERTEX
  5
136
330
10C
100
AcDbEntity
  8
2D_MODEL
100
AcDbVertex
100
AcDb2dVertex
 10
13.77947324631492
 20
0.6983219043667646
 30
0.0
  0
VERTEX
  5
137
330
10C
100
AcDbEntity
  8
2D_MODEL
100
AcDbVertex
100
AcDb2dVertex
 10
13.77257237919829
 20
0.6992253440135779
 30
0.0
  0
VERTEX
  5
138
330
10C
100
AcDbEntity
  8
2D_MODEL
100
AcDbVertex
100
AcDb2dVertex
 10
13.76564431412284
 20
0.6998887326380003
 30
0.0
  0
VERTEX
  5
139
330
10C
100
AcDbEntity
  8
2D_MODEL
100
AcDbVertex
100
AcDb2dVertex
 10
13.75869739886736
 20
0.7003112709084092
 30
0.0
  0
VERTEX
  5
13A
330
10C
100
AcDbEntity
  8
2D_MODEL
100
AcDbVertex
100
AcDb2dVertex
 10
13.75174000392367
 20
0.700492449699099
 30
0.0
  0
VERTEX
  5
13B
330
10C
100
AcDbEntity
  8
2D_MODEL
100
AcDbVertex
100
AcDb2dVertex
 10
13.74478051241077
 20
0.7004320507037385
 30
0.0
  0
VERTEX
  5
13C
330
10C
100
AcDbEntity
  8
2D_MODEL
100
AcDbVertex
100
AcDb2dVertex
 10
13.73782730997388
 20
0.7001301466984129
 30
0.0
  0
VERTEX
  5
13D
330
10C
100
AcDbEntity
  8
2D_MODEL
100
AcDbVertex
100
AcDb2dVertex
 10
13.73088877468038
 20
0.6995871014539339
 30
0.0
  0
VERTEX
  5
13E
330
10C
100
AcDbEntity
  8
2D_MODEL
100
AcDbVertex
100
AcDb2dVertex
 10
13.72397326692486
 20
0.6988035692975249
 30
0.0
  0
VERTEX
  5
13F
330
10C
100
AcDbEntity
  8
2D_MODEL
100
AcDbVertex
100
AcDb2dVertex
 10
13.71708911935554
 20
0.6977804943244069
 30
0.0
  0
VERTEX
  5
140
330
10C
100
AcDbEntity
  8
2D_MODEL
100
AcDbVertex
100
AcDb2dVertex
 10
13.71024462683406
 20
0.696519109260238
 30
0.0
  0
VERTEX
  5
141
330
10C
100
AcDbEntity
  8
2D_MODEL
100
AcDbVertex
100
AcDb2dVertex
 10
13.7034480364408
 20
0.6950209339757745
 30
0.0
  0
VERTEX
  5
142
330
10C
100
AcDbEntity
  8
2D_MODEL
100
AcDbVertex
100
AcDb2dVertex
 10
13.69670753753782
 20
0.6932877736555451
 30
0.0
  0
VERTEX
  5
143
330
10C
100
AcDbEntity
  8
2D_MODEL
100
AcDbVertex
100
AcDb2dVertex
 10
13.69003125190129
 20
0.6913217166227443
 30
0.0
  0
VERTEX
  5
144
330
10C
100
AcDbEntity
  8
2D_MODEL
100
AcDbVertex
100
AcDb2dVertex
 10
13.68342722393541
 20
0.6891251318229656
 30
0.0
  0
VERTEX
  5
145
330
10C
100
AcDbEntity
  8
2D_MODEL
100
AcDbVertex
100
AcDb2dVertex
 10
13.6769034109795
 20
0.6867006659698066
 30
0.0
  0
VERTEX
  5
146
330
10C
100
AcDbEntity
  8
2D_MODEL
100
AcDbVertex
100
AcDb2dVertex
 10
13.67046767372007
 20
0.6840512403557848
 30
0.0
  0
VERTEX
  5
147
330
10C
100
AcDbEntity
  8
2D_MODEL
100
AcDbVertex
100
AcDb2dVertex
 10
13.66412776671923
 20
0.6811800473324081
 30
0.0
  0
VERTEX
  5
148
330
10C
100
AcDbEntity
  8
2D_MODEL
100
AcDbVertex
100
AcDb2dVertex
 10
13.65789132907113
 20
0.6780905464636402
 30
0.0
  0
VERTEX
  5
149
330
10C
100
AcDbEntity
  8
2D_MODEL
100
AcDbVertex
100
AcDb2dVertex
 10
13.65176587519739
 20
0.6747864603573944
 30
0.0
  0
VERTEX
  5
14A
330
10C
100
AcDbEntity
  8
2D_MODEL
100
AcDbVertex
100
AcDb2dVertex
 10
13.64575878579284
 20
0.6712717701800823
 30
0.0
  0
VERTEX
  5
14B
330
10C
100
AcDbEntity
  8
2D_MODEL
100
AcDbVertex
100
AcDb2dVertex
 10
13.63987729893234
 20
0.6675507108596174
 30
0.0
  0
VERTEX
  5
14C
330
10C
100
AcDbEntity
  8
2D_MODEL
100
AcDbVertex
100
AcDb2dVertex
 10
13.63412850134944
 20
0.663627765982657
 30
0.0
  0
VERTEX
  5
14D
330
10C
100
AcDbEntity
  8
2D_MODEL
100
AcDbVertex
100
AcDb2dVertex
 10
13.62851931989749
 20
0.6595076623922301
 30
0.0
  0
VERTEX
  5
14E
330
10C
100
AcDbEntity
  8
2D_MODEL
100
AcDbVertex
100
AcDb2dVertex
 10
13.62305651320325
 20
0.655195364492259
 30
0.0
  0
VERTEX
  5
14F
330
10C
100
AcDbEntity
  8
2D_MODEL
100
AcDbVertex
100
AcDb2dVertex
 10
13.6177466635233
 20
0.6506960682658391
 30
0.0
  0
VERTEX
  5
150
330
10C
100
AcDbEntity
  8
2D_MODEL
100
AcDbVertex
100
AcDb2dVertex
 10
13.61259616881294
 20
0.6460151950144851
 30
0.0
  0
VERTEX
  5
151
330
10C
100
AcDbEntity
  8
2D_MODEL
100
AcDbVertex
100
AcDb2dVertex
 10
13.60761123501712
 20
0.6411583848258835
 30
0.0
  0
VERTEX
  5
152
330
10C
100
AcDbEntity
  8
2D_MODEL
100
AcDbVertex
100
AcDb2dVertex
 10
13.60279786859282
 20
0.6361314897780275
 30
0.0
  0
VERTEX
  5
153
330
10C
100
AcDbEntity
  8
2D_MODEL
100
AcDbVertex
100
AcDb2dVertex
 10
13.59816186927167
 20
0.6309405668879177
 30
0.0
  0
VERTEX
  5
154
330
10C
100
AcDbEntity
  8
2D_MODEL
100
AcDbVertex
100
AcDb2dVertex
 10
13.59370882307178
 20
0.6255918708133292
 30
0.0
  0
VERTEX
  5
155
330
10C
100
AcDbEntity
  8
2D_MODEL
100
AcDbVertex
100
AcDb2dVertex
 10
13.58944409556696
 20
0.620091846316436
 30
0.0
  0
VERTEX
  5
156
330
10C
100
AcDbEntity
  8
2D_MODEL
100
AcDbVertex
100
AcDb2dVertex
 10
13.58537282542171
 20
0.614447120498374
 30
0.0
  0
VERTEX
  5
157
330
10C
100
AcDbEntity
  8
2D_MODEL
100
AcDbVertex
100
AcDb2dVertex
 10
13.58149991819943
 20
0.6086644948141009
 30
0.0
  0
VERTEX
  5
158
330
10C
100
AcDbEntity
  8
2D_MODEL
100
AcDbVertex
100
AcDb2dVertex
 10
13.5778300404517
 20
0.6027509368771727
 30
0.0
  0
VERTEX
  5
159
330
10C
100
AcDbEntity
  8
2D_MODEL
100
AcDbVertex
100
AcDb2dVertex
 10
13.57436761409534
 20
0.5967135720643115
 30
0.0
  0
VERTEX
  5
15A
330
10C
100
AcDbEntity
  8
2D_MODEL
100
AcDbVertex
100
AcDb2dVertex
 10
13.57111681108445
 20
0.5905596749298824
 30
0.0
  0
VERTEX
  5
15B
330
10C
100
AcDbEntity
  8
2D_MODEL
100
AcDbVertex
100
AcDb2dVertex
 10
13.56808154838346
 20
0.5842966604406209
 30
0.0
  0
VERTEX
  5
15C
330
10C
100
AcDbEntity
  8
2D_MODEL
100
AcDbVertex
100
AcDb2dVertex
 10
13.5652654832475
 20
0.5779320750411768
 30
0.0
  0
VERTEX
  5
15D
330
10C
100
AcDbEntity
  8
2D_MODEL
100
AcDbVertex
100
AcDb2dVertex
 10
13.56267200881575
 20
0.5714735875612356
 30
0.0
  0
VERTEX
  5
15E
330
10C
100
AcDbEntity
  8
2D_MODEL
100
AcDbVertex
100
AcDb2dVertex
 10
13.56030425002287
 20
0.5649289799751753
 30
0.0
  0
VERTEX
  5
15F
330
10C
100
AcDbEntity
  8
2D_MODEL
100
AcDbVertex
100
AcDb2dVertex
 10
13.55816505983381
 20
0.558306138025395
 30
0.0
  0
VERTEX
  5
160
330
10C
100
AcDbEntity
  8
2D_MODEL
100
AcDbVertex
100
AcDb2dVertex
 10
13.55625701580612
 20
0.551613041720608
 30
0.0
  0
VERTEX
  5
161
330
10C
100
AcDbEntity
  8
2D_MODEL
100
AcDbVertex
100
AcDb2dVertex
 10
13.55458241698425
 20
0.5448577557205536
 30
0.0
  0
VERTEX
  5
162
330
10C
100
AcDbEntity
  8
2D_MODEL
100
AcDbVertex
100
AcDb2dVertex
 10
13.55314328112934
 20
0.5380484196187103
 30
0.0
  0
VERTEX
  5
163
330
10C
100
AcDbEntity
  8
2D_MODEL
100
AcDbVertex
100
AcDb2dVertex
 10
13.55194134228802
 20
0.5311932381347192
 30
0.0
  0
VERTEX
  5
164
330
10C
100
AcDbEntity
  8
2D_MODEL
100
AcDbVertex
100
AcDb2dVertex
 10
13.55097804870296
 20
0.5243004712283361
 30
0.0
  0
VERTEX
  5
165
330
10C
100
AcDbEntity
  8
2D_MODEL
100
AcDbVertex
100
AcDb2dVertex
 10
13.55025456106791
 20
0.5173784241468237
 30
0.0
  0
VERTEX
  5
166
330
10C
100
AcDbEntity
  8
2D_MODEL
100
AcDbVertex
100
AcDb2dVertex
 10
13.54977175112911
 20
0.5104354374177748
 30
0.0
  0
VERTEX
  5
167
330
10C
100
AcDbEntity
  8
2D_MODEL
100
AcDbVertex
100
AcDb2dVertex
 10
13.54953020063495
 20
0.5034798767994265
 30
0.0
  0
VERTEX
  5
168
330
10C
100
AcDbEntity
  8
2D_MODEL
100
AcDbVertex
100
AcDb2dVertex
 10
13.54953020063495
 20
0.4965201232005736
 30
0.0
  0
VERTEX
  5
169
330
10C
100
AcDbEntity
  8
2D_MODEL
100
AcDbVertex
100
AcDb2dVertex
 10
13.54977175112911
 20
0.4895645625822253
 30
0.0
  0
VERTEX
  5
16A
330
10C
100
AcDbEntity
  8
2D_MODEL
100
AcDbVertex
100
AcDb2dVertex
 10
13.55025456106791
 20
0.4826215758531763
 30
0.0
  0
VERTEX
  5
16B
330
10C
100
AcDbEntity
  8
2D_MODEL
100
AcDbVertex
100
AcDb2dVertex
 10
13.55097804870296
 20
0.4756995287716639
 30
0.0
  0
VERTEX
  5
16C
330
10C
100
AcDbEntity
  8
2D_MODEL
100
AcDbVertex
100
AcDb2dVertex
 10
13.55194134228802
 20
0.468806761865281
 30
0.0
  0
VERTEX
  5
16D
330
10C
100
AcDbEntity
  8
2D_MODEL
100
AcDbVertex
100
AcDb2dVertex
 10
13.55314328112934
 20
0.4619515803812899
 30
0.0
  0
VERTEX
  5
16E
330
10C
100
AcDbEntity
  8
2D_MODEL
100
AcDbVertex
100
AcDb2dVertex
 10
13.55458241698425
 20
0.4551422442794465
 30
0.0
  0
VERTEX
  5
16F
330
10C
100
AcDbEntity
  8
2D_MODEL
100
AcDbVertex
100
AcDb2dVertex
 10
13.55625701580612
 20
0.4483869582793922
 30
0.0
  0
VERTEX
  5
170
330
10C
100
AcDbEntity
  8
2D_MODEL
100
AcDbVertex
100
AcDb2dVertex
 10
13.55816505983381
 20
0.4416938619746052
 30
0.0
  0
VERTEX
  5
171
330
10C
100
AcDbEntity
  8
2D_MODEL
100
AcDbVertex
100
AcDb2dVertex
 10
13.56030425002287
 20
0.4350710200248248
 30
0.0
  0
VERTEX
  5
172
330
10C
100
AcDbEntity
  8
2D_MODEL
100
AcDbVertex
100
AcDb2dVertex
 10
13.56267200881575
 20
0.4285264124387645
 30
0.0
  0
VERTEX
  5
173
330
10C
100
AcDbEntity
  8
2D_MODEL
100
AcDbVertex
100
AcDb2dVertex
 10
13.5652654832475
 20
0.4220679249588231
 30
0.0
  0
VERTEX
  5
174
330
10C
100
AcDbEntity
  8
2D_MODEL
100
AcDbVertex
100
AcDb2dVertex
 10
13.56808154838346
 20
0.4157033395593791
 30
0.0
  0
VERTEX
  5
175
330
10C
100
AcDbEntity
  8
2D_MODEL
100
AcDbVertex
100
AcDb2dVertex
 10
13.57111681108445
 20
0.4094403250701177
 30
0.0
  0
VERTEX
  5
176
330
10C
100
AcDbEntity
  8
2D_MODEL
100
AcDbVertex
100
AcDb2dVertex
 10
13.57436761409534
 20
0.4032864279356885
 30
0.0
  0
VERTEX
  5
177
330
10C
100
AcDbEntity
  8
2D_MODEL
100
AcDbVertex
100
AcDb2dVertex
 10
13.5778300404517
 20
0.3972490631228274
 30
0.0
  0
VERTEX
  5
178
330
10C
100
AcDbEntity
  8
2D_MODEL
100
AcDbVertex
100
AcDb2dVertex
 10
13.58149991819943
 20
0.3913355051858992
 30
0.0
  0
VERTEX
  5
179
330
10C
100
AcDbEntity
  8
2D_MODEL
100
AcDbVertex
100
AcDb2dVertex
 10
13.58537282542171
 20
0.385552879501626
 30
0.0
  0
VERTEX
  5
17A
330
10C
100
AcDbEntity
  8
2D_MODEL
100
AcDbVertex
100
AcDb2dVertex
 10
13.58944409556696
 20
0.3799081536835641
 30
0.0
  0
VERTEX
  5
17B
330
10C
100
AcDbEntity
  8
2D_MODEL
100
AcDbVertex
100
AcDb2dVertex
 10
13.59370882307178
 20
0.3744081291866708
 30
0.0
  0
VERTEX
  5
17C
330
10C
100
AcDbEntity
  8
2D_MODEL
100
AcDbVertex
100
AcDb2dVertex
 10
13.59816186927167
 20
0.3690594331120823
 30
0.0
  0
VERTEX
  5
17D
330
10C
100
AcDbEntity
  8
2D_MODEL
100
AcDbVertex
100
AcDb2dVertex
 10
13.60279786859282
 20
0.3638685102219726
 30
0.0
  0
VERTEX
  5
17E
330
10C
100
AcDbEntity
  8
2D_MODEL
100
AcDbVertex
100
AcDb2dVertex
 10
13.60761123501712
 20
0.3588416151741165
 30
0.0
  0
VERTEX
  5
17F
330
10C
100
AcDbEntity
  8
2D_MODEL
100
AcDbVertex
100
AcDb2dVertex
 10
13.61259616881294
 20
0.353984804985515
 30
0.0
  0
VERTEX
  5
180
330
10C
100
AcDbEntity
  8
2D_MODEL
100
AcDbVertex
100
AcDb2dVertex
 10
13.6177466635233
 20
0.349303931734161
 30
0.0
  0
VERTEX
  5
181
330
10C
100
AcDbEntity
  8
2D_MODEL
100
AcDbVertex
100
AcDb2dVertex
 10
13.62305651320325
 20
0.3448046355077412
 30
0.0
  0
VERTEX
  5
182
330
10C
100
AcDbEntity
  8
2D_MODEL
100
AcDbVertex
100
AcDb2dVertex
 10
13.62851931989749
 20
0.3404923376077699
 30
0.0
  0
VERTEX
  5
183
330
10C
100
AcDbEntity
  8
2D_MODEL
100
AcDbVertex
100
AcDb2dVertex
 10
13.63412850134944
 20
0.336372234017343
 30
0.0
  0
VERTEX
  5
184
330
10C
100
AcDbEntity
  8
2D_MODEL
100
AcDbVertex
100
AcDb2dVertex
 10
13.63987729893234
 20
0.3324492891403827
 30
0.0
  0
VERTEX
  5
185
330
10C
100
AcDbEntity
  8
2D_MODEL
100
AcDbVertex
100
AcDb2dVertex
 10
13.64575878579284
 20
0.3287282298199177
 30
0.0
  0
VERTEX
  5
186
330
10C
100
AcDbEntity
  8
2D_MODEL
100
AcDbVertex
100
AcDb2dVertex
 10
13.65176587519739
 20
0.3252135396426056
 30
0.0
  0
VERTEX
  5
187
330
10C
100
AcDbEntity
  8
2D_MODEL
100
AcDbVertex
100
AcDb2dVertex
 10
13.65789132907113
 20
0.3219094535363599
 30
0.0
  0
VERTEX
  5
188
330
10C
100
AcDbEntity
  8
2D_MODEL
100
AcDbVertex
100
AcDb2dVertex
 10
13.66412776671923
 20
0.3188199526675919
 30
0.0
  0
VERTEX
  5
189
330
10C
100
AcDbEntity
  8
2D_MODEL
100
AcDbVertex
100
AcDb2dVertex
 10
13.67046767372007
 20
0.3159487596442153
 30
0.0
  0
VERTEX
  5
18A
330
10C
100
AcDbEntity
  8
2D_MODEL
100
AcDbVertex
100
AcDb2dVertex
 10
13.6769034109795
 20
0.3132993340301934
 30
0.0
  0
VERTEX
  5
18B
330
10C
100
AcDbEntity
  8
2D_MODEL
100
AcDbVertex
100
AcDb2dVertex
 10
13.68342722393541
 20
0.3108748681770344
 30
0.0
  0
VERTEX
  5
18C
330
10C
100
AcDbEntity
  8
2D_MODEL
100
AcDbVertex
100
AcDb2dVertex
 10
13.69003125190129
 20
0.3086782833772557
 30
0.0
  0
VERTEX
  5
18D
330
10C
100
AcDbEntity
  8
2D_MODEL
100
AcDbVertex
100
AcDb2dVertex
 10
13.69670753753782
 20
0.3067122263444549
 30
0.0
  0
VERTEX
  5
18E
330
10C
100
AcDbEntity
  8
2D_MODEL
100
AcDbVertex
100
AcDb2dVertex
 10
13.7034480364408
 20
0.3049790660242255
 30
0.0
  0
VERTEX
  5
18F
330
10C
100
AcDbEntity
  8
2D_MODEL
100
AcDbVertex
100
AcDb2dVertex
 10
13.71024462683406
 20
0.303480890739762
 30
0.0
  0
VERTEX
  5
190
330
10C
100
AcDbEntity
  8
2D_MODEL
100
AcDbVertex
100
AcDb2dVertex
 10
13.71708911935554
 20
0.3022195056755931
 30
0.0
  0
VERTEX
  5
191
330
10C
100
AcDbEntity
  8
2D_MODEL
100
AcDbVertex
100
AcDb2dVertex
 10
13.72397326692486
 20
0.3011964307024751
 30
0.0
  0
VERTEX
  5
192
330
10C
100
AcDbEntity
  8
2D_MODEL
100
AcDbVertex
100
AcDb2dVertex
 10
13.73088877468038
 20
0.3004128985460661
 30
0.0
  0
VERTEX
  5
193
330
10C
100
AcDbEntity
  8
2D_MODEL
100
AcDbVertex
100
AcDb2dVertex
 10
13.73782730997388
 20
0.2998698533015871
 30
0.0
  0
VERTEX
  5
194
330
10C
100
AcDbEntity
  8
2D_MODEL
100
AcDbVertex
100
AcDb2dVertex
 10
13.74478051241077
 20
0.2995679492962615
 30
0.0
  0
VERTEX
  5
195
330
10C
100
AcDbEntity
  8
2D_MODEL
100
AcDbVertex
100
AcDb2dVertex
 10
13.75174000392367
 20
0.299507550300901
 30
0.0
  0
VERTEX
  5
196
330
10C
100
AcDbEntity
  8
2D_MODEL
100
AcDbVertex
100
AcDb2dVertex
 10
13.75869739886736
 20
0.2996887290915908
 30
0.0
  0
VERTEX
  5
197
330
10C
100
AcDbEntity
  8
2D_MODEL
100
AcDbVertex
100
AcDb2dVertex
 10
13.76564431412284
 20
0.3001112673619997
 30
0.0
  0
VERTEX
  5
198
330
10C
100
AcDbEntity
  8
2D_MODEL
100
AcDbVertex
100
AcDb2dVertex
 10
13.77257237919829
 20
0.3007746559864221
 30
0.0
  0
VERTEX
  5
199
330
10C
100
AcDbEntity
  8
2D_MODEL
100
AcDbVertex
100
AcDb2dVertex
 10
13.77947324631492
 20
0.3016780956332353
 30
0.0
  0
VERTEX
  5
19A
330
10C
100
AcDbEntity
  8
2D_MODEL
100
AcDbVertex
100
AcDb2dVertex
 10
13.78633860046533
 20
0.3028204977280316
 30
0.0
  0
VERTEX
  5
19B
330
10C
100
AcDbEntity
  8
2D_MODEL
100
AcDbVertex
100
AcDb2dVertex
 10
13.7931601694325
 20
0.3042004857652653
 30
0.0
  0
VERTEX
  5
19C
330
10C
100
AcDbEntity
  8
2D_MODEL
100
AcDbVertex
100
AcDb2dVertex
 10
13.79992973375713
 20
0.3058163969668353
 30
0.0
  0
VERTEX
  5
19D
330
10C
100
AcDbEntity
  8
2D_MODEL
100
AcDbVertex
100
AcDb2dVertex
 10
13.80663913664149
 20
0.3076662842856029
 30
0.0
  0
VERTEX
  5
19E
330
10C
100
AcDbEntity
  8
2D_MODEL
100
AcDbVertex
100
AcDb2dVertex
 10
13.81328029377767
 20
0.3097479187514318
 30
0.0
  0
VERTEX
  5
19F
330
10C
100
AcDbEntity
  8
2D_MODEL
100
AcDbVertex
100
AcDb2dVertex
 10
13.81984520308858
 20
0.3120587921569238
 30
0.0
  0
VERTEX
  5
1A0
330
10C
100
AcDbEntity
  8
2D_MODEL
100
AcDbVertex
100
AcDb2dVertex
 10
13.82632595436984
 20
0.3145961200796134
 30
0.0
  0
VERTEX
  5
1A1
330
10C
100
AcDbEntity
  8
2D_MODEL
100
AcDbVertex
100
AcDb2dVertex
 10
13.83271473882091
 20
0.3173568452369794
 30
0.0
  0
VERTEX
  5
1A2
330
10C
100
AcDbEntity
  8
2D_MODEL
100
AcDbVertex
100
AcDb2dVertex
 10
13.83900385845413
 20
0.3203376411702331
 30
0.0
  0
VERTEX
  5
1A3
330
10C
100
AcDbEntity
  8
2D_MODEL
100
AcDbVertex
100
AcDb2dVertex
 10
13.8451857353702
 20
0.3235349162524412
 30
0.0
  0
VERTEX
  5
1A4
330
10C
100
AcDbEntity
  8
2D_MODEL
100
AcDbVertex
100
AcDb2dVertex
 10
13.85125292088892
 20
0.3269448180161574
 30
0.0
  0
VERTEX
  5
1A5
330
10C
100
AcDbEntity
  8
2D_MODEL
100
AcDbVertex
100
AcDb2dVertex
 10
13.8571981045243
 20
0.3305632377953445
 30
0.0
  0
VERTEX
  5
1A6
330
10C
100
AcDbEntity
  8
2D_MODEL
100
AcDbVertex
100
AcDb2dVertex
 10
13.8630141227931
 20
0.334385815675998
 30
0.0
  0
VERTEX
  5
1A7
330
10C
100
AcDbEntity
  8
2D_MODEL
100
AcDbVertex
100
AcDb2dVertex
 10
13.86869396784632
 20
0.3384079457495025
 30
0.0
  0
VERTEX
  5
1A8
330
10C
100
AcDbEntity
  8
2D_MODEL
100
AcDbVertex
100
AcDb2dVertex
 10
13.87423079591305
 20
0.3426247816623929
 30
0.0
  0
VERTEX
  5
1A9
330
10C
100
AcDbEntity
  8
2D_MODEL
100
AcDbVertex
100
AcDb2dVertex
 10
13.87961793554672
 20
0.3470312424558321
 30
0.0
  0
VERTEX
  5
1AA
330
10C
100
AcDbEntity
  8
2D_MODEL
100
AcDbVertex
100
AcDb2dVertex
 10
13.88484889566366
 20
0.3516220186877721
 30
0.0
  0
VERTEX
  5
1AB
330
10C
100
AcDbEntity
  8
2D_MODEL
100
AcDbVertex
100
AcDb2dVertex
 10
13.88991737336435
 20
0.3563915788304172
 30
0.0
  0
VERTEX
  5
1AC
330
10C
100
AcDbEntity
  8
2D_MODEL
100
AcDbVertex
100
AcDb2dVertex
 10
13.89481726152794
 20
0.3613341759352837
 30
0.0
  0
VERTEX
  5
1AD
330
10C
100
AcDbEntity
  8
2D_MODEL
100
AcDbVertex
100
AcDb2dVertex
 10
13.89954265617083
 20
0.366443854557827
 30
0.0
  0
VERTEX
  5
1AE
330
10C
100
AcDbEntity
  8
2D_MODEL
100
AcDbVertex
100
AcDb2dVertex
 10
13.90408786356053
 20
0.371714457933286
 30
0.0
  0
VERTEX
  5
1AF
330
10C
100
AcDbEntity
  8
2D_MODEL
100
AcDbVertex
100
AcDb2dVertex
 10
13.90844740707614
 20
0.3771396353951073
 30
0.0
  0
VERTEX
  5
1B0
330
10C
100
AcDbEntity
  8
2D_MODEL
100
AcDbVertex
100
AcDb2dVertex
 10
13.91261603380728
 20
0.3827128500270017
 30
0.0
  0
VERTEX
  5
1B1
330
10C
100
AcDbEntity
  8
2D_MODEL
100
AcDbVertex
100
AcDb2dVertex
 10
13.91658872088342
 20
0.3884273865394219
 30
0.0
  0
VERTEX
  5
1B2
330
10C
100
AcDbEntity
  8
2D_MODEL
100
AcDbVertex
100
AcDb2dVertex
 10
13.92036068152607
 20
0.3942763593609604
 30
0.0
  0
VERTEX
  5
1B3
330
10C
100
AcDbEntity
  8
2D_MODEL
100
AcDbVertex
100
AcDb2dVertex
 10
13.92392737081642
 20
0.4002527209349289
 30
0.0
  0
VERTEX
  5
1B4
330
10C
100
AcDbEntity
  8
2D_MODEL
100
AcDbVertex
100
AcDb2dVertex
 10
13.9272844911717
 20
0.4063492702111136
 30
0.0
  0
VERTEX
  5
1B5
330
10C
100
AcDbEntity
  8
2D_MODEL
100
AcDbVertex
100
AcDb2dVertex
 10
13.93042799752334
 20
0.4125586613224814
 30
0.0
  0
VERTEX
  5
1B6
330
10C
100
AcDbEntity
  8
2D_MODEL
100
AcDbVertex
100
AcDb2dVertex
 10
13.93335410219104
 20
0.4188734124363765
 30
0.0
  0
VERTEX
  5
1B7
330
10C
100
AcDbEntity
  8
2D_MODEL
100
AcDbVertex
100
AcDb2dVertex
 10
13.93605927944657
 20
0.4252859147695459
 30
0.0
  0
VERTEX
  5
1B8
330
10C
100
AcDbEntity
  8
2D_MODEL
100
AcDbVertex
100
AcDb2dVertex
 10
13.93854026976204
 20
0.431788441756132
 30
0.0
  0
VERTEX
  5
1B9
330
10C
100
AcDbEntity
  8
2D_MODEL
100
AcDbVertex
100
AcDb2dVertex
 10
13.94079408373736
 20
0.4383731583575802
 30
0.0
  0
VERTEX
  5
1BA
330
10C
100
AcDbEntity
  8
2D_MODEL
100
AcDbVertex
100
AcDb2dVertex
 10
13.94281800570224
 20
0.4450321305032529
 30
0.0
  0
VERTEX
  5
1BB
330
10C
100
AcDbEntity
  8
2D_MODEL
100
AcDbVertex
100
AcDb2dVertex
 10
13.94460959698833
 20
0.4517573346503641
 30
0.0
  0
VERTEX
  5
1BC
330
10C
100
AcDbEntity
  8
2D_MODEL
100
AcDbVertex
100
AcDb2dVertex
 10
13.9461666988677
 20
0.4585406674517254
 30
0.0
  0
VERTEX
  5
1BD
330
10C
100
AcDbEntity
  8
2D_MODEL
100
AcDbVertex
100
AcDb2dVertex
 10
13.94748743515384
 20
0.4653739555196478
 30
0.0
  0
VERTEX
  5
1BE
330
10C
100
AcDbEntity
  8
2D_MODEL
100
AcDbVertex
100
AcDb2dVertex
 10
13.94857021446241
 20
0.4722489652742359
 30
0.0
  0
VERTEX
  5
1BF
330
10C
100
AcDbEntity
  8
2D_MODEL
100
AcDbVertex
100
AcDb2dVertex
 10
13.94941373212867
 20
0.4791574128642124
 30
0.0
  0
VERTEX
  5
1C0
330
10C
100
AcDbEntity
  8
2D_MODEL
100
AcDbVertex
100
AcDb2dVertex
 10
13.95001697177954
 20
0.4860909741483124
 30
0.0
  0
VERTEX
  5
1C1
330
10C
100
AcDbEntity
  8
2D_MODEL
100
AcDbVertex
100
AcDb2dVertex
 10
13.95037920655821
 20
0.493041294725226
 30
0.0
  0
SEQEND
  5
1C2
330
10C
100
AcDbEntity
  8
2D_MODEL
  0
POLYLINE
  5
1C3
330
1F
100
AcDbEntity
  8
2D_MODEL
100
AcDb2dPolyline
 66
     1
 10
0.0
 20
0.0
 30
0.0
 70
     1
  0
VERTEX
  5
1C4
330
1C3
100
AcDbEntity
  8
2D_MODEL
100
AcDbVertex
100
AcDb2dVertex
 10
15.5755
 20
0.5000000000000018
 30
0.0
  0
VERTEX
  5
1C5
330
1C3
100
AcDbEntity
  8
2D_MODEL
100
AcDbVertex
100
AcDb2dVertex
 10
15.57537920655821
 20
0.5069587052747758
 30
0.0
  0
VERTEX
  5
1C6
330
1C3
100
AcDbEntity
  8
2D_MODEL
100
AcDbVertex
100
AcDb2dVertex
 10
15.57501697177954
 20
0.5139090258516892
 30
0.0
  0
VERTEX
  5
1C7
330
1C3
100
AcDbEntity
  8
2D_MODEL
100
AcDbVertex
100
AcDb2dVertex
 10
15.57441373212867
 20
0.5208425871357893
 30
0.0
  0
VERTEX
  5
1C8
330
1C3
100
AcDbEntity
  8
2D_MODEL
100
AcDbVertex
100
AcDb2dVertex
 10
15.57357021446241
 20
0.5277510347257659
 30
0.0
  0
VERTEX
  5
1C9
330
1C3
100
AcDbEntity
  8
2D_MODEL
100
AcDbVertex
100
AcDb2dVertex
 10
15.57248743515384
 20
0.534626044480354
 30
0.0
  0
VERTEX
  5
1CA
330
1C3
100
AcDbEntity
  8
2D_MODEL
100
AcDbVertex
100
AcDb2dVertex
 10
15.5711666988677
 20
0.5414593325482762
 30
0.0
  0
VERTEX
  5
1CB
330
1C3
100
AcDbEntity
  8
2D_MODEL
100
AcDbVertex
100
AcDb2dVertex
 10
15.56960959698833
 20
0.5482426653496376
 30
0.0
  0
VERTEX
  5
1CC
330
1C3
100
AcDbEntity
  8
2D_MODEL
100
AcDbVertex
100
AcDb2dVertex
 10
15.56781800570224
 20
0.5549678694967487
 30
0.0
  0
VERTEX
  5
1CD
330
1C3
100
AcDbEntity
  8
2D_MODEL
100
AcDbVertex
100
AcDb2dVertex
 10
15.56579408373736
 20
0.5616268416424213
 30
0.0
  0
VERTEX
  5
1CE
330
1C3
100
AcDbEntity
  8
2D_MODEL
100
AcDbVertex
100
AcDb2dVertex
 10
15.56354026976204
 20
0.5682115582438696
 30
0.0
  0
VERTEX
  5
1CF
330
1C3
100
AcDbEntity
  8
2D_MODEL
100
AcDbVertex
100
AcDb2dVertex
 10
15.56105927944657
 20
0.5747140852304555
 30
0.0
  0
VERTEX
  5
1D0
330
1C3
100
AcDbEntity
  8
2D_MODEL
100
AcDbVertex
100
AcDb2dVertex
 10
15.55835410219104
 20
0.5811265875636251
 30
0.0
  0
VERTEX
  5
1D1
330
1C3
100
AcDbEntity
  8
2D_MODEL
100
AcDbVertex
100
AcDb2dVertex
 10
15.55542799752334
 20
0.58744133867752
 30
0.0
  0
VERTEX
  5
1D2
330
1C3
100
AcDbEntity
  8
2D_MODEL
100
AcDbVertex
100
AcDb2dVertex
 10
15.5522844911717
 20
0.5936507297888878
 30
0.0
  0
VERTEX
  5
1D3
330
1C3
100
AcDbEntity
  8
2D_MODEL
100
AcDbVertex
100
AcDb2dVertex
 10
15.54892737081642
 20
0.5997472790650726
 30
0.0
  0
VERTEX
  5
1D4
330
1C3
100
AcDbEntity
  8
2D_MODEL
100
AcDbVertex
100
AcDb2dVertex
 10
15.54536068152607
 20
0.6057236406390409
 30
0.0
  0
VERTEX
  5
1D5
330
1C3
100
AcDbEntity
  8
2D_MODEL
100
AcDbVertex
100
AcDb2dVertex
 10
15.54158872088342
 20
0.6115726134605793
 30
0.0
  0
VERTEX
  5
1D6
330
1C3
100
AcDbEntity
  8
2D_MODEL
100
AcDbVertex
100
AcDb2dVertex
 10
15.53761603380728
 20
0.6172871499729995
 30
0.0
  0
VERTEX
  5
1D7
330
1C3
100
AcDbEntity
  8
2D_MODEL
100
AcDbVertex
100
AcDb2dVertex
 10
15.53344740707614
 20
0.6228603646048942
 30
0.0
  0
VERTEX
  5
1D8
330
1C3
100
AcDbEntity
  8
2D_MODEL
100
AcDbVertex
100
AcDb2dVertex
 10
15.52908786356053
 20
0.6282855420667153
 30
0.0
  0
VERTEX
  5
1D9
330
1C3
100
AcDbEntity
  8
2D_MODEL
100
AcDbVertex
100
AcDb2dVertex
 10
15.52454265617083
 20
0.6335561454421743
 30
0.0
  0
VERTEX
  5
1DA
330
1C3
100
AcDbEntity
  8
2D_MODEL
100
AcDbVertex
100
AcDb2dVertex
 10
15.51981726152794
 20
0.6386658240647175
 30
0.0
  0
VERTEX
  5
1DB
330
1C3
100
AcDbEntity
  8
2D_MODEL
100
AcDbVertex
100
AcDb2dVertex
 10
15.51491737336435
 20
0.643608421169584
 30
0.0
  0
VERTEX
  5
1DC
330
1C3
100
AcDbEntity
  8
2D_MODEL
100
AcDbVertex
100
AcDb2dVertex
 10
15.50984889566365
 20
0.648377981312229
 30
0.0
  0
VERTEX
  5
1DD
330
1C3
100
AcDbEntity
  8
2D_MODEL
100
AcDbVertex
100
AcDb2dVertex
 10
15.50461793554672
 20
0.6529687575441689
 30
0.0
  0
VERTEX
  5
1DE
330
1C3
100
AcDbEntity
  8
2D_MODEL
100
AcDbVertex
100
AcDb2dVertex
 10
15.49923079591305
 20
0.6573752183376083
 30
0.0
  0
VERTEX
  5
1DF
330
1C3
100
AcDbEntity
  8
2D_MODEL
100
AcDbVertex
100
AcDb2dVertex
 10
15.49369396784632
 20
0.6615920542504984
 30
0.0
  0
VERTEX
  5
1E0
330
1C3
100
AcDbEntity
  8
2D_MODEL
100
AcDbVertex
100
AcDb2dVertex
 10
15.4880141227931
 20
0.6656141843240029
 30
0.0
  0
VERTEX
  5
1E1
330
1C3
100
AcDbEntity
  8
2D_MODEL
100
AcDbVertex
100
AcDb2dVertex
 10
15.4821981045243
 20
0.6694367622046565
 30
0.0
  0
VERTEX
  5
1E2
330
1C3
100
AcDbEntity
  8
2D_MODEL
100
AcDbVertex
100
AcDb2dVertex
 10
15.47625292088892
 20
0.6730551819838435
 30
0.0
  0
VERTEX
  5
1E3
330
1C3
100
AcDbEntity
  8
2D_MODEL
100
AcDbVertex
100
AcDb2dVertex
 10
15.4701857353702
 20
0.6764650837475596
 30
0.0
  0
VERTEX
  5
1E4
330
1C3
100
AcDbEntity
  8
2D_MODEL
100
AcDbVertex
100
AcDb2dVertex
 10
15.46400385845413
 20
0.6796623588297677
 30
0.0
  0
VERTEX
  5
1E5
330
1C3
100
AcDbEntity
  8
2D_MODEL
100
AcDbVertex
100
AcDb2dVertex
 10
15.45771473882091
 20
0.6826431547630214
 30
0.0
  0
VERTEX
  5
1E6
330
1C3
100
AcDbEntity
  8
2D_MODEL
100
AcDbVertex
100
AcDb2dVertex
 10
15.45132595436984
 20
0.6854038799203873
 30
0.0
  0
VERTEX
  5
1E7
330
1C3
100
AcDbEntity
  8
2D_MODEL
100
AcDbVertex
100
AcDb2dVertex
 10
15.44484520308858
 20
0.6879412078430768
 30
0.0
  0
VERTEX
  5
1E8
330
1C3
100
AcDbEntity
  8
2D_MODEL
100
AcDbVertex
100
AcDb2dVertex
 10
15.43828029377767
 20
0.6902520812485687
 30
0.0
  0
VERTEX
  5
1E9
330
1C3
100
AcDbEntity
  8
2D_MODEL
100
AcDbVertex
100
AcDb2dVertex
 10
15.43163913664149
 20
0.6923337157143976
 30
0.0
  0
VERTEX
  5
1EA
330
1C3
100
AcDbEntity
  8
2D_MODEL
100
AcDbVertex
100
AcDb2dVertex
 10
15.42492973375713
 20
0.6941836030331651
 30
0.0
  0
VERTEX
  5
1EB
330
1C3
100
AcDbEntity
  8
2D_MODEL
100
AcDbVertex
100
AcDb2dVertex
 10
15.4181601694325
 20
0.6957995142347351
 30
0.0
  0
VERTEX
  5
1EC
330
1C3
100
AcDbEntity
  8
2D_MODEL
100
AcDbVertex
100
AcDb2dVertex
 10
15.41133860046533
 20
0.6971795022719687
 30
0.0
  0
VERTEX
  5
1ED
330
1C3
100
AcDbEntity
  8
2D_MODEL
100
AcDbVertex
100
AcDb2dVertex
 10
15.40447324631492
 20
0.6983219043667648
 30
0.0
  0
VERTEX
  5
1EE
330
1C3
100
AcDbEntity
  8
2D_MODEL
100
AcDbVertex
100
AcDb2dVertex
 10
15.39757237919829
 20
0.6992253440135782
 30
0.0
  0
VERTEX
  5
1EF
330
1C3
100
AcDbEntity
  8
2D_MODEL
100
AcDbVertex
100
AcDb2dVertex
 10
15.39064431412284
 20
0.6998887326380004
 30
0.0
  0
VERTEX
  5
1F0
330
1C3
100
AcDbEntity
  8
2D_MODEL
100
AcDbVertex
100
AcDb2dVertex
 10
15.38369739886736
 20
0.7003112709084094
 30
0.0
  0
VERTEX
  5
1F1
330
1C3
100
AcDbEntity
  8
2D_MODEL
100
AcDbVertex
100
AcDb2dVertex
 10
15.37674000392366
 20
0.700492449699099
 30
0.0
  0
VERTEX
  5
1F2
330
1C3
100
AcDbEntity
  8
2D_MODEL
100
AcDbVertex
100
AcDb2dVertex
 10
15.36978051241076
 20
0.7004320507037385
 30
0.0
  0
VERTEX
  5
1F3
330
1C3
100
AcDbEntity
  8
2D_MODEL
100
AcDbVertex
100
AcDb2dVertex
 10
15.36282730997388
 20
0.7001301466984128
 30
0.0
  0
VERTEX
  5
1F4
330
1C3
100
AcDbEntity
  8
2D_MODEL
100
AcDbVertex
100
AcDb2dVertex
 10
15.35588877468038
 20
0.6995871014539338
 30
0.0
  0
VERTEX
  5
1F5
330
1C3
100
AcDbEntity
  8
2D_MODEL
100
AcDbVertex
100
AcDb2dVertex
 10
15.34897326692486
 20
0.6988035692975246
 30
0.0
  0
VERTEX
  5
1F6
330
1C3
100
AcDbEntity
  8
2D_MODEL
100
AcDbVertex
100
AcDb2dVertex
 10
15.34208911935554
 20
0.6977804943244066
 30
0.0
  0
VERTEX
  5
1F7
330
1C3
100
AcDbEntity
  8
2D_MODEL
100
AcDbVertex
100
AcDb2dVertex
 10
15.33524462683406
 20
0.6965191092602376
 30
0.0
  0
VERTEX
  5
1F8
330
1C3
100
AcDbEntity
  8
2D_MODEL
100
AcDbVertex
100
AcDb2dVertex
 10
15.3284480364408
 20
0.695020933975774
 30
0.0
  0
VERTEX
  5
1F9
330
1C3
100
AcDbEntity
  8
2D_MODEL
100
AcDbVertex
100
AcDb2dVertex
 10
15.32170753753781
 20
0.6932877736555446
 30
0.0
  0
VERTEX
  5
1FA
330
1C3
100
AcDbEntity
  8
2D_MODEL
100
AcDbVertex
100
AcDb2dVertex
 10
15.31503125190129
 20
0.6913217166227438
 30
0.0
  0
VERTEX
  5
1FB
330
1C3
100
AcDbEntity
  8
2D_MODEL
100
AcDbVertex
100
AcDb2dVertex
 10
15.30842722393541
 20
0.6891251318229651
 30
0.0
  0
VERTEX
  5
1FC
330
1C3
100
AcDbEntity
  8
2D_MODEL
100
AcDbVertex
100
AcDb2dVertex
 10
15.3019034109795
 20
0.686700665969806
 30
0.0
  0
VERTEX
  5
1FD
330
1C3
100
AcDbEntity
  8
2D_MODEL
100
AcDbVertex
100
AcDb2dVertex
 10
15.29546767372006
 20
0.684051240355784
 30
0.0
  0
VERTEX
  5
1FE
330
1C3
100
AcDbEntity
  8
2D_MODEL
100
AcDbVertex
100
AcDb2dVertex
 10
15.28912776671923
 20
0.6811800473324074
 30
0.0
  0
VERTEX
  5
1FF
330
1C3
100
AcDbEntity
  8
2D_MODEL
100
AcDbVertex
100
AcDb2dVertex
 10
15.28289132907113
 20
0.6780905464636393
 30
0.0
  0
VERTEX
  5
200
330
1C3
100
AcDbEntity
  8
2D_MODEL
100
AcDbVertex
100
AcDb2dVertex
 10
15.27676587519739
 20
0.6747864603573935
 30
0.0
  0
VERTEX
  5
201
330
1C3
100
AcDbEntity
  8
2D_MODEL
100
AcDbVertex
100
AcDb2dVertex
 10
15.27075878579284
 20
0.6712717701800814
 30
0.0
  0
VERTEX
  5
202
330
1C3
100
AcDbEntity
  8
2D_MODEL
100
AcDbVertex
100
AcDb2dVertex
 10
15.26487729893234
 20
0.6675507108596164
 30
0.0
  0
VERTEX
  5
203
330
1C3
100
AcDbEntity
  8
2D_MODEL
100
AcDbVertex
100
AcDb2dVertex
 10
15.25912850134944
 20
0.6636277659826562
 30
0.0
  0
VERTEX
  5
204
330
1C3
100
AcDbEntity
  8
2D_MODEL
100
AcDbVertex
100
AcDb2dVertex
 10
15.25351931989749
 20
0.6595076623922291
 30
0.0
  0
VERTEX
  5
205
330
1C3
100
AcDbEntity
  8
2D_MODEL
100
AcDbVertex
100
AcDb2dVertex
 10
15.24805651320325
 20
0.6551953644922579
 30
0.0
  0
VERTEX
  5
206
330
1C3
100
AcDbEntity
  8
2D_MODEL
100
AcDbVertex
100
AcDb2dVertex
 10
15.2427466635233
 20
0.650696068265838
 30
0.0
  0
VERTEX
  5
207
330
1C3
100
AcDbEntity
  8
2D_MODEL
100
AcDbVertex
100
AcDb2dVertex
 10
15.23759616881294
 20
0.6460151950144839
 30
0.0
  0
VERTEX
  5
208
330
1C3
100
AcDbEntity
  8
2D_MODEL
100
AcDbVertex
100
AcDb2dVertex
 10
15.23261123501712
 20
0.6411583848258823
 30
0.0
  0
VERTEX
  5
209
330
1C3
100
AcDbEntity
  8
2D_MODEL
100
AcDbVertex
100
AcDb2dVertex
 10
15.22779786859282
 20
0.6361314897780261
 30
0.0
  0
VERTEX
  5
20A
330
1C3
100
AcDbEntity
  8
2D_MODEL
100
AcDbVertex
100
AcDb2dVertex
 10
15.22316186927167
 20
0.6309405668879163
 30
0.0
  0
VERTEX
  5
20B
330
1C3
100
AcDbEntity
  8
2D_MODEL
100
AcDbVertex
100
AcDb2dVertex
 10
15.21870882307178
 20
0.6255918708133279
 30
0.0
  0
VERTEX
  5
20C
330
1C3
100
AcDbEntity
  8
2D_MODEL
100
AcDbVertex
100
AcDb2dVertex
 10
15.21444409556696
 20
0.6200918463164345
 30
0.0
  0
VERTEX
  5
20D
330
1C3
100
AcDbEntity
  8
2D_MODEL
100
AcDbVertex
100
AcDb2dVertex
 10
15.2103728254217
 20
0.6144471204983726
 30
0.0
  0
VERTEX
  5
20E
330
1C3
100
AcDbEntity
  8
2D_MODEL
100
AcDbVertex
100
AcDb2dVertex
 10
15.20649991819943
 20
0.6086644948140995
 30
0.0
  0
VERTEX
  5
20F
330
1C3
100
AcDbEntity
  8
2D_MODEL
100
AcDbVertex
100
AcDb2dVertex
 10
15.20283004045169
 20
0.6027509368771713
 30
0.0
  0
VERTEX
  5
210
330
1C3
100
AcDbEntity
  8
2D_MODEL
100
AcDbVertex
100
AcDb2dVertex
 10
15.19936761409534
 20
0.59671357206431
 30
0.0
  0
VERTEX
  5
211
330
1C3
100
AcDbEntity
  8
2D_MODEL
100
AcDbVertex
100
AcDb2dVertex
 10
15.19611681108445
 20
0.5905596749298808
 30
0.0
  0
VERTEX
  5
212
330
1C3
100
AcDbEntity
  8
2D_MODEL
100
AcDbVertex
100
AcDb2dVertex
 10
15.19308154838346
 20
0.5842966604406193
 30
0.0
  0
VERTEX
  5
213
330
1C3
100
AcDbEntity
  8
2D_MODEL
100
AcDbVertex
100
AcDb2dVertex
 10
15.1902654832475
 20
0.5779320750411753
 30
0.0
  0
VERTEX
  5
214
330
1C3
100
AcDbEntity
  8
2D_MODEL
100
AcDbVertex
100
AcDb2dVertex
 10
15.18767200881575
 20
0.5714735875612339
 30
0.0
  0
VERTEX
  5
215
330
1C3
100
AcDbEntity
  8
2D_MODEL
100
AcDbVertex
100
AcDb2dVertex
 10
15.18530425002287
 20
0.5649289799751736
 30
0.0
  0
VERTEX
  5
216
330
1C3
100
AcDbEntity
  8
2D_MODEL
100
AcDbVertex
100
AcDb2dVertex
 10
15.18316505983381
 20
0.5583061380253933
 30
0.0
  0
VERTEX
  5
217
330
1C3
100
AcDbEntity
  8
2D_MODEL
100
AcDbVertex
100
AcDb2dVertex
 10
15.18125701580612
 20
0.5516130417206062
 30
0.0
  0
VERTEX
  5
218
330
1C3
100
AcDbEntity
  8
2D_MODEL
100
AcDbVertex
100
AcDb2dVertex
 10
15.17958241698425
 20
0.5448577557205518
 30
0.0
  0
VERTEX
  5
219
330
1C3
100
AcDbEntity
  8
2D_MODEL
100
AcDbVertex
100
AcDb2dVertex
 10
15.17814328112934
 20
0.5380484196187086
 30
0.0
  0
VERTEX
  5
21A
330
1C3
100
AcDbEntity
  8
2D_MODEL
100
AcDbVertex
100
AcDb2dVertex
 10
15.17694134228802
 20
0.5311932381347174
 30
0.0
  0
VERTEX
  5
21B
330
1C3
100
AcDbEntity
  8
2D_MODEL
100
AcDbVertex
100
AcDb2dVertex
 10
15.17597804870296
 20
0.5243004712283343
 30
0.0
  0
VERTEX
  5
21C
330
1C3
100
AcDbEntity
  8
2D_MODEL
100
AcDbVertex
100
AcDb2dVertex
 10
15.17525456106791
 20
0.5173784241468219
 30
0.0
  0
VERTEX
  5
21D
330
1C3
100
AcDbEntity
  8
2D_MODEL
100
AcDbVertex
100
AcDb2dVertex
 10
15.17477175112911
 20
0.510435437417773
 30
0.0
  0
VERTEX
  5
21E
330
1C3
100
AcDbEntity
  8
2D_MODEL
100
AcDbVertex
100
AcDb2dVertex
 10
15.17453020063495
 20
0.5034798767994247
 30
0.0
  0
VERTEX
  5
21F
330
1C3
100
AcDbEntity
  8
2D_MODEL
100
AcDbVertex
100
AcDb2dVertex
 10
15.17453020063495
 20
0.4965201232005719
 30
0.0
  0
VERTEX
  5
220
330
1C3
100
AcDbEntity
  8
2D_MODEL
100
AcDbVertex
100
AcDb2dVertex
 10
15.17477175112911
 20
0.4895645625822235
 30
0.0
  0
VERTEX
  5
221
330
1C3
100
AcDbEntity
  8
2D_MODEL
100
AcDbVertex
100
AcDb2dVertex
 10
15.17525456106791
 20
0.4826215758531746
 30
0.0
  0
VERTEX
  5
222
330
1C3
100
AcDbEntity
  8
2D_MODEL
100
AcDbVertex
100
AcDb2dVertex
 10
15.17597804870296
 20
0.4756995287716622
 30
0.0
  0
VERTEX
  5
223
330
1C3
100
AcDbEntity
  8
2D_MODEL
100
AcDbVertex
100
AcDb2dVertex
 10
15.17694134228802
 20
0.4688067618652792
 30
0.0
  0
VERTEX
  5
224
330
1C3
100
AcDbEntity
  8
2D_MODEL
100
AcDbVertex
100
AcDb2dVertex
 10
15.17814328112934
 20
0.4619515803812882
 30
0.0
  0
VERTEX
  5
225
330
1C3
100
AcDbEntity
  8
2D_MODEL
100
AcDbVertex
100
AcDb2dVertex
 10
15.17958241698425
 20
0.4551422442794448
 30
0.0
  0
VERTEX
  5
226
330
1C3
100
AcDbEntity
  8
2D_MODEL
100
AcDbVertex
100
AcDb2dVertex
 10
15.18125701580612
 20
0.4483869582793905
 30
0.0
  0
VERTEX
  5
227
330
1C3
100
AcDbEntity
  8
2D_MODEL
100
AcDbVertex
100
AcDb2dVertex
 10
15.18316505983381
 20
0.4416938619746035
 30
0.0
  0
VERTEX
  5
228
330
1C3
100
AcDbEntity
  8
2D_MODEL
100
AcDbVertex
100
AcDb2dVertex
 10
15.18530425002287
 20
0.4350710200248231
 30
0.0
  0
VERTEX
  5
229
330
1C3
100
AcDbEntity
  8
2D_MODEL
100
AcDbVertex
100
AcDb2dVertex
 10
15.18767200881575
 20
0.4285264124387629
 30
0.0
  0
VERTEX
  5
22A
330
1C3
100
AcDbEntity
  8
2D_MODEL
100
AcDbVertex
100
AcDb2dVertex
 10
15.1902654832475
 20
0.4220679249588215
 30
0.0
  0
VERTEX
  5
22B
330
1C3
100
AcDbEntity
  8
2D_MODEL
100
AcDbVertex
100
AcDb2dVertex
 10
15.19308154838346
 20
0.4157033395593775
 30
0.0
  0
VERTEX
  5
22C
330
1C3
100
AcDbEntity
  8
2D_MODEL
100
AcDbVertex
100
AcDb2dVertex
 10
15.19611681108445
 20
0.4094403250701161
 30
0.0
  0
VERTEX
  5
22D
330
1C3
100
AcDbEntity
  8
2D_MODEL
100
AcDbVertex
100
AcDb2dVertex
 10
15.19936761409534
 20
0.4032864279356869
 30
0.0
  0
VERTEX
  5
22E
330
1C3
100
AcDbEntity
  8
2D_MODEL
100
AcDbVertex
100
AcDb2dVertex
 10
15.2028300404517
 20
0.3972490631228259
 30
0.0
  0
VERTEX
  5
22F
330
1C3
100
AcDbEntity
  8
2D_MODEL
100
AcDbVertex
100
AcDb2dVertex
 10
15.20649991819944
 20
0.3913355051858977
 30
0.0
  0
VERTEX
  5
230
330
1C3
100
AcDbEntity
  8
2D_MODEL
100
AcDbVertex
100
AcDb2dVertex
 10
15.21037282542171
 20
0.3855528795016246
 30
0.0
  0
VERTEX
  5
231
330
1C3
100
AcDbEntity
  8
2D_MODEL
100
AcDbVertex
100
AcDb2dVertex
 10
15.21444409556696
 20
0.3799081536835626
 30
0.0
  0
VERTEX
  5
232
330
1C3
100
AcDbEntity
  8
2D_MODEL
100
AcDbVertex
100
AcDb2dVertex
 10
15.21870882307178
 20
0.3744081291866694
 30
0.0
  0
VERTEX
  5
233
330
1C3
100
AcDbEntity
  8
2D_MODEL
100
AcDbVertex
100
AcDb2dVertex
 10
15.22316186927168
 20
0.369059433112081
 30
0.0
  0
VERTEX
  5
234
330
1C3
100
AcDbEntity
  8
2D_MODEL
100
AcDbVertex
100
AcDb2dVertex
 10
15.22779786859282
 20
0.3638685102219714
 30
0.0
  0
VERTEX
  5
235
330
1C3
100
AcDbEntity
  8
2D_MODEL
100
AcDbVertex
100
AcDb2dVertex
 10
15.23261123501712
 20
0.3588416151741153
 30
0.0
  0
VERTEX
  5
236
330
1C3
100
AcDbEntity
  8
2D_MODEL
100
AcDbVertex
100
AcDb2dVertex
 10
15.23759616881294
 20
0.3539848049855138
 30
0.0
  0
VERTEX
  5
237
330
1C3
100
AcDbEntity
  8
2D_MODEL
100
AcDbVertex
100
AcDb2dVertex
 10
15.2427466635233
 20
0.3493039317341598
 30
0.0
  0
VERTEX
  5
238
330
1C3
100
AcDbEntity
  8
2D_MODEL
100
AcDbVertex
100
AcDb2dVertex
 10
15.24805651320325
 20
0.3448046355077401
 30
0.0
  0
VERTEX
  5
239
330
1C3
100
AcDbEntity
  8
2D_MODEL
100
AcDbVertex
100
AcDb2dVertex
 10
15.2535193198975
 20
0.3404923376077688
 30
0.0
  0
VERTEX
  5
23A
330
1C3
100
AcDbEntity
  8
2D_MODEL
100
AcDbVertex
100
AcDb2dVertex
 10
15.25912850134945
 20
0.336372234017342
 30
0.0
  0
VERTEX
  5
23B
330
1C3
100
AcDbEntity
  8
2D_MODEL
100
AcDbVertex
100
AcDb2dVertex
 10
15.26487729893234
 20
0.3324492891403817
 30
0.0
  0
VERTEX
  5
23C
330
1C3
100
AcDbEntity
  8
2D_MODEL
100
AcDbVertex
100
AcDb2dVertex
 10
15.27075878579285
 20
0.3287282298199168
 30
0.0
  0
VERTEX
  5
23D
330
1C3
100
AcDbEntity
  8
2D_MODEL
100
AcDbVertex
100
AcDb2dVertex
 10
15.2767658751974
 20
0.3252135396426047
 30
0.0
  0
VERTEX
  5
23E
330
1C3
100
AcDbEntity
  8
2D_MODEL
100
AcDbVertex
100
AcDb2dVertex
 10
15.28289132907113
 20
0.3219094535363591
 30
0.0
  0
VERTEX
  5
23F
330
1C3
100
AcDbEntity
  8
2D_MODEL
100
AcDbVertex
100
AcDb2dVertex
 10
15.28912776671923
 20
0.3188199526675912
 30
0.0
  0
VERTEX
  5
240
330
1C3
100
AcDbEntity
  8
2D_MODEL
100
AcDbVertex
100
AcDb2dVertex
 10
15.29546767372007
 20
0.3159487596442145
 30
0.0
  0
VERTEX
  5
241
330
1C3
100
AcDbEntity
  8
2D_MODEL
100
AcDbVertex
100
AcDb2dVertex
 10
15.30190341097951
 20
0.3132993340301927
 30
0.0
  0
VERTEX
  5
242
330
1C3
100
AcDbEntity
  8
2D_MODEL
100
AcDbVertex
100
AcDb2dVertex
 10
15.30842722393541
 20
0.3108748681770337
 30
0.0
  0
VERTEX
  5
243
330
1C3
100
AcDbEntity
  8
2D_MODEL
100
AcDbVertex
100
AcDb2dVertex
 10
15.31503125190129
 20
0.3086782833772552
 30
0.0
  0
VERTEX
  5
244
330
1C3
100
AcDbEntity
  8
2D_MODEL
100
AcDbVertex
100
AcDb2dVertex
 10
15.32170753753782
 20
0.3067122263444544
 30
0.0
  0
VERTEX
  5
245
330
1C3
100
AcDbEntity
  8
2D_MODEL
100
AcDbVertex
100
AcDb2dVertex
 10
15.3284480364408
 20
0.3049790660242252
 30
0.0
  0
VERTEX
  5
246
330
1C3
100
AcDbEntity
  8
2D_MODEL
100
AcDbVertex
100
AcDb2dVertex
 10
15.33524462683406
 20
0.3034808907397617
 30
0.0
  0
VERTEX
  5
247
330
1C3
100
AcDbEntity
  8
2D_MODEL
100
AcDbVertex
100
AcDb2dVertex
 10
15.34208911935555
 20
0.3022195056755929
 30
0.0
  0
VERTEX
  5
248
330
1C3
100
AcDbEntity
  8
2D_MODEL
100
AcDbVertex
100
AcDb2dVertex
 10
15.34897326692486
 20
0.3011964307024749
 30
0.0
  0
VERTEX
  5
249
330
1C3
100
AcDbEntity
  8
2D_MODEL
100
AcDbVertex
100
AcDb2dVertex
 10
15.35588877468038
 20
0.3004128985460659
 30
0.0
  0
VERTEX
  5
24A
330
1C3
100
AcDbEntity
  8
2D_MODEL
100
AcDbVertex
100
AcDb2dVertex
 10
15.36282730997388
 20
0.299869853301587
 30
0.0
  0
VERTEX
  5
24B
330
1C3
100
AcDbEntity
  8
2D_MODEL
100
AcDbVertex
100
AcDb2dVertex
 10
15.36978051241077
 20
0.2995679492962614
 30
0.0
  0
VERTEX
  5
24C
330
1C3
100
AcDbEntity
  8
2D_MODEL
100
AcDbVertex
100
AcDb2dVertex
 10
15.37674000392367
 20
0.299507550300901
 30
0.0
  0
VERTEX
  5
24D
330
1C3
100
AcDbEntity
  8
2D_MODEL
100
AcDbVertex
100
AcDb2dVertex
 10
15.38369739886736
 20
0.2996887290915909
 30
0.0
  0
VERTEX
  5
24E
330
1C3
100
AcDbEntity
  8
2D_MODEL
100
AcDbVertex
100
AcDb2dVertex
 10
15.39064431412284
 20
0.3001112673619998
 30
0.0
  0
VERTEX
  5
24F
330
1C3
100
AcDbEntity
  8
2D_MODEL
100
AcDbVertex
100
AcDb2dVertex
 10
15.39757237919829
 20
0.3007746559864223
 30
0.0
  0
VERTEX
  5
250
330
1C3
100
AcDbEntity
  8
2D_MODEL
100
AcDbVertex
100
AcDb2dVertex
 10
15.40447324631492
 20
0.3016780956332356
 30
0.0
  0
VERTEX
  5
251
330
1C3
100
AcDbEntity
  8
2D_MODEL
100
AcDbVertex
100
AcDb2dVertex
 10
15.41133860046533
 20
0.3028204977280319
 30
0.0
  0
VERTEX
  5
252
330
1C3
100
AcDbEntity
  8
2D_MODEL
100
AcDbVertex
100
AcDb2dVertex
 10
15.4181601694325
 20
0.3042004857652656
 30
0.0
  0
VERTEX
  5
253
330
1C3
100
AcDbEntity
  8
2D_MODEL
100
AcDbVertex
100
AcDb2dVertex
 10
15.42492973375713
 20
0.3058163969668357
 30
0.0
  0
VERTEX
  5
254
330
1C3
100
AcDbEntity
  8
2D_MODEL
100
AcDbVertex
100
AcDb2dVertex
 10
15.43163913664149
 20
0.3076662842856034
 30
0.0
  0
VERTEX
  5
255
330
1C3
100
AcDbEntity
  8
2D_MODEL
100
AcDbVertex
100
AcDb2dVertex
 10
15.43828029377767
 20
0.3097479187514324
 30
0.0
  0
VERTEX
  5
256
330
1C3
100
AcDbEntity
  8
2D_MODEL
100
AcDbVertex
100
AcDb2dVertex
 10
15.44484520308858
 20
0.3120587921569245
 30
0.0
  0
VERTEX
  5
257
330
1C3
100
AcDbEntity
  8
2D_MODEL
100
AcDbVertex
100
AcDb2dVertex
 10
15.45132595436984
 20
0.314596120079614
 30
0.0
  0
VERTEX
  5
258
330
1C3
100
AcDbEntity
  8
2D_MODEL
100
AcDbVertex
100
AcDb2dVertex
 10
15.45771473882091
 20
0.3173568452369802
 30
0.0
  0
VERTEX
  5
259
330
1C3
100
AcDbEntity
  8
2D_MODEL
100
AcDbVertex
100
AcDb2dVertex
 10
15.46400385845414
 20
0.3203376411702338
 30
0.0
  0
VERTEX
  5
25A
330
1C3
100
AcDbEntity
  8
2D_MODEL
100
AcDbVertex
100
AcDb2dVertex
 10
15.47018573537021
 20
0.3235349162524421
 30
0.0
  0
VERTEX
  5
25B
330
1C3
100
AcDbEntity
  8
2D_MODEL
100
AcDbVertex
100
AcDb2dVertex
 10
15.47625292088892
 20
0.3269448180161583
 30
0.0
  0
VERTEX
  5
25C
330
1C3
100
AcDbEntity
  8
2D_MODEL
100
AcDbVertex
100
AcDb2dVertex
 10
15.4821981045243
 20
0.3305632377953455
 30
0.0
  0
VERTEX
  5
25D
330
1C3
100
AcDbEntity
  8
2D_MODEL
100
AcDbVertex
100
AcDb2dVertex
 10
15.48801412279311
 20
0.334385815675999
 30
0.0
  0
VERTEX
  5
25E
330
1C3
100
AcDbEntity
  8
2D_MODEL
100
AcDbVertex
100
AcDb2dVertex
 10
15.49369396784632
 20
0.3384079457495035
 30
0.0
  0
VERTEX
  5
25F
330
1C3
100
AcDbEntity
  8
2D_MODEL
100
AcDbVertex
100
AcDb2dVertex
 10
15.49923079591305
 20
0.342624781662394
 30
0.0
  0
VERTEX
  5
260
330
1C3
100
AcDbEntity
  8
2D_MODEL
100
AcDbVertex
100
AcDb2dVertex
 10
15.50461793554672
 20
0.3470312424558332
 30
0.0
  0
VERTEX
  5
261
330
1C3
100
AcDbEntity
  8
2D_MODEL
100
AcDbVertex
100
AcDb2dVertex
 10
15.50984889566366
 20
0.3516220186877733
 30
0.0
  0
VERTEX
  5
262
330
1C3
100
AcDbEntity
  8
2D_MODEL
100
AcDbVertex
100
AcDb2dVertex
 10
15.51491737336435
 20
0.3563915788304184
 30
0.0
  0
VERTEX
  5
263
330
1C3
100
AcDbEntity
  8
2D_MODEL
100
AcDbVertex
100
AcDb2dVertex
 10
15.51981726152794
 20
0.3613341759352851
 30
0.0
  0
VERTEX
  5
264
330
1C3
100
AcDbEntity
  8
2D_MODEL
100
AcDbVertex
100
AcDb2dVertex
 10
15.52454265617084
 20
0.3664438545578284
 30
0.0
  0
VERTEX
  5
265
330
1C3
100
AcDbEntity
  8
2D_MODEL
100
AcDbVertex
100
AcDb2dVertex
 10
15.52908786356053
 20
0.3717144579332873
 30
0.0
  0
VERTEX
  5
266
330
1C3
100
AcDbEntity
  8
2D_MODEL
100
AcDbVertex
100
AcDb2dVertex
 10
15.53344740707614
 20
0.3771396353951087
 30
0.0
  0
VERTEX
  5
267
330
1C3
100
AcDbEntity
  8
2D_MODEL
100
AcDbVertex
100
AcDb2dVertex
 10
15.53761603380728
 20
0.3827128500270031
 30
0.0
  0
VERTEX
  5
268
330
1C3
100
AcDbEntity
  8
2D_MODEL
100
AcDbVertex
100
AcDb2dVertex
 10
15.54158872088343
 20
0.3884273865394234
 30
0.0
  0
VERTEX
  5
269
330
1C3
100
AcDbEntity
  8
2D_MODEL
100
AcDbVertex
100
AcDb2dVertex
 10
15.54536068152607
 20
0.394276359360962
 30
0.0
  0
VERTEX
  5
26A
330
1C3
100
AcDbEntity
  8
2D_MODEL
100
AcDbVertex
100
AcDb2dVertex
 10
15.54892737081642
 20
0.4002527209349304
 30
0.0
  0
VERTEX
  5
26B
330
1C3
100
AcDbEntity
  8
2D_MODEL
100
AcDbVertex
100
AcDb2dVertex
 10
15.5522844911717
 20
0.4063492702111152
 30
0.0
  0
VERTEX
  5
26C
330
1C3
100
AcDbEntity
  8
2D_MODEL
100
AcDbVertex
100
AcDb2dVertex
 10
15.55542799752334
 20
0.4125586613224829
 30
0.0
  0
VERTEX
  5
26D
330
1C3
100
AcDbEntity
  8
2D_MODEL
100
AcDbVertex
100
AcDb2dVertex
 10
15.55835410219104
 20
0.4188734124363782
 30
0.0
  0
VERTEX
  5
26E
330
1C3
100
AcDbEntity
  8
2D_MODEL
100
AcDbVertex
100
AcDb2dVertex
 10
15.56105927944657
 20
0.4252859147695476
 30
0.0
  0
VERTEX
  5
26F
330
1C3
100
AcDbEntity
  8
2D_MODEL
100
AcDbVertex
100
AcDb2dVertex
 10
15.56354026976204
 20
0.4317884417561336
 30
0.0
  0
VERTEX
  5
270
330
1C3
100
AcDbEntity
  8
2D_MODEL
100
AcDbVertex
100
AcDb2dVertex
 10
15.56579408373736
 20
0.4383731583575819
 30
0.0
  0
VERTEX
  5
271
330
1C3
100
AcDbEntity
  8
2D_MODEL
100
AcDbVertex
100
AcDb2dVertex
 10
15.56781800570224
 20
0.4450321305032546
 30
0.0
  0
VERTEX
  5
272
330
1C3
100
AcDbEntity
  8
2D_MODEL
100
AcDbVertex
100
AcDb2dVertex
 10
15.56960959698833
 20
0.4517573346503659
 30
0.0
  0
VERTEX
  5
273
330
1C3
100
AcDbEntity
  8
2D_MODEL
100
AcDbVertex
100
AcDb2dVertex
 10
15.5711666988677
 20
0.4585406674517272
 30
0.0
  0
VERTEX
  5
274
330
1C3
100
AcDbEntity
  8
2D_MODEL
100
AcDbVertex
100
AcDb2dVertex
 10
15.57248743515384
 20
0.4653739555196496
 30
0.0
  0
VERTEX
  5
275
330
1C3
100
AcDbEntity
  8
2D_MODEL
100
AcDbVertex
100
AcDb2dVertex
 10
15.57357021446241
 20
0.4722489652742377
 30
0.0
  0
VERTEX
  5
276
330
1C3
100
AcDbEntity
  8
2D_MODEL
100
AcDbVertex
100
AcDb2dVertex
 10
15.57441373212867
 20
0.4791574128642141
 30
0.0
  0
VERTEX
  5
277
330
1C3
100
AcDbEntity
  8
2D_MODEL
100
AcDbVertex
100
AcDb2dVertex
 10
15.57501697177954
 20
0.4860909741483142
 30
0.0
  0
VERTEX
  5
278
330
1C3
100
AcDbEntity
  8
2D_MODEL
100
AcDbVertex
100
AcDb2dVertex
 10
15.57537920655821
 20
0.4930412947252278
 30
0.0
  0
SEQEND
  5
279
330
1C3
100
AcDbEntity
  8
2D_MODEL
  0
POLYLINE
  5
27A
330
1F
100
AcDbEntity
  8
2D_MODEL
100
AcDb2dPolyline
 66
     1
 10
0.0
 20
0.0
 30
0.0
 70
     1
  0
VERTEX
  5
27B
330
27A
100
AcDbEntity
  8
2D_MODEL
100
AcDbVertex
100
AcDb2dVertex
 10
15.867
 20
12.00000000004502
 30
0.0
  0
VERTEX
  5
27C
330
27A
100
AcDbEntity
  8
2D_MODEL
100
AcDbVertex
100
AcDb2dVertex
 10
15.86624692367963
 20
12.043383449389
 30
0.0
  0
VERTEX
  5
27D
330
27A
100
AcDbEntity
  8
2D_MODEL
100
AcDbVertex
100
AcDb2dVertex
 10
15.86398860211683
 20
12.08671462505554
 30
0.0
  0
VERTEX
  5
27E
330
27A
100
AcDbEntity
  8
2D_MODEL
100
AcDbVertex
100
AcDb2dVertex
 10
15.86022775641319
 20
12.12994131635292
 30
0.0
  0
VERTEX
  5
27F
330
27A
100
AcDbEntity
  8
2D_MODEL
100
AcDbVertex
100
AcDb2dVertex
 10
15.85496891809486
 20
12.17301143848495
 30
0.0
  0
VERTEX
  5
280
330
27A
100
AcDbEntity
  8
2D_MODEL
100
AcDbVertex
100
AcDb2dVertex
 10
15.84821842365241
 20
12.21587309530906
 30
0.0
  0
VERTEX
  5
281
330
27A
100
AcDbEntity
  8
2D_MODEL
100
AcDbVertex
100
AcDb2dVertex
 10
15.83998440690588
 20
12.25847464186718
 30
0.0
  0
VERTEX
  5
282
330
27A
100
AcDbEntity
  8
2D_MODEL
100
AcDbVertex
100
AcDb2dVertex
 10
15.8302767892041
 20
12.30076474661382
 30
0.0
  0
VERTEX
  5
283
330
27A
100
AcDbEntity
  8
2D_MODEL
100
AcDbVertex
100
AcDb2dVertex
 10
15.81910726747032
 20
12.34269245326664
 30
0.0
  0
VERTEX
  5
284
330
27A
100
AcDbEntity
  8
2D_MODEL
100
AcDbVertex
100
AcDb2dVertex
 10
15.80648930010826
 20
12.38420724220475
 30
0.0
  0
VERTEX
  5
285
330
27A
100
AcDbEntity
  8
2D_MODEL
100
AcDbVertex
100
AcDb2dVertex
 10
15.7924380907858
 20
12.42525909134096
 30
0.0
  0
VERTEX
  5
286
330
27A
100
AcDbEntity
  8
2D_MODEL
100
AcDbVertex
100
AcDb2dVertex
 10
15.77697057011577
 20
12.46579853639449
 30
0.0
  0
VERTEX
  5
287
330
27A
100
AcDbEntity
  8
2D_MODEL
100
AcDbVertex
100
AcDb2dVertex
 10
15.76010537525585
 20
12.50577673049155
 30
0.0
  0
VERTEX
  5
288
330
27A
100
AcDbEntity
  8
2D_MODEL
100
AcDbVertex
100
AcDb2dVertex
 10
15.74186282745227
 20
12.54514550302207
 30
0.0
  0
VERTEX
  5
289
330
27A
100
AcDbEntity
  8
2D_MODEL
100
AcDbVertex
100
AcDb2dVertex
 10
15.72226490755425
 20
12.58385741768147
 30
0.0
  0
VERTEX
  5
28A
330
27A
100
AcDbEntity
  8
2D_MODEL
100
AcDbVertex
100
AcDb2dVertex
 10
15.70133522952885
 20
12.62186582962776
 30
0.0
  0
VERTEX
  5
28B
330
27A
100
AcDbEntity
  8
2D_MODEL
100
AcDbVertex
100
AcDb2dVertex
 10
15.67909901200793
 20
12.65912494168492
 30
0.0
  0
VERTEX
  5
28C
330
27A
100
AcDbEntity
  8
2D_MODEL
100
AcDbVertex
100
AcDb2dVertex
 10
15.65558304790167
 20
12.69558985952493
 30
0.0
  0
VERTEX
  5
28D
330
27A
100
AcDbEntity
  8
2D_MODEL
100
AcDbVertex
100
AcDb2dVertex
 10
15.63081567211524
 20
12.73121664576197
 30
0.0
  0
VERTEX
  5
28E
330
27A
100
AcDbEntity
  8
2D_MODEL
100
AcDbVertex
100
AcDb2dVertex
 10
15.60482672740738
 20
12.76596237289348
 30
0.0
  0
VERTEX
  5
28F
330
27A
100
AcDbEntity
  8
2D_MODEL
100
AcDbVertex
100
AcDb2dVertex
 10
15.57764752843226
 20
12.79978517502454
 30
0.0
  0
VERTEX
  5
290
330
27A
100
AcDbEntity
  8
2D_MODEL
100
AcDbVertex
100
AcDb2dVertex
 10
15.54931082400772
 20
12.83264429831293
 30
0.0
  0
VERTEX
  5
291
330
27A
100
AcDbEntity
  8
2D_MODEL
100
AcDbVertex
100
AcDb2dVertex
 10
15.51985075765552
 20
12.86450015007442
 30
0.0
  0
VERTEX
  5
292
330
27A
100
AcDbEntity
  8
2D_MODEL
100
AcDbVertex
100
AcDb2dVertex
 10
15.48930282646106
 20
12.8953143464888
 30
0.0
  0
VERTEX
  5
293
330
27A
100
AcDbEntity
  8
2D_MODEL
100
AcDbVertex
100
AcDb2dVertex
 10
15.45770383830211
 20
12.92504975884943
 30
0.0
  0
VERTEX
  5
294
330
27A
100
AcDbEntity
  8
2D_MODEL
100
AcDbVertex
100
AcDb2dVertex
 10
15.42509186749826
 20
12.95367055830043
 30
0.0
  0
VERTEX
  5
295
330
27A
100
AcDbEntity
  8
2D_MODEL
100
AcDbVertex
100
AcDb2dVertex
 10
15.39150620893425
 20
12.98114225900766
 30
0.0
  0
VERTEX
  5
296
330
27A
100
AcDbEntity
  8
2D_MODEL
100
AcDbVertex
100
AcDb2dVertex
 10
15.35698733071275
 20
13.00743175971146
 30
0.0
  0
VERTEX
  5
297
330
27A
100
AcDbEntity
  8
2D_MODEL
100
AcDbVertex
100
AcDb2dVertex
 10
15.32157682539344
 20
13.03250738361112
 30
0.0
  0
VERTEX
  5
298
330
27A
100
AcDbEntity
  8
2D_MODEL
100
AcDbVertex
100
AcDb2dVertex
 10
15.2853173598772
 20
13.0563389165329
 30
0.0
  0
VERTEX
  5
299
330
27A
100
AcDbEntity
  8
2D_MODEL
100
AcDbVertex
100
AcDb2dVertex
 10
15.24825262399581
 20
13.07889764333581
 30
0.0
  0
VERTEX
  5
29A
330
27A
100
AcDbEntity
  8
2D_MODEL
100
AcDbVertex
100
AcDb2dVertex
 10
15.21042727786913
 20
13.1001563825111
 30
0.0
  0
VERTEX
  5
29B
330
27A
100
AcDbEntity
  8
2D_MODEL
100
AcDbVertex
100
AcDb2dVertex
 10
15.17188689809313
 20
13.12008951893384
 30
0.0
  0
VERTEX
  5
29C
330
27A
100
AcDbEntity
  8
2D_MODEL
100
AcDbVertex
100
AcDb2dVertex
 10
15.13267792282364
 20
13.13867303472719
 30
0.0
  0
VERTEX
  5
29D
330
27A
100
AcDbEntity
  8
2D_MODEL
100
AcDbVertex
100
AcDb2dVertex
 10
15.09284759582195
 20
13.15588453820205
 30
0.0
  0
VERTEX
  5
29E
330
27A
100
AcDbEntity
  8
2D_MODEL
100
AcDbVertex
100
AcDb2dVertex
 10
15.05244390952984
 20
13.17170329083727
 30
0.0
  0
VERTEX
  5
29F
330
27A
100
AcDbEntity
  8
2D_MODEL
100
AcDbVertex
100
AcDb2dVertex
 10
15.01151554724234
 20
13.18611023226802
 30
0.0
  0
VERTEX
  5
2A0
330
27A
100
AcDbEntity
  8
2D_MODEL
100
AcDbVertex
100
AcDb2dVertex
 10
14.97011182444821
 20
13.19908800325199
 30
0.0
  0
VERTEX
  5
2A1
330
27A
100
AcDbEntity
  8
2D_MODEL
100
AcDbVertex
100
AcDb2dVertex
 10
14.92828262940858
 20
13.21062096658595
 30
0.0
  0
VERTEX
  5
2A2
330
27A
100
AcDbEntity
  8
2D_MODEL
100
AcDbVertex
100
AcDb2dVertex
 10
14.88607836304551
 20
13.22069522594736
 30
0.0
  0
VERTEX
  5
2A3
330
27A
100
AcDbEntity
  8
2D_MODEL
100
AcDbVertex
100
AcDb2dVertex
 10
14.84354987821279
 20
13.22929864263834
 30
0.0
  0
VERTEX
  5
2A4
330
27A
100
AcDbEntity
  8
2D_MODEL
100
AcDbVertex
100
AcDb2dVertex
 10
14.8007484184222
 20
13.23642085021188
 30
0.0
  0
VERTEX
  5
2A5
330
27A
100
AcDbEntity
  8
2D_MODEL
100
AcDbVertex
100
AcDb2dVertex
 10
14.75772555609911
 20
13.24205326696259
 30
0.0
  0
VERTEX
  5
2A6
330
27A
100
AcDbEntity
  8
2D_MODEL
100
AcDbVertex
100
AcDb2dVertex
 10
14.71453313044166
 20
13.24618910626697
 30
0.0
  0
VERTEX
  5
2A7
330
27A
100
AcDbEntity
  8
2D_MODEL
100
AcDbVertex
100
AcDb2dVertex
 10
14.67122318495863
 20
13.24882338476079
 30
0.0
  0
VERTEX
  5
2A8
330
27A
100
AcDbEntity
  8
2D_MODEL
100
AcDbVertex
100
AcDb2dVertex
 10
14.62784790476104
 20
13.24995292834364
 30
0.0
  0
VERTEX
  5
2A9
330
27A
100
AcDbEntity
  8
2D_MODEL
100
AcDbVertex
100
AcDb2dVertex
 10
14.58445955368311
 20
13.24957637600349
 30
0.0
  0
VERTEX
  5
2AA
330
27A
100
AcDbEntity
  8
2D_MODEL
100
AcDbVertex
100
AcDb2dVertex
 10
14.54111041130851
 20
13.24769418145657
 30
0.0
  0
VERTEX
  5
2AB
330
27A
100
AcDbEntity
  8
2D_MODEL
100
AcDbVertex
100
AcDb2dVertex
 10
14.49785270997745
 20
13.24430861260072
 30
0.0
  0
VERTEX
  5
2AC
330
27A
100
AcDbEntity
  8
2D_MODEL
100
AcDbVertex
100
AcDb2dVertex
 10
14.45473857185078
 20
13.23942374878271
 30
0.0
  0
VERTEX
  5
2AD
330
27A
100
AcDbEntity
  8
2D_MODEL
100
AcDbVertex
100
AcDb2dVertex
 10
14.41181994610691
 20
13.23304547588297
 30
0.0
  0
VERTEX
  5
2AE
330
27A
100
AcDbEntity
  8
2D_MODEL
100
AcDbVertex
100
AcDb2dVertex
 10
14.36914854634704
 20
13.22518147922356
 30
0.0
  0
VERTEX
  5
2AF
330
27A
100
AcDbEntity
  8
2D_MODEL
100
AcDbVertex
100
AcDb2dVertex
 10
14.32677578828432
 20
13.21584123430796
 30
0.0
  0
VERTEX
  5
2B0
330
27A
100
AcDbEntity
  8
2D_MODEL
100
AcDbVertex
100
AcDb2dVertex
 10
14.2847527277919
 20
13.20503599540378
 30
0.0
  0
VERTEX
  5
2B1
330
27A
100
AcDbEntity
  8
2D_MODEL
100
AcDbVertex
100
AcDb2dVertex
 10
14.24312999938461
 20
13.19277878198233
 30
0.0
  0
VERTEX
  5
2B2
330
27A
100
AcDbEntity
  8
2D_MODEL
100
AcDbVertex
100
AcDb2dVertex
 10
14.2019577552083
 20
13.17908436303109
 30
0.0
  0
VERTEX
  5
2B3
330
27A
100
AcDbEntity
  8
2D_MODEL
100
AcDbVertex
100
AcDb2dVertex
 10
14.1612856046104
 20
13.16396923925828
 30
0.0
  0
VERTEX
  5
2B4
330
27A
100
AcDbEntity
  8
2D_MODEL
100
AcDbVertex
100
AcDb2dVertex
 10
14.12116255436453
 20
13.14745162321076
 30
0.0
  0
VERTEX
  5
2B5
330
27A
100
AcDbEntity
  8
2D_MODEL
100
AcDbVertex
100
AcDb2dVertex
 10
14.08163694962116
 20
13.12955141732936
 30
0.0
  0
VERTEX
  5
2B6
330
27A
100
AcDbEntity
  8
2D_MODEL
100
AcDbVertex
100
AcDb2dVertex
 10
14.04275641565545
 20
13.11029018996797
 30
0.0
  0
VERTEX
  5
2B7
330
27A
100
AcDbEntity
  8
2D_MODEL
100
AcDbVertex
100
AcDb2dVertex
 10
14.00456780048254
 20
13.08969114940534
 30
0.0
  0
VERTEX
  5
2B8
330
27A
100
AcDbEntity
  8
2D_MODEL
100
AcDbVertex
100
AcDb2dVertex
 10
13.96711711840929
 20
13.06777911588095
 30
0.0
  0
VERTEX
  5
2B9
330
27A
100
AcDbEntity
  8
2D_MODEL
100
AcDbVertex
100
AcDb2dVertex
 10
13.93044949459066
 20
13.04458049168852
 30
0.0
  0
VERTEX
  5
2BA
330
27A
100
AcDbEntity
  8
2D_MODEL
100
AcDbVertex
100
AcDb2dVertex
 10
13.89460911065741
 20
13.02012322936333
 30
0.0
  0
VERTEX
  5
2BB
330
27A
100
AcDbEntity
  8
2D_MODEL
100
AcDbVertex
100
AcDb2dVertex
 10
13.85963915148067
 20
12.99443679800157
 30
0.0
  0
VERTEX
  5
2BC
330
27A
100
AcDbEntity
  8
2D_MODEL
100
AcDbVertex
100
AcDb2dVertex
 10
13.82558175313751
 20
12.96755214775237
 30
0.0
  0
VERTEX
  5
2BD
330
27A
100
AcDbEntity
  8
2D_MODEL
100
AcDbVertex
100
AcDb2dVertex
 10
13.79247795214032
 20
12.93950167252532
 30
0.0
  0
VERTEX
  5
2BE
330
27A
100
AcDbEntity
  8
2D_MODEL
100
AcDbVertex
100
AcDb2dVertex
 10
13.7603676359909
 20
12.91031917095827
 30
0.0
  0
VERTEX
  5
2BF
330
27A
100
AcDbEntity
  8
2D_MODEL
100
AcDbVertex
100
AcDb2dVertex
 10
13.72928949511925
 20
12.88003980569268
 30
0.0
  0
VERTEX
  5
2C0
330
27A
100
AcDbEntity
  8
2D_MODEL
100
AcDbVertex
100
AcDb2dVertex
 10
13.69928097626451
 20
12.84870006100529
 30
0.0
  0
VERTEX
  5
2C1
330
27A
100
AcDbEntity
  8
2D_MODEL
100
AcDbVertex
100
AcDb2dVertex
 10
13.67037823735461
 20
12.8163376988475
 30
0.0
  0
VERTEX
  5
2C2
330
27A
100
AcDbEntity
  8
2D_MODEL
100
AcDbVertex
100
AcDb2dVertex
 10
13.64261610393878
 20
12.78299171334508
 30
0.0
  0
VERTEX
  5
2C3
330
27A
100
AcDbEntity
  8
2D_MODEL
100
AcDbVertex
100
AcDb2dVertex
 10
13.61602802722548
 20
12.74870228381333
 30
0.0
  0
VERTEX
  5
2C4
330
27A
100
AcDbEntity
  8
2D_MODEL
100
AcDbVertex
100
AcDb2dVertex
 10
13.59064604377625
 20
12.71351072634411
 30
0.0
  0
VERTEX
  5
2C5
330
27A
100
AcDbEntity
  8
2D_MODEL
100
AcDbVertex
100
AcDb2dVertex
 10
13.56650073690423
 20
12.67745944402321
 30
0.0
  0
VERTEX
  5
2C6
330
27A
100
AcDbEntity
  8
2D_MODEL
100
AcDbVertex
100
AcDb2dVertex
 10
13.54362119982357
 20
12.64059187583787
 30
0.0
  0
VERTEX
  5
2C7
330
27A
100
AcDbEntity
  8
2D_MODEL
100
AcDbVertex
100
AcDb2dVertex
 10
13.52203500059443
 20
12.60295244433624
 30
0.0
  0
VERTEX
  5
2C8
330
27A
100
AcDbEntity
  8
2D_MODEL
100
AcDbVertex
100
AcDb2dVertex
 10
13.50176814890559
 20
12.56458650210165
 30
0.0
  0
VERTEX
  5
2C9
330
27A
100
AcDbEntity
  8
2D_MODEL
100
AcDbVertex
100
AcDb2dVertex
 10
13.48284506473481
 20
12.52554027710625
 30
0.0
  0
VERTEX
  5
2CA
330
27A
100
AcDbEntity
  8
2D_MODEL
100
AcDbVertex
100
AcDb2dVertex
 10
13.46528854892462
 20
12.48586081700997
 30
0.0
  0
VERTEX
  5
2CB
330
27A
100
AcDbEntity
  8
2D_MODEL
100
AcDbVertex
100
AcDb2dVertex
 10
13.44911975570917
 20
12.44559593247168
 30
0.0
  0
VERTEX
  5
2CC
330
27A
100
AcDbEntity
  8
2D_MODEL
100
AcDbVertex
100
AcDb2dVertex
 10
13.43435816722492
 20
12.40479413954113
 30
0.0
  0
VERTEX
  5
2CD
330
27A
100
AcDbEntity
  8
2D_MODEL
100
AcDbVertex
100
AcDb2dVertex
 10
13.42102157003626
 20
12.36350460120085
 30
0.0
  0
VERTEX
  5
2CE
330
27A
100
AcDbEntity
  8
2D_MODEL
100
AcDbVertex
100
AcDb2dVertex
 10
13.40912603370405
 20
12.32177706812861
 30
0.0
  0
VERTEX
  5
2CF
330
27A
100
AcDbEntity
  8
2D_MODEL
100
AcDbVertex
100
AcDb2dVertex
 10
13.39868589142305
 20
12.27966181875172
 30
0.0
  0
VERTEX
  5
2D0
330
27A
100
AcDbEntity
  8
2D_MODEL
100
AcDbVertex
100
AcDb2dVertex
 10
13.38971372275156
 20
12.23720959866541
 30
0.0
  0
VERTEX
  5
2D1
330
27A
100
AcDbEntity
  8
2D_MODEL
100
AcDbVertex
100
AcDb2dVertex
 10
13.382220338454
 20
12.19447155948841
 30
0.0
  0
VERTEX
  5
2D2
330
27A
100
AcDbEntity
  8
2D_MODEL
100
AcDbVertex
100
AcDb2dVertex
 10
13.37621476747483
 20
12.15149919722916
 30
0.0
  0
VERTEX
  5
2D3
330
27A
100
AcDbEntity
  8
2D_MODEL
100
AcDbVertex
100
AcDb2dVertex
 10
13.3717042460593
 20
12.10834429023719
 30
0.0
  0
VERTEX
  5
2D4
330
27A
100
AcDbEntity
  8
2D_MODEL
100
AcDbVertex
100
AcDb2dVertex
 10
13.36869420903441
 20
12.06505883681419
 30
0.0
  0
VERTEX
  5
2D5
330
27A
100
AcDbEntity
  8
2D_MODEL
100
AcDbVertex
100
AcDb2dVertex
 10
13.36718828326033
 20
12.02169499256015
 30
0.0
  0
VERTEX
  5
2D6
330
27A
100
AcDbEntity
  8
2D_MODEL
100
AcDbVertex
100
AcDb2dVertex
 10
13.36718828326033
 20
11.9783050075299
 30
0.0
  0
VERTEX
  5
2D7
330
27A
100
AcDbEntity
  8
2D_MODEL
100
AcDbVertex
100
AcDb2dVertex
 10
13.36869420903441
 20
11.93494116327586
 30
0.0
  0
VERTEX
  5
2D8
330
27A
100
AcDbEntity
  8
2D_MODEL
100
AcDbVertex
100
AcDb2dVertex
 10
13.3717042460593
 20
11.89165570985286
 30
0.0
  0
VERTEX
  5
2D9
330
27A
100
AcDbEntity
  8
2D_MODEL
100
AcDbVertex
100
AcDb2dVertex
 10
13.37621476747483
 20
11.84850080286088
 30
0.0
  0
VERTEX
  5
2DA
330
27A
100
AcDbEntity
  8
2D_MODEL
100
AcDbVertex
100
AcDb2dVertex
 10
13.382220338454
 20
11.80552844060164
 30
0.0
  0
VERTEX
  5
2DB
330
27A
100
AcDbEntity
  8
2D_MODEL
100
AcDbVertex
100
AcDb2dVertex
 10
13.38971372275156
 20
11.76279040142464
 30
0.0
  0
VERTEX
  5
2DC
330
27A
100
AcDbEntity
  8
2D_MODEL
100
AcDbVertex
100
AcDb2dVertex
 10
13.39868589142305
 20
11.72033818133833
 30
0.0
  0
VERTEX
  5
2DD
330
27A
100
AcDbEntity
  8
2D_MODEL
100
AcDbVertex
100
AcDb2dVertex
 10
13.40912603370405
 20
11.67822293196143
 30
0.0
  0
VERTEX
  5
2DE
330
27A
100
AcDbEntity
  8
2D_MODEL
100
AcDbVertex
100
AcDb2dVertex
 10
13.42102157003626
 20
11.6364953988892
 30
0.0
  0
VERTEX
  5
2DF
330
27A
100
AcDbEntity
  8
2D_MODEL
100
AcDbVertex
100
AcDb2dVertex
 10
13.43435816722492
 20
11.59520586054892
 30
0.0
  0
VERTEX
  5
2E0
330
27A
100
AcDbEntity
  8
2D_MODEL
100
AcDbVertex
100
AcDb2dVertex
 10
13.44911975570917
 20
11.55440406761837
 30
0.0
  0
VERTEX
  5
2E1
330
27A
100
AcDbEntity
  8
2D_MODEL
100
AcDbVertex
100
AcDb2dVertex
 10
13.46528854892462
 20
11.51413918308008
 30
0.0
  0
VERTEX
  5
2E2
330
27A
100
AcDbEntity
  8
2D_MODEL
100
AcDbVertex
100
AcDb2dVertex
 10
13.48284506473481
 20
11.4744597229838
 30
0.0
  0
VERTEX
  5
2E3
330
27A
100
AcDbEntity
  8
2D_MODEL
100
AcDbVertex
100
AcDb2dVertex
 10
13.50176814890559
 20
11.4354134979884
 30
0.0
  0
VERTEX
  5
2E4
330
27A
100
AcDbEntity
  8
2D_MODEL
100
AcDbVertex
100
AcDb2dVertex
 10
13.52203500059443
 20
11.39704755575381
 30
0.0
  0
VERTEX
  5
2E5
330
27A
100
AcDbEntity
  8
2D_MODEL
100
AcDbVertex
100
AcDb2dVertex
 10
13.54362119982357
 20
11.35940812425218
 30
0.0
  0
VERTEX
  5
2E6
330
27A
100
AcDbEntity
  8
2D_MODEL
100
AcDbVertex
100
AcDb2dVertex
 10
13.56650073690423
 20
11.32254055606684
 30
0.0
  0
VERTEX
  5
2E7
330
27A
100
AcDbEntity
  8
2D_MODEL
100
AcDbVertex
100
AcDb2dVertex
 10
13.59064604377625
 20
11.28648927374594
 30
0.0
  0
VERTEX
  5
2E8
330
27A
100
AcDbEntity
  8
2D_MODEL
100
AcDbVertex
100
AcDb2dVertex
 10
13.61602802722548
 20
11.25129771627672
 30
0.0
  0
VERTEX
  5
2E9
330
27A
100
AcDbEntity
  8
2D_MODEL
100
AcDbVertex
100
AcDb2dVertex
 10
13.64261610393878
 20
11.21700828674497
 30
0.0
  0
VERTEX
  5
2EA
330
27A
100
AcDbEntity
  8
2D_MODEL
100
AcDbVertex
100
AcDb2dVertex
 10
13.67037823735461
 20
11.18366230124255
 30
0.0
  0
VERTEX
  5
2EB
330
27A
100
AcDbEntity
  8
2D_MODEL
100
AcDbVertex
100
AcDb2dVertex
 10
13.69928097626451
 20
11.15129993908475
 30
0.0
  0
VERTEX
  5
2EC
330
27A
100
AcDbEntity
  8
2D_MODEL
100
AcDbVertex
100
AcDb2dVertex
 10
13.72928949511925
 20
11.11996019439737
 30
0.0
  0
VERTEX
  5
2ED
330
27A
100
AcDbEntity
  8
2D_MODEL
100
AcDbVertex
100
AcDb2dVertex
 10
13.7603676359909
 20
11.08968082913178
 30
0.0
  0
VERTEX
  5
2EE
330
27A
100
AcDbEntity
  8
2D_MODEL
100
AcDbVertex
100
AcDb2dVertex
 10
13.79247795214031
 20
11.06049832756473
 30
0.0
  0
VERTEX
  5
2EF
330
27A
100
AcDbEntity
  8
2D_MODEL
100
AcDbVertex
100
AcDb2dVertex
 10
13.82558175313751
 20
11.03244785233768
 30
0.0
  0
VERTEX
  5
2F0
330
27A
100
AcDbEntity
  8
2D_MODEL
100
AcDbVertex
100
AcDb2dVertex
 10
13.85963915148067
 20
11.00556320208848
 30
0.0
  0
VERTEX
  5
2F1
330
27A
100
AcDbEntity
  8
2D_MODEL
100
AcDbVertex
100
AcDb2dVertex
 10
13.89460911065741
 20
10.97987677072672
 30
0.0
  0
VERTEX
  5
2F2
330
27A
100
AcDbEntity
  8
2D_MODEL
100
AcDbVertex
100
AcDb2dVertex
 10
13.93044949459066
 20
10.95541950840153
 30
0.0
  0
VERTEX
  5
2F3
330
27A
100
AcDbEntity
  8
2D_MODEL
100
AcDbVertex
100
AcDb2dVertex
 10
13.96711711840929
 20
10.9322208842091
 30
0.0
  0
VERTEX
  5
2F4
330
27A
100
AcDbEntity
  8
2D_MODEL
100
AcDbVertex
100
AcDb2dVertex
 10
14.00456780048254
 20
10.91030885068471
 30
0.0
  0
VERTEX
  5
2F5
330
27A
100
AcDbEntity
  8
2D_MODEL
100
AcDbVertex
100
AcDb2dVertex
 10
14.04275641565545
 20
10.88970981012208
 30
0.0
  0
VERTEX
  5
2F6
330
27A
100
AcDbEntity
  8
2D_MODEL
100
AcDbVertex
100
AcDb2dVertex
 10
14.08163694962116
 20
10.87044858276069
 30
0.0
  0
VERTEX
  5
2F7
330
27A
100
AcDbEntity
  8
2D_MODEL
100
AcDbVertex
100
AcDb2dVertex
 10
14.12116255436453
 20
10.85254837687929
 30
0.0
  0
VERTEX
  5
2F8
330
27A
100
AcDbEntity
  8
2D_MODEL
100
AcDbVertex
100
AcDb2dVertex
 10
14.1612856046104
 20
10.83603076083177
 30
0.0
  0
VERTEX
  5
2F9
330
27A
100
AcDbEntity
  8
2D_MODEL
100
AcDbVertex
100
AcDb2dVertex
 10
14.2019577552083
 20
10.82091563705896
 30
0.0
  0
VERTEX
  5
2FA
330
27A
100
AcDbEntity
  8
2D_MODEL
100
AcDbVertex
100
AcDb2dVertex
 10
14.24312999938461
 20
10.80722121810772
 30
0.0
  0
VERTEX
  5
2FB
330
27A
100
AcDbEntity
  8
2D_MODEL
100
AcDbVertex
100
AcDb2dVertex
 10
14.2847527277919
 20
10.79496400468627
 30
0.0
  0
VERTEX
  5
2FC
330
27A
100
AcDbEntity
  8
2D_MODEL
100
AcDbVertex
100
AcDb2dVertex
 10
14.32677578828432
 20
10.78415876578209
 30
0.0
  0
VERTEX
  5
2FD
330
27A
100
AcDbEntity
  8
2D_MODEL
100
AcDbVertex
100
AcDb2dVertex
 10
14.36914854634704
 20
10.77481852086648
 30
0.0
  0
VERTEX
  5
2FE
330
27A
100
AcDbEntity
  8
2D_MODEL
100
AcDbVertex
100
AcDb2dVertex
 10
14.41181994610691
 20
10.76695452420708
 30
0.0
  0
VERTEX
  5
2FF
330
27A
100
AcDbEntity
  8
2D_MODEL
100
AcDbVertex
100
AcDb2dVertex
 10
14.45473857185078
 20
10.76057625130734
 30
0.0
  0
VERTEX
  5
300
330
27A
100
AcDbEntity
  8
2D_MODEL
100
AcDbVertex
100
AcDb2dVertex
 10
14.49785270997744
 20
10.75569138748933
 30
0.0
  0
VERTEX
  5
301
330
27A
100
AcDbEntity
  8
2D_MODEL
100
AcDbVertex
100
AcDb2dVertex
 10
14.54111041130851
 20
10.75230581863347
 30
0.0
  0
VERTEX
  5
302
330
27A
100
AcDbEntity
  8
2D_MODEL
100
AcDbVertex
100
AcDb2dVertex
 10
14.58445955368311
 20
10.75042362408656
 30
0.0
  0
VERTEX
  5
303
330
27A
100
AcDbEntity
  8
2D_MODEL
100
AcDbVertex
100
AcDb2dVertex
 10
14.62784790476104
 20
10.7500470717464
 30
0.0
  0
VERTEX
  5
304
330
27A
100
AcDbEntity
  8
2D_MODEL
100
AcDbVertex
100
AcDb2dVertex
 10
14.67122318495863
 20
10.75117661532926
 30
0.0
  0
VERTEX
  5
305
330
27A
100
AcDbEntity
  8
2D_MODEL
100
AcDbVertex
100
AcDb2dVertex
 10
14.71453313044166
 20
10.75381089382308
 30
0.0
  0
VERTEX
  5
306
330
27A
100
AcDbEntity
  8
2D_MODEL
100
AcDbVertex
100
AcDb2dVertex
 10
14.75772555609911
 20
10.75794673312746
 30
0.0
  0
VERTEX
  5
307
330
27A
100
AcDbEntity
  8
2D_MODEL
100
AcDbVertex
100
AcDb2dVertex
 10
14.8007484184222
 20
10.76357914987816
 30
0.0
  0
VERTEX
  5
308
330
27A
100
AcDbEntity
  8
2D_MODEL
100
AcDbVertex
100
AcDb2dVertex
 10
14.84354987821279
 20
10.77070135745171
 30
0.0
  0
VERTEX
  5
309
330
27A
100
AcDbEntity
  8
2D_MODEL
100
AcDbVertex
100
AcDb2dVertex
 10
14.88607836304551
 20
10.77930477414269
 30
0.0
  0
VERTEX
  5
30A
330
27A
100
AcDbEntity
  8
2D_MODEL
100
AcDbVertex
100
AcDb2dVertex
 10
14.92828262940858
 20
10.7893790335041
 30
0.0
  0
VERTEX
  5
30B
330
27A
100
AcDbEntity
  8
2D_MODEL
100
AcDbVertex
100
AcDb2dVertex
 10
14.97011182444821
 20
10.80091199683806
 30
0.0
  0
VERTEX
  5
30C
330
27A
100
AcDbEntity
  8
2D_MODEL
100
AcDbVertex
100
AcDb2dVertex
 10
15.01151554724234
 20
10.81388976782203
 30
0.0
  0
VERTEX
  5
30D
330
27A
100
AcDbEntity
  8
2D_MODEL
100
AcDbVertex
100
AcDb2dVertex
 10
15.05244390952984
 20
10.82829670925278
 30
0.0
  0
VERTEX
  5
30E
330
27A
100
AcDbEntity
  8
2D_MODEL
100
AcDbVertex
100
AcDb2dVertex
 10
15.09284759582195
 20
10.844115461888
 30
0.0
  0
VERTEX
  5
30F
330
27A
100
AcDbEntity
  8
2D_MODEL
100
AcDbVertex
100
AcDb2dVertex
 10
15.13267792282364
 20
10.86132696536285
 30
0.0
  0
VERTEX
  5
310
330
27A
100
AcDbEntity
  8
2D_MODEL
100
AcDbVertex
100
AcDb2dVertex
 10
15.17188689809313
 20
10.8799104811562
 30
0.0
  0
VERTEX
  5
311
330
27A
100
AcDbEntity
  8
2D_MODEL
100
AcDbVertex
100
AcDb2dVertex
 10
15.21042727786913
 20
10.89984361757895
 30
0.0
  0
VERTEX
  5
312
330
27A
100
AcDbEntity
  8
2D_MODEL
100
AcDbVertex
100
AcDb2dVertex
 10
15.24825262399581
 20
10.92110235675423
 30
0.0
  0
VERTEX
  5
313
330
27A
100
AcDbEntity
  8
2D_MODEL
100
AcDbVertex
100
AcDb2dVertex
 10
15.2853173598772
 20
10.94366108355715
 30
0.0
  0
VERTEX
  5
314
330
27A
100
AcDbEntity
  8
2D_MODEL
100
AcDbVertex
100
AcDb2dVertex
 10
15.32157682539344
 20
10.96749261647893
 30
0.0
  0
VERTEX
  5
315
330
27A
100
AcDbEntity
  8
2D_MODEL
100
AcDbVertex
100
AcDb2dVertex
 10
15.35698733071275
 20
10.99256824037858
 30
0.0
  0
VERTEX
  5
316
330
27A
100
AcDbEntity
  8
2D_MODEL
100
AcDbVertex
100
AcDb2dVertex
 10
15.39150620893425
 20
11.01885774108239
 30
0.0
  0
VERTEX
  5
317
330
27A
100
AcDbEntity
  8
2D_MODEL
100
AcDbVertex
100
AcDb2dVertex
 10
15.42509186749826
 20
11.04632944178961
 30
0.0
  0
VERTEX
  5
318
330
27A
100
AcDbEntity
  8
2D_MODEL
100
AcDbVertex
100
AcDb2dVertex
 10
15.45770383830211
 20
11.07495024124061
 30
0.0
  0
VERTEX
  5
319
330
27A
100
AcDbEntity
  8
2D_MODEL
100
AcDbVertex
100
AcDb2dVertex
 10
15.48930282646106
 20
11.10468565360124
 30
0.0
  0
VERTEX
  5
31A
330
27A
100
AcDbEntity
  8
2D_MODEL
100
AcDbVertex
100
AcDb2dVertex
 10
15.51985075765552
 20
11.13549985001562
 30
0.0
  0
VERTEX
  5
31B
330
27A
100
AcDbEntity
  8
2D_MODEL
100
AcDbVertex
100
AcDb2dVertex
 10
15.54931082400772
 20
11.16735570177711
 30
0.0
  0
VERTEX
  5
31C
330
27A
100
AcDbEntity
  8
2D_MODEL
100
AcDbVertex
100
AcDb2dVertex
 10
15.57764752843226
 20
11.20021482506551
 30
0.0
  0
VERTEX
  5
31D
330
27A
100
AcDbEntity
  8
2D_MODEL
100
AcDbVertex
100
AcDb2dVertex
 10
15.60482672740738
 20
11.23403762719657
 30
0.0
  0
VERTEX
  5
31E
330
27A
100
AcDbEntity
  8
2D_MODEL
100
AcDbVertex
100
AcDb2dVertex
 10
15.63081567211524
 20
11.26878335432808
 30
0.0
  0
VERTEX
  5
31F
330
27A
100
AcDbEntity
  8
2D_MODEL
100
AcDbVertex
100
AcDb2dVertex
 10
15.65558304790167
 20
11.30441014056511
 30
0.0
  0
VERTEX
  5
320
330
27A
100
AcDbEntity
  8
2D_MODEL
100
AcDbVertex
100
AcDb2dVertex
 10
15.67909901200793
 20
11.34087505840513
 30
0.0
  0
VERTEX
  5
321
330
27A
100
AcDbEntity
  8
2D_MODEL
100
AcDbVertex
100
AcDb2dVertex
 10
15.70133522952885
 20
11.37813417046229
 30
0.0
  0
VERTEX
  5
322
330
27A
100
AcDbEntity
  8
2D_MODEL
100
AcDbVertex
100
AcDb2dVertex
 10
15.72226490755425
 20
11.41614258240858
 30
0.0
  0
VERTEX
  5
323
330
27A
100
AcDbEntity
  8
2D_MODEL
100
AcDbVertex
100
AcDb2dVertex
 10
15.74186282745227
 20
11.45485449706798
 30
0.0
  0
VERTEX
  5
324
330
27A
100
AcDbEntity
  8
2D_MODEL
100
AcDbVertex
100
AcDb2dVertex
 10
15.76010537525585
 20
11.49422326959849
 30
0.0
  0
VERTEX
  5
325
330
27A
100
AcDbEntity
  8
2D_MODEL
100
AcDbVertex
100
AcDb2dVertex
 10
15.77697057011577
 20
11.53420146369556
 30
0.0
  0
VERTEX
  5
326
330
27A
100
AcDbEntity
  8
2D_MODEL
100
AcDbVertex
100
AcDb2dVertex
 10
15.7924380907858
 20
11.57474090874909
 30
0.0
  0
VERTEX
  5
327
330
27A
100
AcDbEntity
  8
2D_MODEL
100
AcDbVertex
100
AcDb2dVertex
 10
15.80648930010826
 20
11.6157927578853
 30
0.0
  0
VERTEX
  5
328
330
27A
100
AcDbEntity
  8
2D_MODEL
100
AcDbVertex
100
AcDb2dVertex
 10
15.81910726747032
 20
11.65730754682341
 30
0.0
  0
VERTEX
  5
329
330
27A
100
AcDbEntity
  8
2D_MODEL
100
AcDbVertex
100
AcDb2dVertex
 10
15.8302767892041
 20
11.69923525347622
 30
0.0
  0
VERTEX
  5
32A
330
27A
100
AcDbEntity
  8
2D_MODEL
100
AcDbVertex
100
AcDb2dVertex
 10
15.83998440690588
 20
11.74152535822286
 30
0.0
  0
VERTEX
  5
32B
330
27A
100
AcDbEntity
  8
2D_MODEL
100
AcDbVertex
100
AcDb2dVertex
 10
15.84821842365241
 20
11.78412690478098
 30
0.0
  0
VERTEX
  5
32C
330
27A
100
AcDbEntity
  8
2D_MODEL
100
AcDbVertex
100
AcDb2dVertex
 10
15.85496891809486
 20
11.8269885616051
 30
0.0
  0
VERTEX
  5
32D
330
27A
100
AcDbEntity
  8
2D_MODEL
100
AcDbVertex
100
AcDb2dVertex
 10
15.86022775641319
 20
11.87005868373712
 30
0.0
  0
VERTEX
  5
32E
330
27A
100
AcDbEntity
  8
2D_MODEL
100
AcDbVertex
100
AcDb2dVertex
 10
15.86398860211683
 20
11.9132853750345
 30
0.0
  0
VERTEX
  5
32F
330
27A
100
AcDbEntity
  8
2D_MODEL
100
AcDbVertex
100
AcDb2dVertex
 10
15.86624692367963
 20
11.95661655070104
 30
0.0
  0
SEQEND
  5
330
330
27A
100
AcDbEntity
  8
2D_MODEL
  0
POLYLINE
  5
331
330
1F
100
AcDbEntity
  8
2D_MODEL
100
AcDb2dPolyline
 66
     1
 10
0.0
 20
0.0
 30
0.0
 70
     1
  0
VERTEX
  5
332
330
331
100
AcDbEntity
  8
2D_MODEL
100
AcDbVertex
100
AcDb2dVertex
 10
14.39877669529664
 20
12.50500000004502
 30
0.0
 42
0.9999999999999901
  0
VERTEX
  5
333
330
331
100
AcDbEntity
  8
2D_MODEL
100
AcDbVertex
100
AcDb2dVertex
 10
14.222
 20
12.32822330474839
 30
0.0
  0
VERTEX
  5
334
330
331
100
AcDbEntity
  8
2D_MODEL
100
AcDbVertex
100
AcDb2dVertex
 10
14.222
 20
11.67177669534166
 30
0.0
 42
0.9999999999999999
  0
VERTEX
  5
335
330
331
100
AcDbEntity
  8
2D_MODEL
100
AcDbVertex
100
AcDb2dVertex
 10
14.39877669529664
 20
11.49500000004502
 30
0.0
  0
VERTEX
  5
336
330
331
100
AcDbEntity
  8
2D_MODEL
100
AcDbVertex
100
AcDb2dVertex
 10
14.83522330470337
 20
11.4950000000451
 30
0.0
 42
0.9999999999999999
  0
VERTEX
  5
337
330
331
100
AcDbEntity
  8
2D_MODEL
100
AcDbVertex
100
AcDb2dVertex
 10
15.01199999999994
 20
11.6717766953418
 30
0.0
  0
VERTEX
  5
338
330
331
100
AcDbEntity
  8
2D_MODEL
100
AcDbVertex
100
AcDb2dVertex
 10
15.01199999999994
 20
12.32822330474825
 30
0.0
 42
0.9999999999999901
  0
VERTEX
  5
339
330
331
100
AcDbEntity
  8
2D_MODEL
100
AcDbVertex
100
AcDb2dVertex
 10
14.83522330470337
 20
12.50500000004495
 30
0.0
  0
SEQEND
  5
33A
330
331
100
AcDbEntity
  8
2D_MODEL
  0
POLYLINE
  5
33B
330
1F
100
AcDbEntity
  8
2D_MODEL
100
AcDb2dPolyline
 66
     1
 10
0.0
 20
0.0
 30
0.0
 70
     1
  0
VERTEX
  5
33C
330
33B
100
AcDbEntity
  8
2D_MODEL
100
AcDbVertex
100
AcDb2dVertex
 10
8.5
 20
23.00000000000001
 30
0.0
  0
VERTEX
  5
33D
330
33B
100
AcDbEntity
  8
2D_MODEL
100
AcDbVertex
100
AcDb2dVertex
 10
8.5
 20
0.0
 30
0.0
  0
VERTEX
  5
33E
330
33B
100
AcDbEntity
  8
2D_MODEL
100
AcDbVertex
100
AcDb2dVertex
 10
12.5
 20
-0.0000000000000009
 30
0.0
  0
VERTEX
  5
33F
330
33B
100
AcDbEntity
  8
2D_MODEL
100
AcDbVertex
100
AcDb2dVertex
 10
12.5
 20
23.0
 30
0.0
  0
SEQEND
  5
340
330
33B
100
AcDbEntity
  8
2D_MODEL
  0
POLYLINE
  5
341
330
1F
100
AcDbEntity
  8
2D_MODEL
100
AcDb2dPolyline
 66
     1
 10
0.0
 20
0.0
 30
0.0
 70
     1
  0
VERTEX
  5
342
330
341
100
AcDbEntity
  8
2D_MODEL
100
AcDbVertex
100
AcDb2dVertex
 10
5.250000000000007
 20
1.239276695296638
 30
0.0
 42
1.000000000000049
  0
VERTEX
  5
343
330
341
100
AcDbEntity
  8
2D_MODEL
100
AcDbVertex
100
AcDb2dVertex
 10
5.426776695296636
 20
1.0625
 30
0.0
  0
VERTEX
  5
344
330
341
100
AcDbEntity
  8
2D_MODEL
100
AcDbVertex
100
AcDb2dVertex
 10
5.885723304703366
 20
1.062500000000001
 30
0.0
 42
0.9999999999999825
  0
VERTEX
  5
345
330
341
100
AcDbEntity
  8
2D_MODEL
100
AcDbVertex
100
AcDb2dVertex
 10
6.062500000000006
 20
1.239276695296641
 30
0.0
  0
VERTEX
  5
346
330
341
100
AcDbEntity
  8
2D_MODEL
100
AcDbVertex
100
AcDb2dVertex
 10
6.062500000000001
 20
3.510723304703361
 30
0.0
 42
0.9999999999999977
  0
VERTEX
  5
347
330
341
100
AcDbEntity
  8
2D_MODEL
100
AcDbVertex
100
AcDb2dVertex
 10
5.885723304703368
 20
3.6875
 30
0.0
  0
VERTEX
  5
348
330
341
100
AcDbEntity
  8
2D_MODEL
100
AcDbVertex
100
AcDb2dVertex
 10
5.426776695296634
 20
3.6875
 30
0.0
 42
1.000000000000035
  0
VERTEX
  5
349
330
341
100
AcDbEntity
  8
2D_MODEL
100
AcDbVertex
100
AcDb2dVertex
 10
5.250000000000008
 20
3.510723304703363
 30
0.0
  0
VERTEX
  5
34A
330
341
100
AcDbEntity
  8
2D_MODEL
100
AcDbVertex
100
AcDb2dVertex
 10
5.25
 20
2.937499999999998
 30
0.0
  0
VERTEX
  5
34B
330
341
100
AcDbEntity
  8
2D_MODEL
100
AcDbVertex
100
AcDb2dVertex
 10
3.75
 20
2.9375
 30
0.0
  0
VERTEX
  5
34C
330
341
100
AcDbEntity
  8
2D_MODEL
100
AcDbVertex
100
AcDb2dVertex
 10
3.75
 20
10.9375
 30
0.0
  0
VERTEX
  5
34D
330
341
100
AcDbEntity
  8
2D_MODEL
100
AcDbVertex
100
AcDb2dVertex
 10
5.25
 20
10.9375
 30
0.0
  0
VERTEX
  5
34E
330
341
100
AcDbEntity
  8
2D_MODEL
100
AcDbVertex
100
AcDb2dVertex
 10
5.25
 20
10.36427669529663
 30
0.0
 42
1.00000000000005
  0
VERTEX
  5
34F
330
341
100
AcDbEntity
  8
2D_MODEL
100
AcDbVertex
100
AcDb2dVertex
 10
5.426776695296637
 20
10.18749999999999
 30
0.0
  0
VERTEX
  5
350
330
341
100
AcDbEntity
  8
2D_MODEL
100
AcDbVertex
100
AcDb2dVertex
 10
5.885723304703367
 20
10.1875
 30
0.0
 42
1.00000000000001
  0
VERTEX
  5
351
330
341
100
AcDbEntity
  8
2D_MODEL
100
AcDbVertex
100
AcDb2dVertex
 10
6.062500000000008
 20
10.36427669529664
 30
0.0
  0
VERTEX
  5
352
330
341
100
AcDbEntity
  8
2D_MODEL
100
AcDbVertex
100
AcDb2dVertex
 10
6.0625
 20
12.63572330470336
 30
0.0
 42
0.9999999999999499
  0
VERTEX
  5
353
330
341
100
AcDbEntity
  8
2D_MODEL
100
AcDbVertex
100
AcDb2dVertex
 10
5.885723304703368
 20
12.8125
 30
0.0
  0
VERTEX
  5
354
330
341
100
AcDbEntity
  8
2D_MODEL
100
AcDbVertex
100
AcDb2dVertex
 10
5.426776695296635
 20
12.8125
 30
0.0
 42
1.00000000000003
  0
VERTEX
  5
355
330
341
100
AcDbEntity
  8
2D_MODEL
100
AcDbVertex
100
AcDb2dVertex
 10
5.250000000000007
 20
12.63572330470336
 30
0.0
  0
VERTEX
  5
356
330
341
100
AcDbEntity
  8
2D_MODEL
100
AcDbVertex
100
AcDb2dVertex
 10
5.25
 20
12.06249999999999
 30
0.0
  0
VERTEX
  5
357
330
341
100
AcDbEntity
  8
2D_MODEL
100
AcDbVertex
100
AcDb2dVertex
 10
3.75
 20
12.0625
 30
0.0
  0
VERTEX
  5
358
330
341
100
AcDbEntity
  8
2D_MODEL
100
AcDbVertex
100
AcDb2dVertex
 10
3.75
 20
20.06249999999999
 30
0.0
  0
VERTEX
  5
359
330
341
100
AcDbEntity
  8
2D_MODEL
100
AcDbVertex
100
AcDb2dVertex
 10
5.25
 20
20.06249999999999
 30
0.0
  0
VERTEX
  5
35A
330
341
100
AcDbEntity
  8
2D_MODEL
100
AcDbVertex
100
AcDb2dVertex
 10
5.250000000000001
 20
19.48927669529663
 30
0.0
 42
0.9999999999999999
  0
VERTEX
  5
35B
330
341
100
AcDbEntity
  8
2D_MODEL
100
AcDbVertex
100
AcDb2dVertex
 10
5.426776695296637
 20
19.31249999999999
 30
0.0
  0
VERTEX
  5
35C
330
341
100
AcDbEntity
  8
2D_MODEL
100
AcDbVertex
100
AcDb2dVertex
 10
5.885723304703366
 20
19.31249999999999
 30
0.0
 42
0.9999999999998996
  0
VERTEX
  5
35D
330
341
100
AcDbEntity
  8
2D_MODEL
100
AcDbVertex
100
AcDb2dVertex
 10
6.062500000000004
 20
19.48927669529662
 30
0.0
  0
VERTEX
  5
35E
330
341
100
AcDbEntity
  8
2D_MODEL
100
AcDbVertex
100
AcDb2dVertex
 10
6.0625
 20
21.76072330470335
 30
0.0
 42
0.9999999999999999
  0
VERTEX
  5
35F
330
341
100
AcDbEntity
  8
2D_MODEL
100
AcDbVertex
100
AcDb2dVertex
 10
5.885723304703369
 20
21.93749999999999
 30
0.0
  0
VERTEX
  5
360
330
341
100
AcDbEntity
  8
2D_MODEL
100
AcDbVertex
100
AcDb2dVertex
 10
5.426776695296633
 20
21.93749999999999
 30
0.0
 42
1.00000000000005
  0
VERTEX
  5
361
330
341
100
AcDbEntity
  8
2D_MODEL
100
AcDbVertex
100
AcDb2dVertex
 10
5.250000000000006
 20
21.76072330470335
 30
0.0
  0
VERTEX
  5
362
330
341
100
AcDbEntity
  8
2D_MODEL
100
AcDbVertex
100
AcDb2dVertex
 10
5.25
 20
21.18749999999999
 30
0.0
  0
VERTEX
  5
363
330
341
100
AcDbEntity
  8
2D_MODEL
100
AcDbVertex
100
AcDb2dVertex
 10
3.75
 20
21.18749999999999
 30
0.0
  0
VERTEX
  5
364
330
341
100
AcDbEntity
  8
2D_MODEL
100
AcDbVertex
100
AcDb2dVertex
 10
3.75
 20
23.0
 30
0.0
  0
VERTEX
  5
365
330
341
100
AcDbEntity
  8
2D_MODEL
100
AcDbVertex
100
AcDb2dVertex
 10
7.75
 20
22.99999999999999
 30
0.0
  0
VERTEX
  5
366
330
341
100
AcDbEntity
  8
2D_MODEL
100
AcDbVertex
100
AcDb2dVertex
 10
7.75
 20
0.0
 30
0.0
  0
VERTEX
  5
367
330
341
100
AcDbEntity
  8
2D_MODEL
100
AcDbVertex
100
AcDb2dVertex
 10
3.75
 20
0.0
 30
0.0
  0
VERTEX
  5
368
330
341
100
AcDbEntity
  8
2D_MODEL
100
AcDbVertex
100
AcDb2dVertex
 10
3.75
 20
1.8125
 30
0.0
  0
VERTEX
  5
369
330
341
100
AcDbEntity
  8
2D_MODEL
100
AcDbVertex
100
AcDb2dVertex
 10
5.25
 20
1.812500000000007
 30
0.0
  0
SEQEND
  5
36A
330
341
100
AcDbEntity
  8
2D_MODEL
  0
POLYLINE
  5
36B
330
1F
100
AcDbEntity
  8
2D_MODEL
100
AcDb2dPolyline
 66
     1
 10
0.0
 20
0.0
 30
0.0
 70
     1
  0
VERTEX
  5
36C
330
36B
100
AcDbEntity
  8
2D_MODEL
100
AcDbVertex
100
AcDb2dVertex
 10
1.176049772341486
 20
1.8125
 30
0.0
 42
-0.110532769592383
  0
VERTEX
  5
36D
330
36B
100
AcDbEntity
  8
2D_MODEL
100
AcDbVertex
100
AcDb2dVertex
 10
1.229331059785324
 20
1.800575657894736
 30
0.0
 42
1.576654876594186
  0
VERTEX
  5
36E
330
36B
100
AcDbEntity
  8
2D_MODEL
100
AcDbVertex
100
AcDb2dVertex
 10
1.229331059785325
 20
2.949424342105262
 30
0.0
 42
-0.1105327695923592
  0
VERTEX
  5
36F
330
36B
100
AcDbEntity
  8
2D_MODEL
100
AcDbVertex
100
AcDb2dVertex
 10
1.176049772341493
 20
2.937500000000002
 30
0.0
  0
VERTEX
  5
370
330
36B
100
AcDbEntity
  8
2D_MODEL
100
AcDbVertex
100
AcDb2dVertex
 10
0.0
 20
2.9375
 30
0.0
  0
VERTEX
  5
371
330
36B
100
AcDbEntity
  8
2D_MODEL
100
AcDbVertex
100
AcDb2dVertex
 10
0.0000000000000107
 20
10.9375
 30
0.0
  0
VERTEX
  5
372
330
36B
100
AcDbEntity
  8
2D_MODEL
100
AcDbVertex
100
AcDb2dVertex
 10
1.1760497723415
 20
10.9375
 30
0.0
 42
-0.1105327695923766
  0
VERTEX
  5
373
330
36B
100
AcDbEntity
  8
2D_MODEL
100
AcDbVertex
100
AcDb2dVertex
 10
1.229331059785337
 20
10.92557565789473
 30
0.0
 42
1.576654876594189
  0
VERTEX
  5
374
330
36B
100
AcDbEntity
  8
2D_MODEL
100
AcDbVertex
100
AcDb2dVertex
 10
1.229331059785337
 20
12.07442434210526
 30
0.0
 42
-0.1105327695923973
  0
VERTEX
  5
375
330
36B
100
AcDbEntity
  8
2D_MODEL
100
AcDbVertex
100
AcDb2dVertex
 10
1.176049772341504
 20
12.0625
 30
0.0
  0
VERTEX
  5
376
330
36B
100
AcDbEntity
  8
2D_MODEL
100
AcDbVertex
100
AcDb2dVertex
 10
0.0000000000000107
 20
12.0625
 30
0.0
  0
VERTEX
  5
377
330
36B
100
AcDbEntity
  8
2D_MODEL
100
AcDbVertex
100
AcDb2dVertex
 10
0.0
 20
20.06249999999999
 30
0.0
  0
VERTEX
  5
378
330
36B
100
AcDbEntity
  8
2D_MODEL
100
AcDbVertex
100
AcDb2dVertex
 10
1.176049772341493
 20
20.06249999999999
 30
0.0
 42
-0.1105327695923975
  0
VERTEX
  5
379
330
36B
100
AcDbEntity
  8
2D_MODEL
100
AcDbVertex
100
AcDb2dVertex
 10
1.229331059785325
 20
20.05057565789473
 30
0.0
 42
1.576654876594191
  0
VERTEX
  5
37A
330
36B
100
AcDbEntity
  8
2D_MODEL
100
AcDbVertex
100
AcDb2dVertex
 10
1.229331059785324
 20
21.19942434210526
 30
0.0
 42
-0.1105327695923727
  0
VERTEX
  5
37B
330
36B
100
AcDbEntity
  8
2D_MODEL
100
AcDbVertex
100
AcDb2dVertex
 10
1.176049772341486
 20
21.18749999999999
 30
0.0
  0
VERTEX
  5
37C
330
36B
100
AcDbEntity
  8
2D_MODEL
100
AcDbVertex
100
AcDb2dVertex
 10
0.0
 20
21.18749999999999
 30
0.0
  0
VERTEX
  5
37D
330
36B
100
AcDbEntity
  8
2D_MODEL
100
AcDbVertex
100
AcDb2dVertex
 10
0.0
 20
23.0
 30
0.0
  0
VERTEX
  5
37E
330
36B
100
AcDbEntity
  8
2D_MODEL
100
AcDbVertex
100
AcDb2dVertex
 10
3.0
 20
23.0
 30
0.0
  0
VERTEX
  5
37F
330
36B
100
AcDbEntity
  8
2D_MODEL
100
AcDbVertex
100
AcDb2dVertex
 10
3.0
 20
0.0
 30
0.0
  0
VERTEX
  5
380
330
36B
100
AcDbEntity
  8
2D_MODEL
100
AcDbVertex
100
AcDb2dVertex
 10
0.0
 20
0.0
 30
0.0
  0
VERTEX
  5
381
330
36B
100
AcDbEntity
  8
2D_MODEL
100
AcDbVertex
100
AcDb2dVertex
 10
0.0
 20
1.8125
 30
0.0
  0
SEQEND
  5
382
330
36B
100
AcDbEntity
  8
2D_MODEL
  0
ENDSEC
  0
SECTION
  2
OBJECTS
  0
DICTIONARY
  5
C
330
0
100
AcDbDictionary
  3
ACAD_GROUP
350
D
  3
ACAD_LAYOUT
350
1A
  3
ACAD_MATERIAL
350
43
  3
ACAD_MLEADERSTYLE
350
5B
  3
ACAD_MLINESTYLE
350
17
  3
ACAD_PLOTSETTINGS
350
19
  3
ACAD_SCALELIST
350
47
  3
ACAD_VISUALSTYLE
350
2A
  3
ACDBHEADERROUNDTRIPXREC
350
383
  3
ACDBVARIABLEDICTIONARY
350
3A4
  3
DWGPROPS
350
3AB
  0
DICTIONARY
  5
3AC
330
8
100
AcDbDictionary
280
     1
  3
ACAD_XREC_ROUNDTRIP
360
3AD
  0
DICTIONARY
  5
D
102
{ACAD_REACTORS
330
C
102
}
330
C
100
AcDbDictionary
  0
DICTIONARY
  5
1A
102
{ACAD_REACTORS
330
C
102
}
330
C
100
AcDbDictionary
  0
DICTIONARY
  5
43
102
{ACAD_REACTORS
330
C
102
}
330
C
100
AcDbDictionary
  3
BYBLOCK
350
45
  3
BYLAYER
350
44
  3
GLOBAL
350
46
  0
DICTIONARY
  5
5B
102
{ACAD_REACTORS
330
C
102
}
330
C
100
AcDbDictionary
  3
STANDARD
350
5C
  0
DICTIONARY
  5
17
102
{ACAD_REACTORS
330
C
102
}
330
C
100
AcDbDictionary
  3
STANDARD
350
18
  0
DICTIONARY
  5
19
102
{ACAD_REACTORS
330
C
102
}
330
C
100
AcDbDictionary
  0
DICTIONARY
  5
47
102
{ACAD_REACTORS
330
C
102
}
330
C
100
AcDbDictionary
  3
A0
350
48
  3
A1
350
49
  3
A2
350
4A
  3
A3
350
4B
  3
A4
350
4C
  3
A5
350
4D
  3
A6
350
4E
  3
A7
350
4F
  3
A8
350
50
  3
A9
350
51
  3
B1
350
52
  3
B2
350
53
  3
B3
350
54
  3
B4
350
55
  3
B5
350
56
  3
B6
350
57
  3
B7
350
58
  0
DICTIONARY
  5
2A
102
{ACAD_REACTORS
330
C
102
}
330
C
100
AcDbDictionary
  3
2DWIREFRAME
350
2F
  3
BASIC
350
32
  3
BRIGHTEN
350
36
  3
COLORCHANGE
350
3A
  3
CONCEPTUAL
350
34
  3
DIM
350
35
  3
EDGECOLOROFF
350
3D
  3
FACEPATTERN
350
39
  3
FLAT
350
2B
  3
FLATWITHEDGES
350
2C
  3
GOURAUD
350
2D
  3
GOURAUDWITHEDGES
350
2E
  3
HIDDEN
350
31
  3
JITTEROFF
350
3B
  3
LINEPATTERN
350
38
  3
OVERHANGOFF
350
3C
  3
REALISTIC
350
33
  3
SHADED
350
42
  3
SHADED_WITH_EDGES
350
41
  3
SHADES_OF_GRAY
350
3E
  3
SKETCHY
350
3F
  3
THICKEN
350
37
  3
WIREFRAME
350
30
  3
X-RAY
350
40
  0
DICTIONARY
  5
383
102
{ACAD_REACTORS
330
C
102
}
330
C
100
AcDbDictionary
  3
CEPSNID
350
38D
  3
CEPSNTYPE
350
38C
  3
DIMSTYLEDATA
350
3A3
  3
FINGERPRINTGUID
350
38E
  3
HYPERLINKBASE
350
386
  3
INSUNITS
350
38B
  3
LAYOUTDICT
350
388
  3
LWETCUNION
350
38A
  3
PLOTSETDICT
350
389
  3
PSVPSCALE
350
390
  3
PUCSBASE
350
393
  3
PUCSORGBACK
350
399
  3
PUCSORGBOTTOM
350
395
  3
PUCSORGFRONT
350
398
  3
PUCSORGLEFT
350
396
  3
PUCSORGRIGHT
350
397
  3
PUCSORGTOP
350
394
  3
PUCSORTHOREF
350
391
  3
PUCSORTHOVIEW
350
392
  3
STYLESHEET
350
387
  3
TSTACKALIGN
350
384
  3
TSTACKSIZE
350
385
  3
UCSBASE
350
39C
  3
UCSORGBACK
350
3A2
  3
UCSORGBOTTOM
350
39E
  3
UCSORGFRONT
350
3A1
  3
UCSORGLEFT
350
39F
  3
UCSORGRIGHT
350
3A0
  3
UCSORGTOP
350
39D
  3
UCSORTHOREF
350
39A
  3
UCSORTHOVIEW
350
39B
  3
VERSIONGUID
350
38F
  0
DICTIONARY
  5
3A4
102
{ACAD_REACTORS
330
C
102
}
330
C
100
AcDbDictionary
  3
CANNOSCALE
350
3AE
  3
CMLEADERSTYLE
350
3A6
  3
CTABLESTYLE
350
3A5
  3
DIMASSOC
350
3A9
  3
HIDETEXT
350
3AA
  3
MSLTSCALE
350
3AF
  0
XRECORD
  5
3AB
102
{ACAD_REACTORS
330
C
102
}
330
C
100
AcDbXrecord
  1
DWGPROPS COOKIE
  2

  3

  4

  6

  7

  8
Tim
  9

300
=
301
=
302
=
303
=
304
=
305
=
306
=
307
=
308
=
309
=
 40
0.0
 41
2459873.547302292
 42
2459873.547339872
  1

 90
        0
  0
XRECORD
  5
3AD
102
{ACAD_REACTORS
330
3AC
102
}
330
3AC
100
AcDbXrecord
102
VTR_0.000_0.000_1.000_1.000_VISUALSTYLE
340
2F
102
VTR_0.000_0.000_1.000_1.000_GRIDDISPLAY
 70
     3
102
VTR_0.000_0.000_1.000_1.000_GRIDMAJOR
 70
     5
102
VTR_0.000_0.000_1.000_1.000_DEFAULTLIGHTING
280
     1
102
VTR_0.000_0.000_1.000_1.000_DEFAULTLIGHTINGTYPE
 70
     1
102
VTR_0.000_0.000_1.000_1.000_BRIGHTNESS
141
0.0
102
VTR_0.000_0.000_1.000_1.000_CONTRAST
142
0.0
  0
MATERIAL
  5
45
102
{ACAD_REACTORS
330
43
102
}
102
{ACAD_XDICTIONARY
360
3B2
102
}
330
43
100
AcDbMaterial
  1
BYBLOCK
  0
MATERIAL
  5
44
102
{ACAD_REACTORS
330
43
102
}
102
{ACAD_XDICTIONARY
360
3B0
102
}
330
43
100
AcDbMaterial
  1
BYLAYER
  0
MATERIAL
  5
46
102
{ACAD_REACTORS
330
43
102
}
102
{ACAD_XDICTIONARY
360
3B4
102
}
330
43
100
AcDbMaterial
  1
GLOBAL
  0
ACAD_PROXY_OBJECT
  5
5C
102
{ACAD_REACTORS
330
5B
102
}
330
5B
100
AcDbProxyObject
 90
      499
 91
      505
 93
      610
310
40901902A4063FBFFFFFE056BD1B81E855B9FC0AD7A3703D0AD73F4214DD185B99185C9900AD7A3703D0AC73F90141901A02B5E8DC0F42B1CFC02B5E8DC0F42B1CFE5764000000000000300FC0
340
14
340
0
340
11
340
0
 94
        0
1001
ACAD_MLEADERVER
1070
     2
  0
MLINESTYLE
  5
18
102
{ACAD_REACTORS
330
17
102
}
330
17
100
AcDbMlineStyle
  2
Standard
 70
     0
  3

 62
   256
 51
90.0
 52
90.0
 71
     2
 49
0.5
 62
   256
  6
BYLAYER
 49
-0.5
 62
   256
  6
BYLAYER
  0
ACAD_PROXY_OBJECT
  5
48
102
{ACAD_REACTORS
330
47
102
}
330
47
100
AcDbProxyObject
 90
      499
 91
      503
 93
       41
310
903313A31580
  0
ACAD_PROXY_OBJECT
  5
49
102
{ACAD_REACTORS
330
47
102
}
330
47
100
AcDbProxyObject
 90
      499
 91
      503
 93
      257
310
90E312F31323822203D2031272D3022000000000000200FC000000000000284000
  0
ACAD_PROXY_OBJECT
  5
4A
102
{ACAD_REACTORS
330
47
102
}
330
47
100
AcDbProxyObject
 90
      499
 91
      503
 93
      249
310
90D312F363422203D2031272D3022000000000000240FC000000000000284000
  0
ACAD_PROXY_OBJECT
  5
4B
102
{ACAD_REACTORS
330
47
102
}
330
47
100
AcDbProxyObject
 90
      499
 91
      503
 93
      249
310
90D312F333222203D2031272D3022000000000000280FC000000000000284000
  0
ACAD_PROXY_OBJECT
  5
4C
102
{ACAD_REACTORS
330
47
102
}
330
47
100
AcDbProxyObject
 90
      499
 91
      503
 93
      249
310
90D312F313622203D2031272D30220000000000002C0FC000000000000284000
  0
ACAD_PROXY_OBJECT
  5
4D
102
{ACAD_REACTORS
330
47
102
}
330
47
100
AcDbProxyObject
 90
      499
 91
      503
 93
      249
310
90D332F333222203D2031272D30220000000000002E0FC000000000000284000
  0
ACAD_PROXY_OBJECT
  5
4E
102
{ACAD_REACTORS
330
47
102
}
330
47
100
AcDbProxyObject
 90
      499
 91
      503
 93
      241
310
90C312F3822203D2031272D3022000000000000300FC000000000000284000
  0
ACAD_PROXY_OBJECT
  5
4F
102
{ACAD_REACTORS
330
47
102
}
330
47
100
AcDbProxyObject
 90
      499
 91
      503
 93
      249
310
90D332F313622203D2031272D3022000000000000320FC000000000000284000
  0
ACAD_PROXY_OBJECT
  5
50
102
{ACAD_REACTORS
330
47
102
}
330
47
100
AcDbProxyObject
 90
      499
 91
      503
 93
      241
310
90C312F3422203D2031272D3022000000000000340FC000000000000284000
  0
ACAD_PROXY_OBJECT
  5
51
102
{ACAD_REACTORS
330
47
102
}
330
47
100
AcDbProxyObject
 90
      499
 91
      503
 93
      241
310
90C332F3822203D2031272D3022000000000000360FC000000000000284000
  0
ACAD_PROXY_OBJECT
  5
52
102
{ACAD_REACTORS
330
47
102
}
330
47
100
AcDbProxyObject
 90
      499
 91
      503
 93
      241
310
90C312F3222203D2031272D3022000000000000380FC000000000000284000
  0
ACAD_PROXY_OBJECT
  5
53
102
{ACAD_REACTORS
330
47
102
}
330
47
100
AcDbProxyObject
 90
      499
 91
      503
 93
      241
310
90C332F3422203D2031272D30220000000000003A0FC000000000000284000
  0
ACAD_PROXY_OBJECT
  5
54
102
{ACAD_REACTORS
330
47
102
}
330
47
100
AcDbProxyObject
 90
      499
 91
      503
 93
      161
310
90A3122203D2031272D30224000000000000284000
  0
ACAD_PROXY_OBJECT
  5
55
102
{ACAD_REACTORS
330
47
102
}
330
47
100
AcDbProxyObject
 90
      499
 91
      503
 93
      257
310
90E312D312F3222203D2031272D30220000000000003E0FC000000000000284000
  0
ACAD_PROXY_OBJECT
  5
56
102
{ACAD_REACTORS
330
47
102
}
330
47
100
AcDbProxyObject
 90
      499
 91
      503
 93
      225
310
90A3322203D2031272D302200000000000002100000000000000284000
  0
ACAD_PROXY_OBJECT
  5
57
102
{ACAD_REACTORS
330
47
102
}
330
47
100
AcDbProxyObject
 90
      499
 91
      503
 93
      225
310
90A3622203D2031272D302200000000000006100000000000000284000
  0
ACAD_PROXY_OBJECT
  5
58
102
{ACAD_REACTORS
330
47
102
}
330
47
100
AcDbProxyObject
 90
      499
 91
      503
 93
      249
310
90D31272D3022203D2031272D30220000000000000A100000000000000284000
  0
ACAD_PROXY_OBJECT
  5
2F
102
{ACAD_REACTORS
330
2A
102
}
330
2A
100
AcDbProxyObject
 90
      499
 91
      501
 93
      436
310
42CC9915DA5C99599C985B595049028333333333333E33F0000000000000F90107901411070040501600405405064090741402480A0340
1001
ACAD
1000
AcDbSavedByObjectVersion
1070
     0
  0
ACAD_PROXY_OBJECT
  5
32
102
{ACAD_REACTORS
330
2A
102
}
330
2A
100
AcDbProxyObject
 90
      499
 91
      501
 93
      388
310
4150985CDA58D07406404333333333333E33F0000000000000F90107A41107004050150841D405064090741402480A0350
1001
ACAD
1000
AcDbSavedByObjectVersion
1070
     0
  0
ACAD_PROXY_OBJECT
  5
36
102
{ACAD_REACTORS
330
2A
102
}
330
2A
100
AcDbProxyObject
 90
      499
 91
      501
 93
      428
310
42109C9A59DA1D195B90C409028333333333333E33F0000000000000F9010790141107004050150841D405064090741402480A029950
1001
ACAD
1000
AcDbSavedByObjectVersion
1070
     0
  0
ACAD_PROXY_OBJECT
  5
3A
102
{ACAD_REACTORS
330
2A
102
}
330
2A
100
AcDbProxyObject
 90
      499
 91
      501
 93
      452
310
42D0DBDB1BDC90DA185B99D95104090240C333333333333E33F0000000000000F90108901411070040501508421405064090741402480A0350
1001
ACAD
1000
AcDbSavedByObjectVersion
1070
     0
  0
ACAD_PROXY_OBJECT
  5
34
102
{ACAD_REACTORS
330
2A
102
}
330
2A
100
AcDbProxyObject
 90
      499
 91
      501
 93
      500
310
4290DBDB98D95C1D1D585B10940D028333333333333E33F0000000000000F90107902409070040501000000000018199010841D405064090740C02480A0340
1001
ACAD
1000
AcDbSavedByObjectVersion
1070
     0
  0
ACAD_PROXY_OBJECT
  5
35
102
{ACAD_REACTORS
330
2A
102
}
330
2A
100
AcDbProxyObject
 90
      499
 91
      501
 93
      412
310
40D11A5B50B409028333333333333E33F0000000000000F9010790141107004050150841D405064090741402480A02677FFFFFD0
1001
ACAD
1000
AcDbSavedByObjectVersion
1070
     0
  0
ACAD_PROXY_OBJECT
  5
3D
102
{ACAD_REACTORS
330
2A
102
}
330
2A
100
AcDbProxyObject
 90
      499
 91
      501
 93
      452
310
43115919D950DBDB1BDC93D999916409028333333333333E33F0000000000000F9010790141107004050150841D405064090741402480A0350
1001
ACAD
1000
AcDbSavedByObjectVersion
1070
     0
  0
ACAD_PROXY_OBJECT
  5
39
102
{ACAD_REACTORS
330
2A
102
}
330
2A
100
AcDbProxyObject
 90
      499
 91
      501
 93
      444
310
42D19858D95C185D1D195C9B90F409028333333333333E33F0000000000000F9010790141107004050150841D405064090741402480A0350
1001
ACAD
1000
AcDbSavedByObjectVersion
1070
     0
  0
ACAD_PROXY_OBJECT
  5
2B
102
{ACAD_REACTORS
330
2A
102
}
330
2A
100
AcDbProxyObject
 90
      499
 91
      501
 93
      380
310
41119B185D240901404333333333333E33F0000000000000F9010740A907004050150841D405064090741402480A1B50
1001
ACAD
1000
AcDbSavedByObjectVersion
1070
     0
  0
ACAD_PROXY_OBJECT
  5
2C
102
{ACAD_REACTORS
330
2A
102
}
330
2A
100
AcDbProxyObject
 90
      499
 91
      501
 93
      468
310
43519B185D15DA5D1A115919D95CD0140901404333333333333E33F0000000000000F90107409019070040501600405405064090741402480A1B50
1001
ACAD
1000
AcDbSavedByObjectVersion
1070
     0
  0
ACAD_PROXY_OBJECT
  5
2D
102
{ACAD_REACTORS
330
2A
102
}
330
2A
100
AcDbProxyObject
 90
      499
 91
      501
 93
      404
310
41D1DBDD5C985D5910240902404333333333333E33F0000000000000F9010740A9070040501641D405064090741402480A1B50
1001
ACAD
1000
AcDbSavedByObjectVersion
1070
     0
  0
ACAD_PROXY_OBJECT
  5
2E
102
{ACAD_REACTORS
330
2A
102
}
330
2A
100
AcDbProxyObject
 90
      499
 91
      501
 93
      492
310
4411DBDD5C985D5915DA5D1A115919D95CD0340902404333333333333E33F0000000000000F90107409019070040501600405405064090741402480A1B50
1001
ACAD
1000
AcDbSavedByObjectVersion
1070
     0
  0
ACAD_PROXY_OBJECT
  5
31
102
{ACAD_REACTORS
330
2A
102
}
330
2A
100
AcDbProxyObject
 90
      499
 91
      501
 93
      476
310
41921A5919195B90640502408333333333333E33F0000000000000F901079024090700405020000000000001110200405405064090740C02480A0340
1001
ACAD
1000
AcDbSavedByObjectVersion
1070
     0
  0
ACAD_PROXY_OBJECT
  5
3B
102
{ACAD_REACTORS
330
2A
102
}
330
2A
100
AcDbProxyObject
 90
      499
 91
      501
 93
      428
310
42529A5D1D195C93D999914409028333333333333E33F0000000000000F9010790141107004050150A41D405064090741402480A0350
1001
ACAD
1000
AcDbSavedByObjectVersion
1070
     0
  0
ACAD_PROXY_OBJECT
  5
38
102
{ACAD_REACTORS
330
2A
102
}
330
2A
100
AcDbProxyObject
 90
      499
 91
      501
 93
      444
310
42D31A5B995C185D1D195C9B90E409028333333333333E33F0000000000000F9010790141107004050750841D405064090741402483A0350
1001
ACAD
1000
AcDbSavedByObjectVersion
1070
     0
  0
ACAD_PROXY_OBJECT
  5
3C
102
{ACAD_REACTORS
330
2A
102
}
330
2A
100
AcDbProxyObject
 90
      499
 91
      501
 93
      444
310
42D3DD995C9A185B99D3D999915409028333333333333E33F0000000000000F9010790141107004050150941D405064090741402480A0350
1001
ACAD
1000
AcDbSavedByObjectVersion
1070
     0
  0
ACAD_PROXY_OBJECT
  5
33
102
{ACAD_REACTORS
330
2A
102
}
330
2A
100
AcDbProxyObject
 90
      499
 91
      501
 93
      428
310
425499585B1A5CDD1A58D08409038333333333333E33F0000000000000F9010740A907004050150800405405064090740C02480A1B40
1001
ACAD
1000
AcDbSavedByObjectVersion
1070
     0
  0
ACAD_PROXY_OBJECT
  5
42
102
{ACAD_REACTORS
330
2A
102
}
330
2A
100
AcDbProxyObject
 90
      499
 91
      501
 93
      420
310
4194DA1859195911B40902404333333333333E33F0000000000000F9010740A41107004050150800405405064090840C02480A0B40
1001
ACAD
1000
AcDbSavedByObjectVersion
1070
     0
  0
ACAD_PROXY_OBJECT
  5
41
102
{ACAD_REACTORS
330
2A
102
}
330
2A
100
AcDbProxyObject
 90
      499
 91
      501
 93
      516
310
4454DA18591959081DDA5D1A08195919D95CD1A40902404333333333333E33F0000000000000F901074090142907004050250800405405064090740C02480A0B40
1001
ACAD
1000
AcDbSavedByObjectVersion
1070
     0
  0
ACAD_PROXY_OBJECT
  5
3E
102
{ACAD_REACTORS
330
2A
102
}
330
2A
100
AcDbProxyObject
 90
      499
 91
      501
 93
      532
310
4394DA1859195CC81BD98811DC985E5174090240C333333333333E33F0000000000000F901079024090741D01000000000000111010841D405064090740C02480A0340
1001
ACAD
1000
AcDbSavedByObjectVersion
1070
     0
  0
ACAD_PROXY_OBJECT
  5
3F
102
{ACAD_REACTORS
330
2A
102
}
330
2A
100
AcDbProxyObject
 90
      499
 91
      501
 93
      476
310
41D4DAD95D18DA1E51840502408333333333333E33F0000000000000F901079024090741D01000000000000111010B41D405064090741802480A0340
1001
ACAD
1000
AcDbSavedByObjectVersion
1070
     0
  0
ACAD_PROXY_OBJECT
  5
37
102
{ACAD_REACTORS
330
2A
102
}
330
2A
100
AcDbProxyObject
 90
      499
 91
      501
 93
      412
310
41D51A1A58DAD95B90D409028333333333333E33F0000000000000F9010790141107004050150C41D405064090741402480A0350
1001
ACAD
1000
AcDbSavedByObjectVersion
1070
     0
  0
ACAD_PROXY_OBJECT
  5
30
102
{ACAD_REACTORS
330
2A
102
}
330
2A
100
AcDbProxyObject
 90
      499
 91
      501
 93
      420
310
4255DA5C99599C985B595059028333333333333E33F0000000000000F90107901411070040501600405405064090740C02480A0340
1001
ACAD
1000
AcDbSavedByObjectVersion
1070
     0
  0
ACAD_PROXY_OBJECT
  5
40
102
{ACAD_REACTORS
330
2A
102
}
330
2A
100
AcDbProxyObject
 90
      499
 91
      501
 93
      404
310
41560B54985E51940902404000000000000E03F0000000000000F9010740501907004050150841D405064090740C02480A1B40
1001
ACAD
1000
AcDbSavedByObjectVersion
1070
     0
  0
XRECORD
  5
38D
102
{ACAD_REACTORS
330
383
102
}
330
383
100
AcDbXrecord
340
0
  0
XRECORD
  5
38C
102
{ACAD_REACTORS
330
383
102
}
330
383
100
AcDbXrecord
 90
        0
  0
XRECORD
  5
3A3
102
{ACAD_REACTORS
330
383
102
}
330
383
100
AcDbXrecord
1000
DSTYLE
1002
{
1070
   279
 70
     2
1070
   340
340
11
1002
}
  0
XRECORD
  5
38E
102
{ACAD_REACTORS
330
383
102
}
330
383
100
AcDbXrecord
  1
{9f483408-0189-4340-8286-173563053280}
  0
XRECORD
  5
386
102
{ACAD_REACTORS
330
383
102
}
330
383
100
AcDbXrecord
  1

  0
XRECORD
  5
38B
102
{ACAD_REACTORS
330
383
102
}
330
383
100
AcDbXrecord
 90
        1
  0
XRECORD
  5
388
102
{ACAD_REACTORS
330
383
102
}
330
383
100
AcDbXrecord
340
1A
  0
XRECORD
  5
38A
102
{ACAD_REACTORS
330
383
102
}
330
383
100
AcDbXrecord
 90
    10781
  0
XRECORD
  5
389
102
{ACAD_REACTORS
330
383
102
}
330
383
100
AcDbXrecord
340
19
  0
XRECORD
  5
390
102
{ACAD_REACTORS
330
383
102
}
330
383
100
AcDbXrecord
 40
0.0
  0
XRECORD
  5
393
102
{ACAD_REACTORS
330
383
102
}
330
383
100
AcDbXrecord
340
0
  0
XRECORD
  5
399
102
{ACAD_REACTORS
330
383
102
}
330
383
100
AcDbXrecord
 10
0.0
 20
0.0
 30
0.0
  0
XRECORD
  5
395
102
{ACAD_REACTORS
330
383
102
}
330
383
100
AcDbXrecord
 10
0.0
 20
0.0
 30
0.0
  0
XRECORD
  5
398
102
{ACAD_REACTORS
330
383
102
}
330
383
100
AcDbXrecord
 10
0.0
 20
0.0
 30
0.0
  0
XRECORD
  5
396
102
{ACAD_REACTORS
330
383
102
}
330
383
100
AcDbXrecord
 10
0.0
 20
0.0
 30
0.0
  0
XRECORD
  5
397
102
{ACAD_REACTORS
330
383
102
}
330
383
100
AcDbXrecord
 10
0.0
 20
0.0
 30
0.0
  0
XRECORD
  5
394
102
{ACAD_REACTORS
330
383
102
}
330
383
100
AcDbXrecord
 10
0.0
 20
0.0
 30
0.0
  0
XRECORD
  5
391
102
{ACAD_REACTORS
330
383
102
}
330
383
100
AcDbXrecord
340
0
  0
XRECORD
  5
392
102
{ACAD_REACTORS
330
383
102
}
330
383
100
AcDbXrecord
 70
     0
  0
XRECORD
  5
387
102
{ACAD_REACTORS
330
383
102
}
330
383
100
AcDbXrecord
  1

  0
XRECORD
  5
384
102
{ACAD_REACTORS
330
383
102
}
330
383
100
AcDbXrecord
 90
        1
  0
XRECORD
  5
385
102
{ACAD_REACTORS
330
383
102
}
330
383
100
AcDbXrecord
 90
       70
  0
XRECORD
  5
39C
102
{ACAD_REACTORS
330
383
102
}
330
383
100
AcDbXrecord
340
0
  0
XRECORD
  5
3A2
102
{ACAD_REACTORS
330
383
102
}
330
383
100
AcDbXrecord
 10
0.0
 20
0.0
 30
0.0
  0
XRECORD
  5
39E
102
{ACAD_REACTORS
330
383
102
}
330
383
100
AcDbXrecord
 10
0.0
 20
0.0
 30
0.0
  0
XRECORD
  5
3A1
102
{ACAD_REACTORS
330
383
102
}
330
383
100
AcDbXrecord
 10
0.0
 20
0.0
 30
0.0
  0
XRECORD
  5
39F
102
{ACAD_REACTORS
330
383
102
}
330
383
100
AcDbXrecord
 10
0.0
 20
0.0
 30
0.0
  0
XRECORD
  5
3A0
102
{ACAD_REACTORS
330
383
102
}
330
383
100
AcDbXrecord
 10
0.0
 20
0.0
 30
0.0
  0
XRECORD
  5
39D
102
{ACAD_REACTORS
330
383
102
}
330
383
100
AcDbXrecord
 10
0.0
 20
0.0
 30
0.0
  0
XRECORD
  5
39A
102
{ACAD_REACTORS
330
383
102
}
330
383
100
AcDbXrecord
340
0
  0
XRECORD
  5
39B
102
{ACAD_REACTORS
330
383
102
}
330
383
100
AcDbXrecord
 70
     0
  0
XRECORD
  5
38F
102
{ACAD_REACTORS
330
383
102
}
330
383
100
AcDbXrecord
  1
{FAEB1C32-E019-11D5-929B-00C0DF256EC4}
  0
DICTIONARYVAR
  5
3AE
102
{ACAD_REACTORS
330
3A4
102
}
330
3A4
100
DictionaryVariables
280
     0
  1
1:1
  0
DICTIONARYVAR
  5
3A6
102
{ACAD_REACTORS
330
3A4
102
}
330
3A4
100
DictionaryVariables
280
     0
  1
Standard
  0
DICTIONARYVAR
  5
3A5
102
{ACAD_REACTORS
330
3A4
102
}
330
3A4
100
DictionaryVariables
280
     0
  1
Standard
  0
DICTIONARYVAR
  5
3A9
102
{ACAD_REACTORS
330
3A4
102
}
330
3A4
100
DictionaryVariables
280
     0
  1
2
  0
DICTIONARYVAR
  5
3AA
102
{ACAD_REACTORS
330
3A4
102
}
330
3A4
100
DictionaryVariables
280
     0
  1
1
  0
DICTIONARYVAR
  5
3AF
102
{ACAD_REACTORS
330
3A4
102
}
330
3A4
100
DictionaryVariables
280
     0
  1
1
  0
DICTIONARY
  5
3B2
330
45
100
AcDbDictionary
280
     1
  3
ACAD_XREC_ROUNDTRIP
360
3B3
  0
DICTIONARY
  5
3B0
330
44
100
AcDbDictionary
280
     1
  3
ACAD_XREC_ROUNDTRIP
360
3B1
  0
DICTIONARY
  5
3B4
330
46
100
AcDbDictionary
280
     1
  3
ACAD_XREC_ROUNDTRIP
360
3B5
  0
XRECORD
  5
3B3
102
{ACAD_REACTORS
330
3B2
102
}
330
3B2
100
AcDbXrecord
102
MATERIAL
148
0.0
149
0.0
149
0.0
 93
        0
 94
      127
282
     0
 72
     1
 77
     1
171
     1
175
     1
179
     1
273
     0
  0
XRECORD
  5
3B1
102
{ACAD_REACTORS
330
3B0
102
}
330
3B0
100
AcDbXrecord
102
MATERIAL
148
0.0
149
0.0
149
0.0
 93
        0
 94
      127
282
     0
 72
     1
 77
     1
171
     1
175
     1
179
     1
273
     0
  0
XRECORD
  5
3B5
102
{ACAD_REACTORS
330
3B4
102
}
330
3B4
100
AcDbXrecord
102
MATERIAL
148
0.0
149
0.0
149
0.0
 93
        0
 94
      127
282
     0
 72
     1
 77
     1
171
     1
175
     1
179
     1
273
     0
  0
ENDSEC
  0
EOF
